G04 #@! TF.GenerationSoftware,KiCad,Pcbnew,(5.1.5)-3*
G04 #@! TF.CreationDate,2020-05-20T21:28:27+09:00*
G04 #@! TF.ProjectId,autoplanter,6175746f-706c-4616-9e74-65722e6b6963,rev?*
G04 #@! TF.SameCoordinates,Original*
G04 #@! TF.FileFunction,Legend,Top*
G04 #@! TF.FilePolarity,Positive*
%FSLAX46Y46*%
G04 Gerber Fmt 4.6, Leading zero omitted, Abs format (unit mm)*
G04 Created by KiCad (PCBNEW (5.1.5)-3) date 2020-05-20 21:28:27*
%MOMM*%
%LPD*%
G04 APERTURE LIST*
%ADD10C,0.120000*%
%ADD11C,0.150000*%
%ADD12C,0.152400*%
%ADD13C,0.100000*%
%ADD14C,0.200000*%
%ADD15C,0.254000*%
G04 APERTURE END LIST*
D10*
X115570000Y-109690000D02*
X109220000Y-109690000D01*
X104140000Y-104610000D02*
X109220000Y-104610000D01*
X129540000Y-104610000D02*
X109220000Y-104610000D01*
X129540000Y-104610000D02*
X129540000Y-123660000D01*
X109220000Y-104610000D02*
X109220000Y-75400000D01*
X161290000Y-98260000D02*
X139700000Y-98260000D01*
X104140000Y-109690000D02*
X104140000Y-104610000D01*
X115570000Y-104610000D02*
X115570000Y-109690000D01*
X109220000Y-109690000D02*
X104140000Y-109690000D01*
X110490000Y-109690000D02*
X110490000Y-123660000D01*
X139700000Y-98260000D02*
X129540000Y-104610000D01*
X104140000Y-54610000D02*
X109220000Y-54610000D01*
X104140000Y-59690000D02*
X104140000Y-54610000D01*
X109220000Y-59690000D02*
X104140000Y-59690000D01*
X110490000Y-59690000D02*
X110490000Y-73660000D01*
X115570000Y-59690000D02*
X109220000Y-59690000D01*
X115570000Y-54610000D02*
X115570000Y-59690000D01*
X129540000Y-54610000D02*
X129540000Y-73660000D01*
X109220000Y-54610000D02*
X109220000Y-25400000D01*
X129540000Y-54610000D02*
X109220000Y-54610000D01*
X139700000Y-48260000D02*
X129540000Y-54610000D01*
X161290000Y-48260000D02*
X139700000Y-48260000D01*
D11*
X108982380Y-19502380D02*
X109172857Y-19502380D01*
X109268095Y-19454761D01*
X109315714Y-19407142D01*
X109410952Y-19264285D01*
X109458571Y-19073809D01*
X109458571Y-18692857D01*
X109410952Y-18597619D01*
X109363333Y-18550000D01*
X109268095Y-18502380D01*
X109077619Y-18502380D01*
X108982380Y-18550000D01*
X108934761Y-18597619D01*
X108887142Y-18692857D01*
X108887142Y-18930952D01*
X108934761Y-19026190D01*
X108982380Y-19073809D01*
X109077619Y-19121428D01*
X109268095Y-19121428D01*
X109363333Y-19073809D01*
X109410952Y-19026190D01*
X109458571Y-18930952D01*
X109934761Y-19502380D02*
X110125238Y-19502380D01*
X110220476Y-19454761D01*
X110268095Y-19407142D01*
X110363333Y-19264285D01*
X110410952Y-19073809D01*
X110410952Y-18692857D01*
X110363333Y-18597619D01*
X110315714Y-18550000D01*
X110220476Y-18502380D01*
X110030000Y-18502380D01*
X109934761Y-18550000D01*
X109887142Y-18597619D01*
X109839523Y-18692857D01*
X109839523Y-18930952D01*
X109887142Y-19026190D01*
X109934761Y-19073809D01*
X110030000Y-19121428D01*
X110220476Y-19121428D01*
X110315714Y-19073809D01*
X110363333Y-19026190D01*
X110410952Y-18930952D01*
X110839523Y-19407142D02*
X110887142Y-19454761D01*
X110839523Y-19502380D01*
X110791904Y-19454761D01*
X110839523Y-19407142D01*
X110839523Y-19502380D01*
X111506190Y-18502380D02*
X111601428Y-18502380D01*
X111696666Y-18550000D01*
X111744285Y-18597619D01*
X111791904Y-18692857D01*
X111839523Y-18883333D01*
X111839523Y-19121428D01*
X111791904Y-19311904D01*
X111744285Y-19407142D01*
X111696666Y-19454761D01*
X111601428Y-19502380D01*
X111506190Y-19502380D01*
X111410952Y-19454761D01*
X111363333Y-19407142D01*
X111315714Y-19311904D01*
X111268095Y-19121428D01*
X111268095Y-18883333D01*
X111315714Y-18692857D01*
X111363333Y-18597619D01*
X111410952Y-18550000D01*
X111506190Y-18502380D01*
X112696666Y-18502380D02*
X112506190Y-18502380D01*
X112410952Y-18550000D01*
X112363333Y-18597619D01*
X112268095Y-18740476D01*
X112220476Y-18930952D01*
X112220476Y-19311904D01*
X112268095Y-19407142D01*
X112315714Y-19454761D01*
X112410952Y-19502380D01*
X112601428Y-19502380D01*
X112696666Y-19454761D01*
X112744285Y-19407142D01*
X112791904Y-19311904D01*
X112791904Y-19073809D01*
X112744285Y-18978571D01*
X112696666Y-18930952D01*
X112601428Y-18883333D01*
X112410952Y-18883333D01*
X112315714Y-18930952D01*
X112268095Y-18978571D01*
X112220476Y-19073809D01*
X113410952Y-18502380D02*
X113506190Y-18502380D01*
X113601428Y-18550000D01*
X113649047Y-18597619D01*
X113696666Y-18692857D01*
X113744285Y-18883333D01*
X113744285Y-19121428D01*
X113696666Y-19311904D01*
X113649047Y-19407142D01*
X113601428Y-19454761D01*
X113506190Y-19502380D01*
X113410952Y-19502380D01*
X113315714Y-19454761D01*
X113268095Y-19407142D01*
X113220476Y-19311904D01*
X113172857Y-19121428D01*
X113172857Y-18883333D01*
X113220476Y-18692857D01*
X113268095Y-18597619D01*
X113315714Y-18550000D01*
X113410952Y-18502380D01*
X114934761Y-19502380D02*
X114934761Y-18835714D01*
X114934761Y-18930952D02*
X114982380Y-18883333D01*
X115077619Y-18835714D01*
X115220476Y-18835714D01*
X115315714Y-18883333D01*
X115363333Y-18978571D01*
X115363333Y-19502380D01*
X115363333Y-18978571D02*
X115410952Y-18883333D01*
X115506190Y-18835714D01*
X115649047Y-18835714D01*
X115744285Y-18883333D01*
X115791904Y-18978571D01*
X115791904Y-19502380D01*
X116268095Y-19502380D02*
X116268095Y-18835714D01*
X116268095Y-18930952D02*
X116315714Y-18883333D01*
X116410952Y-18835714D01*
X116553809Y-18835714D01*
X116649047Y-18883333D01*
X116696666Y-18978571D01*
X116696666Y-19502380D01*
X116696666Y-18978571D02*
X116744285Y-18883333D01*
X116839523Y-18835714D01*
X116982380Y-18835714D01*
X117077619Y-18883333D01*
X117125238Y-18978571D01*
X117125238Y-19502380D01*
D10*
X63500000Y-20320000D02*
X162560000Y-20320000D01*
X63500000Y-25400000D02*
X63500000Y-19733579D01*
X162560000Y-25400000D02*
X162560000Y-19733579D01*
X162560000Y-20320000D02*
X161433496Y-20906421D01*
X162560000Y-20320000D02*
X161433496Y-19733579D01*
X63500000Y-20320000D02*
X64626504Y-20906421D01*
X63500000Y-20320000D02*
X64626504Y-19733579D01*
X133750000Y-117600000D02*
X133750000Y-111590000D01*
X140570000Y-115350000D02*
X140570000Y-111590000D01*
X133750000Y-111590000D02*
X135010000Y-111590000D01*
X140570000Y-111590000D02*
X139310000Y-111590000D01*
X95852064Y-111320000D02*
X94647936Y-111320000D01*
X95852064Y-113140000D02*
X94647936Y-113140000D01*
X126202064Y-118220000D02*
X124997936Y-118220000D01*
X126202064Y-116400000D02*
X124997936Y-116400000D01*
D12*
X159613600Y-95161200D02*
X160426400Y-95161200D01*
X158521400Y-94145200D02*
X158521400Y-94551600D01*
X158521400Y-93738800D02*
X158521400Y-94145200D01*
X161518600Y-93738800D02*
X160629600Y-93738800D01*
X161518600Y-94551600D02*
X161518600Y-93738800D01*
X159410400Y-93738800D02*
X158521400Y-93738800D01*
D10*
X70310000Y-87700000D02*
X68810000Y-87700000D01*
X66310000Y-88950000D02*
X66310000Y-93450000D01*
X68810000Y-94700000D02*
X70310000Y-94700000D01*
X72810000Y-93450000D02*
X72810000Y-88950000D01*
X154580000Y-115372064D02*
X154580000Y-114167936D01*
X152760000Y-115372064D02*
X152760000Y-114167936D01*
D13*
X116835000Y-119150000D02*
G75*
G03X116835000Y-119250000I0J-50000D01*
G01*
X116835000Y-119250000D02*
G75*
G03X116835000Y-119150000I0J50000D01*
G01*
X116835000Y-119250000D02*
X116835000Y-119250000D01*
X116835000Y-119150000D02*
X116835000Y-119150000D01*
X117335000Y-120850000D02*
X119135000Y-120850000D01*
X117335000Y-118850000D02*
X119135000Y-118850000D01*
D10*
X86130000Y-82465000D02*
X85750000Y-82465000D01*
X86130000Y-76045000D02*
X86130000Y-82465000D01*
X104370000Y-76045000D02*
X104370000Y-82465000D01*
X86130000Y-76045000D02*
X104370000Y-76045000D01*
X104370000Y-101790000D02*
X103370000Y-101790000D01*
X104370000Y-101010000D02*
X104370000Y-101790000D01*
X86130000Y-101790000D02*
X87130000Y-101790000D01*
X86130000Y-101010000D02*
X86130000Y-101790000D01*
D11*
X82215000Y-104940000D02*
X80615000Y-104940000D01*
X82215000Y-115015000D02*
X87965000Y-115015000D01*
X82215000Y-104365000D02*
X87965000Y-104365000D01*
X82215000Y-115015000D02*
X82215000Y-114365000D01*
X87965000Y-115015000D02*
X87965000Y-114365000D01*
X87965000Y-104365000D02*
X87965000Y-105015000D01*
X82215000Y-104365000D02*
X82215000Y-104940000D01*
D10*
X72810000Y-83290000D02*
X72810000Y-78790000D01*
X68810000Y-84540000D02*
X70310000Y-84540000D01*
X66310000Y-78790000D02*
X66310000Y-83290000D01*
X70310000Y-77540000D02*
X68810000Y-77540000D01*
X111700000Y-79210000D02*
X111700000Y-77880000D01*
X111700000Y-77880000D02*
X113030000Y-77880000D01*
X114300000Y-77880000D02*
X116900000Y-77880000D01*
X116900000Y-80540000D02*
X116900000Y-77880000D01*
X114300000Y-80540000D02*
X116900000Y-80540000D01*
X114300000Y-80540000D02*
X114300000Y-77880000D01*
X160930000Y-101272064D02*
X160930000Y-100067936D01*
X159110000Y-101272064D02*
X159110000Y-100067936D01*
X121317936Y-102980000D02*
X122522064Y-102980000D01*
X121317936Y-101160000D02*
X122522064Y-101160000D01*
X159110000Y-90102064D02*
X159110000Y-88897936D01*
X160930000Y-90102064D02*
X160930000Y-88897936D01*
X155300000Y-101402064D02*
X155300000Y-100197936D01*
X157120000Y-101402064D02*
X157120000Y-100197936D01*
X158277936Y-108780000D02*
X159482064Y-108780000D01*
X158277936Y-110600000D02*
X159482064Y-110600000D01*
X150397936Y-102980000D02*
X151602064Y-102980000D01*
X150397936Y-101160000D02*
X151602064Y-101160000D01*
X129002064Y-101160000D02*
X127797936Y-101160000D01*
X129002064Y-102980000D02*
X127797936Y-102980000D01*
X136250000Y-93847936D02*
X136250000Y-95052064D01*
X138070000Y-93847936D02*
X138070000Y-95052064D01*
X114902064Y-102980000D02*
X113697936Y-102980000D01*
X114902064Y-101160000D02*
X113697936Y-101160000D01*
X114902064Y-93540000D02*
X113697936Y-93540000D01*
X114902064Y-95360000D02*
X113697936Y-95360000D01*
X126202064Y-122030000D02*
X124997936Y-122030000D01*
X126202064Y-120210000D02*
X124997936Y-120210000D01*
X95852064Y-107510000D02*
X94647936Y-107510000D01*
X95852064Y-109330000D02*
X94647936Y-109330000D01*
X98457936Y-116950000D02*
X99662064Y-116950000D01*
X98457936Y-115130000D02*
X99662064Y-115130000D01*
X80370000Y-84957936D02*
X80370000Y-86162064D01*
X82190000Y-84957936D02*
X82190000Y-86162064D01*
D14*
X126670000Y-89105000D02*
X127770000Y-89105000D01*
X128120000Y-92090000D02*
X128120000Y-89190000D01*
X128420000Y-92090000D02*
X128120000Y-92090000D01*
X128420000Y-89190000D02*
X128420000Y-92090000D01*
X128120000Y-89190000D02*
X128420000Y-89190000D01*
D10*
X78072064Y-98620000D02*
X76867936Y-98620000D01*
X78072064Y-100440000D02*
X76867936Y-100440000D01*
X147680000Y-115502064D02*
X147680000Y-114297936D01*
X149500000Y-115502064D02*
X149500000Y-114297936D01*
D11*
X152908000Y-88862000D02*
X151892000Y-90386000D01*
X151130000Y-88862000D02*
X153670000Y-88862000D01*
X151130000Y-90386000D02*
X151130000Y-88862000D01*
X153670000Y-90386000D02*
X151130000Y-90386000D01*
X153670000Y-88862000D02*
X153670000Y-90386000D01*
X149860000Y-89624000D02*
X149860000Y-89116000D01*
X151130000Y-89624000D02*
X149860000Y-89624000D01*
X154940000Y-89624000D02*
X153670000Y-89624000D01*
X154940000Y-89116000D02*
X154940000Y-89624000D01*
X156565600Y-84112200D02*
X155232100Y-84112200D01*
X156565600Y-85255200D02*
X156565600Y-84112200D01*
X156310000Y-96900000D02*
X156310000Y-84380000D01*
X148490000Y-96900000D02*
X156310000Y-96900000D01*
X148490000Y-84380000D02*
X148490000Y-96900000D01*
X156310000Y-84380000D02*
X148490000Y-84380000D01*
D10*
X112730000Y-110210000D02*
X113330000Y-110210000D01*
X112030000Y-113660000D02*
X112030000Y-110860000D01*
X113330000Y-114310000D02*
X112730000Y-114310000D01*
X114030000Y-110860000D02*
X114030000Y-113660000D01*
X114030000Y-113610000D02*
G75*
G02X113330000Y-114310000I-700000J0D01*
G01*
X112730000Y-114310000D02*
G75*
G02X112030000Y-113610000I0J700000D01*
G01*
X112030000Y-110910000D02*
G75*
G02X112730000Y-110210000I700000J0D01*
G01*
X113330000Y-110210000D02*
G75*
G02X114030000Y-110910000I0J-700000D01*
G01*
D13*
X83440000Y-121080000D02*
X83440000Y-121880000D01*
X74040000Y-121080000D02*
X74040000Y-121880000D01*
X74040000Y-117280000D02*
X74340000Y-117280000D01*
X74040000Y-117280000D02*
X74040000Y-117580000D01*
X83440000Y-117280000D02*
X83440000Y-117580000D01*
X83140000Y-117280000D02*
X83440000Y-117280000D01*
X78240000Y-117280000D02*
X79240000Y-117280000D01*
D10*
X158147936Y-104970000D02*
X159352064Y-104970000D01*
X158147936Y-106790000D02*
X159352064Y-106790000D01*
X72390000Y-104670000D02*
X71060000Y-104670000D01*
X71060000Y-104670000D02*
X71060000Y-103340000D01*
X71060000Y-102070000D02*
X71060000Y-99470000D01*
X73720000Y-99470000D02*
X71060000Y-99470000D01*
X73720000Y-102070000D02*
X73720000Y-99470000D01*
X73720000Y-102070000D02*
X71060000Y-102070000D01*
X77110000Y-111562064D02*
X77110000Y-110357936D01*
X75290000Y-111562064D02*
X75290000Y-110357936D01*
D14*
X146210000Y-97848000D02*
X138270000Y-97848000D01*
X138270000Y-103752000D02*
X146210000Y-103752000D01*
D10*
X114902064Y-99170000D02*
X113697936Y-99170000D01*
X114902064Y-97350000D02*
X113697936Y-97350000D01*
D14*
X79820000Y-90915000D02*
X79820000Y-90365000D01*
X79820000Y-90365000D02*
X82740000Y-90365000D01*
X82740000Y-90365000D02*
X82740000Y-90915000D01*
X82740000Y-90915000D02*
X79820000Y-90915000D01*
X79730000Y-92315000D02*
X79730000Y-91265000D01*
D13*
X116510000Y-116370000D02*
X117010000Y-116370000D01*
X116510000Y-116370000D02*
X116510000Y-115870000D01*
X119710000Y-113170000D02*
X119210000Y-113170000D01*
X119710000Y-113170000D02*
X119710000Y-113670000D01*
X119710000Y-116370000D02*
X119210000Y-116370000D01*
X119710000Y-116370000D02*
X119710000Y-115870000D01*
X116510000Y-113920000D02*
X116510000Y-113620000D01*
X116610000Y-113520000D02*
X116610000Y-113220000D01*
X116510000Y-113620000D02*
X116610000Y-113520000D01*
D10*
X112730000Y-121900000D02*
G75*
G02X112030000Y-121200000I0J700000D01*
G01*
X114030000Y-121200000D02*
G75*
G02X113330000Y-121900000I-700000J0D01*
G01*
X113330000Y-117800000D02*
G75*
G02X114030000Y-118500000I0J-700000D01*
G01*
X112030000Y-118500000D02*
G75*
G02X112730000Y-117800000I700000J0D01*
G01*
X112030000Y-121250000D02*
X112030000Y-118450000D01*
X112730000Y-117800000D02*
X113330000Y-117800000D01*
X114030000Y-118450000D02*
X114030000Y-121250000D01*
X113330000Y-121900000D02*
X112730000Y-121900000D01*
D14*
X117252000Y-90800000D02*
X117252000Y-82860000D01*
X111348000Y-82860000D02*
X111348000Y-90800000D01*
D10*
X99727936Y-105520000D02*
X100932064Y-105520000D01*
X99727936Y-103700000D02*
X100932064Y-103700000D01*
X143362000Y-111627936D02*
X143362000Y-112832064D01*
X145182000Y-111627936D02*
X145182000Y-112832064D01*
X70517936Y-107510000D02*
X71722064Y-107510000D01*
X70517936Y-109330000D02*
X71722064Y-109330000D01*
X99727936Y-107510000D02*
X100932064Y-107510000D01*
X99727936Y-109330000D02*
X100932064Y-109330000D01*
X153610000Y-80540000D02*
X153610000Y-79210000D01*
X154940000Y-80540000D02*
X153610000Y-80540000D01*
X156210000Y-80540000D02*
X156210000Y-77880000D01*
X156210000Y-77880000D02*
X158810000Y-77880000D01*
X156210000Y-80540000D02*
X158810000Y-80540000D01*
X158810000Y-80540000D02*
X158810000Y-77880000D01*
X145182000Y-106677936D02*
X145182000Y-107882064D01*
X143362000Y-106677936D02*
X143362000Y-107882064D01*
D14*
X123125000Y-86495000D02*
X123125000Y-84970000D01*
X128180000Y-84620000D02*
X123280000Y-84620000D01*
X128180000Y-81420000D02*
X128180000Y-84620000D01*
X123280000Y-81420000D02*
X128180000Y-81420000D01*
X123280000Y-84620000D02*
X123280000Y-81420000D01*
X121560000Y-94220000D02*
X122960000Y-94220000D01*
X123310000Y-97220000D02*
X123310000Y-94220000D01*
X125610000Y-97220000D02*
X123310000Y-97220000D01*
X125610000Y-94220000D02*
X125610000Y-97220000D01*
X123310000Y-94220000D02*
X125610000Y-94220000D01*
X147605000Y-105815000D02*
X149180000Y-105815000D01*
X149530000Y-110870000D02*
X149530000Y-105970000D01*
X152730000Y-110870000D02*
X149530000Y-110870000D01*
X152730000Y-105970000D02*
X152730000Y-110870000D01*
X149530000Y-105970000D02*
X152730000Y-105970000D01*
X160180000Y-118168000D02*
X152240000Y-118168000D01*
X152240000Y-124072000D02*
X160180000Y-124072000D01*
D10*
X70517936Y-113140000D02*
X71722064Y-113140000D01*
X70517936Y-111320000D02*
X71722064Y-111320000D01*
X145050000Y-119770000D02*
G75*
G02X145750000Y-119070000I700000J0D01*
G01*
X146350000Y-119070000D02*
G75*
G02X147050000Y-119770000I0J-700000D01*
G01*
X147050000Y-121170000D02*
G75*
G02X146350000Y-121870000I-700000J0D01*
G01*
X145750000Y-121870000D02*
G75*
G02X145050000Y-121170000I0J700000D01*
G01*
X146350000Y-121870000D02*
X145750000Y-121870000D01*
X147050000Y-119770000D02*
X147050000Y-121170000D01*
X145750000Y-119070000D02*
X146350000Y-119070000D01*
X145050000Y-121170000D02*
X145050000Y-119770000D01*
X108552064Y-108060000D02*
X107347936Y-108060000D01*
X108552064Y-106240000D02*
X107347936Y-106240000D01*
X134853000Y-101848936D02*
X134853000Y-103053064D01*
X136673000Y-101848936D02*
X136673000Y-103053064D01*
X66040000Y-98200000D02*
X67370000Y-98200000D01*
X67370000Y-98200000D02*
X67370000Y-99530000D01*
X67370000Y-100800000D02*
X67370000Y-121180000D01*
X64710000Y-121180000D02*
X67370000Y-121180000D01*
X64710000Y-100800000D02*
X64710000Y-121180000D01*
X64710000Y-100800000D02*
X67370000Y-100800000D01*
D14*
X74650000Y-92315000D02*
X74650000Y-91265000D01*
X77660000Y-90915000D02*
X74740000Y-90915000D01*
X77660000Y-90365000D02*
X77660000Y-90915000D01*
X74740000Y-90365000D02*
X77660000Y-90365000D01*
X74740000Y-90915000D02*
X74740000Y-90365000D01*
X140558000Y-83170000D02*
X140558000Y-91110000D01*
X146462000Y-91110000D02*
X146462000Y-83170000D01*
D10*
X126332064Y-114410000D02*
X125127936Y-114410000D01*
X126332064Y-112590000D02*
X125127936Y-112590000D01*
X95852064Y-103700000D02*
X94647936Y-103700000D01*
X95852064Y-105520000D02*
X94647936Y-105520000D01*
X93377936Y-115130000D02*
X94582064Y-115130000D01*
X93377936Y-116950000D02*
X94582064Y-116950000D01*
X76867936Y-94810000D02*
X78072064Y-94810000D01*
X76867936Y-96630000D02*
X78072064Y-96630000D01*
X133290000Y-123720000D02*
X133290000Y-122390000D01*
X134620000Y-123720000D02*
X133290000Y-123720000D01*
X135890000Y-123720000D02*
X135890000Y-121060000D01*
X135890000Y-121060000D02*
X141030000Y-121060000D01*
X135890000Y-123720000D02*
X141030000Y-123720000D01*
X141030000Y-123720000D02*
X141030000Y-121060000D01*
X99727936Y-111320000D02*
X100932064Y-111320000D01*
X99727936Y-113140000D02*
X100932064Y-113140000D01*
X76770000Y-84560000D02*
X78170000Y-84560000D01*
X78870000Y-85260000D02*
X78870000Y-85860000D01*
X78170000Y-86560000D02*
X76770000Y-86560000D01*
X76070000Y-85860000D02*
X76070000Y-85260000D01*
X76070000Y-85260000D02*
G75*
G02X76770000Y-84560000I700000J0D01*
G01*
X76770000Y-86560000D02*
G75*
G02X76070000Y-85860000I0J700000D01*
G01*
X78870000Y-85860000D02*
G75*
G02X78170000Y-86560000I-700000J0D01*
G01*
X78170000Y-84560000D02*
G75*
G02X78870000Y-85260000I0J-700000D01*
G01*
X159660000Y-115372064D02*
X159660000Y-114167936D01*
X157840000Y-115372064D02*
X157840000Y-114167936D01*
X108860000Y-120517936D02*
X108860000Y-121722064D01*
X107040000Y-120517936D02*
X107040000Y-121722064D01*
X103230000Y-120517936D02*
X103230000Y-121722064D01*
X105050000Y-120517936D02*
X105050000Y-121722064D01*
X121560000Y-84892064D02*
X121560000Y-83687936D01*
X119740000Y-84892064D02*
X119740000Y-83687936D01*
X93620000Y-120517936D02*
X93620000Y-121722064D01*
X91800000Y-120517936D02*
X91800000Y-121722064D01*
X118712064Y-108780000D02*
X117507936Y-108780000D01*
X118712064Y-110600000D02*
X117507936Y-110600000D01*
X134260000Y-93977936D02*
X134260000Y-95182064D01*
X132440000Y-93977936D02*
X132440000Y-95182064D01*
X95610000Y-120517936D02*
X95610000Y-121722064D01*
X97430000Y-120517936D02*
X97430000Y-121722064D01*
X89810000Y-120517936D02*
X89810000Y-121722064D01*
X87990000Y-120517936D02*
X87990000Y-121722064D01*
X122280000Y-108892064D02*
X122280000Y-107687936D01*
X124100000Y-108892064D02*
X124100000Y-107687936D01*
X126090000Y-109022064D02*
X126090000Y-107817936D01*
X127910000Y-109022064D02*
X127910000Y-107817936D01*
X143510000Y-80540000D02*
X143510000Y-77880000D01*
X143510000Y-80540000D02*
X146110000Y-80540000D01*
X146110000Y-80540000D02*
X146110000Y-77880000D01*
X143510000Y-77880000D02*
X146110000Y-77880000D01*
X140910000Y-77880000D02*
X142240000Y-77880000D01*
X140910000Y-79210000D02*
X140910000Y-77880000D01*
X99420000Y-120517936D02*
X99420000Y-121722064D01*
X101240000Y-120517936D02*
X101240000Y-121722064D01*
X132440000Y-87497936D02*
X132440000Y-88702064D01*
X134260000Y-87497936D02*
X134260000Y-88702064D01*
X140910000Y-29210000D02*
X140910000Y-27880000D01*
X140910000Y-27880000D02*
X142240000Y-27880000D01*
X143510000Y-27880000D02*
X146110000Y-27880000D01*
X146110000Y-30540000D02*
X146110000Y-27880000D01*
X143510000Y-30540000D02*
X146110000Y-30540000D01*
X143510000Y-30540000D02*
X143510000Y-27880000D01*
X127910000Y-59022064D02*
X127910000Y-57817936D01*
X126090000Y-59022064D02*
X126090000Y-57817936D01*
X124100000Y-58892064D02*
X124100000Y-57687936D01*
X122280000Y-58892064D02*
X122280000Y-57687936D01*
X87990000Y-70517936D02*
X87990000Y-71722064D01*
X89810000Y-70517936D02*
X89810000Y-71722064D01*
X97430000Y-70517936D02*
X97430000Y-71722064D01*
X95610000Y-70517936D02*
X95610000Y-71722064D01*
X105050000Y-70517936D02*
X105050000Y-71722064D01*
X103230000Y-70517936D02*
X103230000Y-71722064D01*
X107040000Y-70517936D02*
X107040000Y-71722064D01*
X108860000Y-70517936D02*
X108860000Y-71722064D01*
X91800000Y-70517936D02*
X91800000Y-71722064D01*
X93620000Y-70517936D02*
X93620000Y-71722064D01*
X101240000Y-70517936D02*
X101240000Y-71722064D01*
X99420000Y-70517936D02*
X99420000Y-71722064D01*
X118712064Y-60600000D02*
X117507936Y-60600000D01*
X118712064Y-58780000D02*
X117507936Y-58780000D01*
X119740000Y-34892064D02*
X119740000Y-33687936D01*
X121560000Y-34892064D02*
X121560000Y-33687936D01*
X134260000Y-37497936D02*
X134260000Y-38702064D01*
X132440000Y-37497936D02*
X132440000Y-38702064D01*
X132440000Y-43977936D02*
X132440000Y-45182064D01*
X134260000Y-43977936D02*
X134260000Y-45182064D01*
X143362000Y-56677936D02*
X143362000Y-57882064D01*
X145182000Y-56677936D02*
X145182000Y-57882064D01*
X145182000Y-61627936D02*
X145182000Y-62832064D01*
X143362000Y-61627936D02*
X143362000Y-62832064D01*
X158147936Y-56790000D02*
X159352064Y-56790000D01*
X158147936Y-54970000D02*
X159352064Y-54970000D01*
X157840000Y-65372064D02*
X157840000Y-64167936D01*
X159660000Y-65372064D02*
X159660000Y-64167936D01*
X99727936Y-53700000D02*
X100932064Y-53700000D01*
X99727936Y-55520000D02*
X100932064Y-55520000D01*
X99727936Y-59330000D02*
X100932064Y-59330000D01*
X99727936Y-57510000D02*
X100932064Y-57510000D01*
X99727936Y-63140000D02*
X100932064Y-63140000D01*
X99727936Y-61320000D02*
X100932064Y-61320000D01*
D14*
X146462000Y-41110000D02*
X146462000Y-33170000D01*
X140558000Y-33170000D02*
X140558000Y-41110000D01*
X111348000Y-32860000D02*
X111348000Y-40800000D01*
X117252000Y-40800000D02*
X117252000Y-32860000D01*
D10*
X114902064Y-47350000D02*
X113697936Y-47350000D01*
X114902064Y-49170000D02*
X113697936Y-49170000D01*
D14*
X138270000Y-53752000D02*
X146210000Y-53752000D01*
X146210000Y-47848000D02*
X138270000Y-47848000D01*
X152240000Y-74072000D02*
X160180000Y-74072000D01*
X160180000Y-68168000D02*
X152240000Y-68168000D01*
D10*
X75290000Y-61562064D02*
X75290000Y-60357936D01*
X77110000Y-61562064D02*
X77110000Y-60357936D01*
D14*
X74740000Y-40915000D02*
X74740000Y-40365000D01*
X74740000Y-40365000D02*
X77660000Y-40365000D01*
X77660000Y-40365000D02*
X77660000Y-40915000D01*
X77660000Y-40915000D02*
X74740000Y-40915000D01*
X74650000Y-42315000D02*
X74650000Y-41265000D01*
X79730000Y-42315000D02*
X79730000Y-41265000D01*
X82740000Y-40915000D02*
X79820000Y-40915000D01*
X82740000Y-40365000D02*
X82740000Y-40915000D01*
X79820000Y-40365000D02*
X82740000Y-40365000D01*
X79820000Y-40915000D02*
X79820000Y-40365000D01*
D13*
X116510000Y-63620000D02*
X116610000Y-63520000D01*
X116610000Y-63520000D02*
X116610000Y-63220000D01*
X116510000Y-63920000D02*
X116510000Y-63620000D01*
X119710000Y-66370000D02*
X119710000Y-65870000D01*
X119710000Y-66370000D02*
X119210000Y-66370000D01*
X119710000Y-63170000D02*
X119710000Y-63670000D01*
X119710000Y-63170000D02*
X119210000Y-63170000D01*
X116510000Y-66370000D02*
X116510000Y-65870000D01*
X116510000Y-66370000D02*
X117010000Y-66370000D01*
D14*
X123310000Y-44220000D02*
X125610000Y-44220000D01*
X125610000Y-44220000D02*
X125610000Y-47220000D01*
X125610000Y-47220000D02*
X123310000Y-47220000D01*
X123310000Y-47220000D02*
X123310000Y-44220000D01*
X121560000Y-44220000D02*
X122960000Y-44220000D01*
D10*
X141030000Y-73720000D02*
X141030000Y-71060000D01*
X135890000Y-73720000D02*
X141030000Y-73720000D01*
X135890000Y-71060000D02*
X141030000Y-71060000D01*
X135890000Y-73720000D02*
X135890000Y-71060000D01*
X134620000Y-73720000D02*
X133290000Y-73720000D01*
X133290000Y-73720000D02*
X133290000Y-72390000D01*
D13*
X78240000Y-67280000D02*
X79240000Y-67280000D01*
X83140000Y-67280000D02*
X83440000Y-67280000D01*
X83440000Y-67280000D02*
X83440000Y-67580000D01*
X74040000Y-67280000D02*
X74040000Y-67580000D01*
X74040000Y-67280000D02*
X74340000Y-67280000D01*
X74040000Y-71080000D02*
X74040000Y-71880000D01*
X83440000Y-71080000D02*
X83440000Y-71880000D01*
D10*
X64710000Y-50800000D02*
X67370000Y-50800000D01*
X64710000Y-50800000D02*
X64710000Y-71180000D01*
X64710000Y-71180000D02*
X67370000Y-71180000D01*
X67370000Y-50800000D02*
X67370000Y-71180000D01*
X67370000Y-48200000D02*
X67370000Y-49530000D01*
X66040000Y-48200000D02*
X67370000Y-48200000D01*
X73720000Y-52070000D02*
X71060000Y-52070000D01*
X73720000Y-52070000D02*
X73720000Y-49470000D01*
X73720000Y-49470000D02*
X71060000Y-49470000D01*
X71060000Y-52070000D02*
X71060000Y-49470000D01*
X71060000Y-54670000D02*
X71060000Y-53340000D01*
X72390000Y-54670000D02*
X71060000Y-54670000D01*
X78170000Y-34560000D02*
G75*
G02X78870000Y-35260000I0J-700000D01*
G01*
X78870000Y-35860000D02*
G75*
G02X78170000Y-36560000I-700000J0D01*
G01*
X76770000Y-36560000D02*
G75*
G02X76070000Y-35860000I0J700000D01*
G01*
X76070000Y-35260000D02*
G75*
G02X76770000Y-34560000I700000J0D01*
G01*
X76070000Y-35860000D02*
X76070000Y-35260000D01*
X78170000Y-36560000D02*
X76770000Y-36560000D01*
X78870000Y-35260000D02*
X78870000Y-35860000D01*
X76770000Y-34560000D02*
X78170000Y-34560000D01*
X113330000Y-60210000D02*
G75*
G02X114030000Y-60910000I0J-700000D01*
G01*
X112030000Y-60910000D02*
G75*
G02X112730000Y-60210000I700000J0D01*
G01*
X112730000Y-64310000D02*
G75*
G02X112030000Y-63610000I0J700000D01*
G01*
X114030000Y-63610000D02*
G75*
G02X113330000Y-64310000I-700000J0D01*
G01*
X114030000Y-60860000D02*
X114030000Y-63660000D01*
X113330000Y-64310000D02*
X112730000Y-64310000D01*
X112030000Y-63660000D02*
X112030000Y-60860000D01*
X112730000Y-60210000D02*
X113330000Y-60210000D01*
X113330000Y-71900000D02*
X112730000Y-71900000D01*
X114030000Y-68450000D02*
X114030000Y-71250000D01*
X112730000Y-67800000D02*
X113330000Y-67800000D01*
X112030000Y-71250000D02*
X112030000Y-68450000D01*
X112030000Y-68500000D02*
G75*
G02X112730000Y-67800000I700000J0D01*
G01*
X113330000Y-67800000D02*
G75*
G02X114030000Y-68500000I0J-700000D01*
G01*
X114030000Y-71200000D02*
G75*
G02X113330000Y-71900000I-700000J0D01*
G01*
X112730000Y-71900000D02*
G75*
G02X112030000Y-71200000I0J700000D01*
G01*
X145050000Y-71170000D02*
X145050000Y-69770000D01*
X145750000Y-69070000D02*
X146350000Y-69070000D01*
X147050000Y-69770000D02*
X147050000Y-71170000D01*
X146350000Y-71870000D02*
X145750000Y-71870000D01*
X145750000Y-71870000D02*
G75*
G02X145050000Y-71170000I0J700000D01*
G01*
X147050000Y-71170000D02*
G75*
G02X146350000Y-71870000I-700000J0D01*
G01*
X146350000Y-69070000D02*
G75*
G02X147050000Y-69770000I0J-700000D01*
G01*
X145050000Y-69770000D02*
G75*
G02X145750000Y-69070000I700000J0D01*
G01*
D11*
X156310000Y-34380000D02*
X148490000Y-34380000D01*
X148490000Y-34380000D02*
X148490000Y-46900000D01*
X148490000Y-46900000D02*
X156310000Y-46900000D01*
X156310000Y-46900000D02*
X156310000Y-34380000D01*
X156565600Y-35255200D02*
X156565600Y-34112200D01*
X156565600Y-34112200D02*
X155232100Y-34112200D01*
X154940000Y-39116000D02*
X154940000Y-39624000D01*
X154940000Y-39624000D02*
X153670000Y-39624000D01*
X151130000Y-39624000D02*
X149860000Y-39624000D01*
X149860000Y-39624000D02*
X149860000Y-39116000D01*
X153670000Y-38862000D02*
X153670000Y-40386000D01*
X153670000Y-40386000D02*
X151130000Y-40386000D01*
X151130000Y-40386000D02*
X151130000Y-38862000D01*
X151130000Y-38862000D02*
X153670000Y-38862000D01*
X152908000Y-38862000D02*
X151892000Y-40386000D01*
D10*
X149500000Y-65502064D02*
X149500000Y-64297936D01*
X147680000Y-65502064D02*
X147680000Y-64297936D01*
X158810000Y-30540000D02*
X158810000Y-27880000D01*
X156210000Y-30540000D02*
X158810000Y-30540000D01*
X156210000Y-27880000D02*
X158810000Y-27880000D01*
X156210000Y-30540000D02*
X156210000Y-27880000D01*
X154940000Y-30540000D02*
X153610000Y-30540000D01*
X153610000Y-30540000D02*
X153610000Y-29210000D01*
D14*
X149530000Y-55970000D02*
X152730000Y-55970000D01*
X152730000Y-55970000D02*
X152730000Y-60870000D01*
X152730000Y-60870000D02*
X149530000Y-60870000D01*
X149530000Y-60870000D02*
X149530000Y-55970000D01*
X147605000Y-55815000D02*
X149180000Y-55815000D01*
X128120000Y-39190000D02*
X128420000Y-39190000D01*
X128420000Y-39190000D02*
X128420000Y-42090000D01*
X128420000Y-42090000D02*
X128120000Y-42090000D01*
X128120000Y-42090000D02*
X128120000Y-39190000D01*
X126670000Y-39105000D02*
X127770000Y-39105000D01*
X123280000Y-34620000D02*
X123280000Y-31420000D01*
X123280000Y-31420000D02*
X128180000Y-31420000D01*
X128180000Y-31420000D02*
X128180000Y-34620000D01*
X128180000Y-34620000D02*
X123280000Y-34620000D01*
X123125000Y-36495000D02*
X123125000Y-34970000D01*
D10*
X78072064Y-50440000D02*
X76867936Y-50440000D01*
X78072064Y-48620000D02*
X76867936Y-48620000D01*
X76867936Y-46630000D02*
X78072064Y-46630000D01*
X76867936Y-44810000D02*
X78072064Y-44810000D01*
X82190000Y-34957936D02*
X82190000Y-36162064D01*
X80370000Y-34957936D02*
X80370000Y-36162064D01*
X70517936Y-61320000D02*
X71722064Y-61320000D01*
X70517936Y-63140000D02*
X71722064Y-63140000D01*
X70517936Y-59330000D02*
X71722064Y-59330000D01*
X70517936Y-57510000D02*
X71722064Y-57510000D01*
X136673000Y-51848936D02*
X136673000Y-53053064D01*
X134853000Y-51848936D02*
X134853000Y-53053064D01*
X93377936Y-66950000D02*
X94582064Y-66950000D01*
X93377936Y-65130000D02*
X94582064Y-65130000D01*
X98457936Y-65130000D02*
X99662064Y-65130000D01*
X98457936Y-66950000D02*
X99662064Y-66950000D01*
X108552064Y-56240000D02*
X107347936Y-56240000D01*
X108552064Y-58060000D02*
X107347936Y-58060000D01*
X95852064Y-55520000D02*
X94647936Y-55520000D01*
X95852064Y-53700000D02*
X94647936Y-53700000D01*
X95852064Y-59330000D02*
X94647936Y-59330000D01*
X95852064Y-57510000D02*
X94647936Y-57510000D01*
X126332064Y-62590000D02*
X125127936Y-62590000D01*
X126332064Y-64410000D02*
X125127936Y-64410000D01*
X126202064Y-70210000D02*
X124997936Y-70210000D01*
X126202064Y-72030000D02*
X124997936Y-72030000D01*
X126202064Y-66400000D02*
X124997936Y-66400000D01*
X126202064Y-68220000D02*
X124997936Y-68220000D01*
X95852064Y-63140000D02*
X94647936Y-63140000D01*
X95852064Y-61320000D02*
X94647936Y-61320000D01*
X160930000Y-40102064D02*
X160930000Y-38897936D01*
X159110000Y-40102064D02*
X159110000Y-38897936D01*
X114902064Y-45360000D02*
X113697936Y-45360000D01*
X114902064Y-43540000D02*
X113697936Y-43540000D01*
X114902064Y-51160000D02*
X113697936Y-51160000D01*
X114902064Y-52980000D02*
X113697936Y-52980000D01*
X121317936Y-51160000D02*
X122522064Y-51160000D01*
X121317936Y-52980000D02*
X122522064Y-52980000D01*
X138070000Y-43847936D02*
X138070000Y-45052064D01*
X136250000Y-43847936D02*
X136250000Y-45052064D01*
X129002064Y-52980000D02*
X127797936Y-52980000D01*
X129002064Y-51160000D02*
X127797936Y-51160000D01*
X150397936Y-51160000D02*
X151602064Y-51160000D01*
X150397936Y-52980000D02*
X151602064Y-52980000D01*
X152760000Y-65372064D02*
X152760000Y-64167936D01*
X154580000Y-65372064D02*
X154580000Y-64167936D01*
X158277936Y-60600000D02*
X159482064Y-60600000D01*
X158277936Y-58780000D02*
X159482064Y-58780000D01*
X157120000Y-51402064D02*
X157120000Y-50197936D01*
X155300000Y-51402064D02*
X155300000Y-50197936D01*
X159110000Y-51272064D02*
X159110000Y-50067936D01*
X160930000Y-51272064D02*
X160930000Y-50067936D01*
X114300000Y-30540000D02*
X114300000Y-27880000D01*
X114300000Y-30540000D02*
X116900000Y-30540000D01*
X116900000Y-30540000D02*
X116900000Y-27880000D01*
X114300000Y-27880000D02*
X116900000Y-27880000D01*
X111700000Y-27880000D02*
X113030000Y-27880000D01*
X111700000Y-29210000D02*
X111700000Y-27880000D01*
X70310000Y-27540000D02*
X68810000Y-27540000D01*
X66310000Y-28790000D02*
X66310000Y-33290000D01*
X68810000Y-34540000D02*
X70310000Y-34540000D01*
X72810000Y-33290000D02*
X72810000Y-28790000D01*
X72810000Y-43450000D02*
X72810000Y-38950000D01*
X68810000Y-44700000D02*
X70310000Y-44700000D01*
X66310000Y-38950000D02*
X66310000Y-43450000D01*
X70310000Y-37700000D02*
X68810000Y-37700000D01*
D11*
X82215000Y-54365000D02*
X82215000Y-54940000D01*
X87965000Y-54365000D02*
X87965000Y-55015000D01*
X87965000Y-65015000D02*
X87965000Y-64365000D01*
X82215000Y-65015000D02*
X82215000Y-64365000D01*
X82215000Y-54365000D02*
X87965000Y-54365000D01*
X82215000Y-65015000D02*
X87965000Y-65015000D01*
X82215000Y-54940000D02*
X80615000Y-54940000D01*
D10*
X86130000Y-51010000D02*
X86130000Y-51790000D01*
X86130000Y-51790000D02*
X87130000Y-51790000D01*
X104370000Y-51010000D02*
X104370000Y-51790000D01*
X104370000Y-51790000D02*
X103370000Y-51790000D01*
X86130000Y-26045000D02*
X104370000Y-26045000D01*
X104370000Y-26045000D02*
X104370000Y-32465000D01*
X86130000Y-26045000D02*
X86130000Y-32465000D01*
X86130000Y-32465000D02*
X85750000Y-32465000D01*
D13*
X117335000Y-68850000D02*
X119135000Y-68850000D01*
X117335000Y-70850000D02*
X119135000Y-70850000D01*
X116835000Y-69150000D02*
X116835000Y-69150000D01*
X116835000Y-69250000D02*
X116835000Y-69250000D01*
X116835000Y-69250000D02*
G75*
G03X116835000Y-69150000I0J50000D01*
G01*
X116835000Y-69150000D02*
G75*
G03X116835000Y-69250000I0J-50000D01*
G01*
D12*
X159410400Y-43738800D02*
X158521400Y-43738800D01*
X161518600Y-44551600D02*
X161518600Y-43738800D01*
X161518600Y-43738800D02*
X160629600Y-43738800D01*
X158521400Y-43738800D02*
X158521400Y-44145200D01*
X158521400Y-44145200D02*
X158521400Y-44551600D01*
X159613600Y-45161200D02*
X160426400Y-45161200D01*
D10*
X140570000Y-61590000D02*
X139310000Y-61590000D01*
X133750000Y-61590000D02*
X135010000Y-61590000D01*
X140570000Y-65350000D02*
X140570000Y-61590000D01*
X133750000Y-67600000D02*
X133750000Y-61590000D01*
D11*
X132112380Y-114261904D02*
X132921904Y-114261904D01*
X133017142Y-114214285D01*
X133064761Y-114166666D01*
X133112380Y-114071428D01*
X133112380Y-113880952D01*
X133064761Y-113785714D01*
X133017142Y-113738095D01*
X132921904Y-113690476D01*
X132112380Y-113690476D01*
X132112380Y-112738095D02*
X132112380Y-113214285D01*
X132588571Y-113261904D01*
X132540952Y-113214285D01*
X132493333Y-113119047D01*
X132493333Y-112880952D01*
X132540952Y-112785714D01*
X132588571Y-112738095D01*
X132683809Y-112690476D01*
X132921904Y-112690476D01*
X133017142Y-112738095D01*
X133064761Y-112785714D01*
X133112380Y-112880952D01*
X133112380Y-113119047D01*
X133064761Y-113214285D01*
X133017142Y-113261904D01*
X94607142Y-114502380D02*
X94273809Y-114026190D01*
X94035714Y-114502380D02*
X94035714Y-113502380D01*
X94416666Y-113502380D01*
X94511904Y-113550000D01*
X94559523Y-113597619D01*
X94607142Y-113692857D01*
X94607142Y-113835714D01*
X94559523Y-113930952D01*
X94511904Y-113978571D01*
X94416666Y-114026190D01*
X94035714Y-114026190D01*
X95559523Y-114502380D02*
X94988095Y-114502380D01*
X95273809Y-114502380D02*
X95273809Y-113502380D01*
X95178571Y-113645238D01*
X95083333Y-113740476D01*
X94988095Y-113788095D01*
X96464285Y-113502380D02*
X95988095Y-113502380D01*
X95940476Y-113978571D01*
X95988095Y-113930952D01*
X96083333Y-113883333D01*
X96321428Y-113883333D01*
X96416666Y-113930952D01*
X96464285Y-113978571D01*
X96511904Y-114073809D01*
X96511904Y-114311904D01*
X96464285Y-114407142D01*
X96416666Y-114454761D01*
X96321428Y-114502380D01*
X96083333Y-114502380D01*
X95988095Y-114454761D01*
X95940476Y-114407142D01*
X124957142Y-119582380D02*
X124623809Y-119106190D01*
X124385714Y-119582380D02*
X124385714Y-118582380D01*
X124766666Y-118582380D01*
X124861904Y-118630000D01*
X124909523Y-118677619D01*
X124957142Y-118772857D01*
X124957142Y-118915714D01*
X124909523Y-119010952D01*
X124861904Y-119058571D01*
X124766666Y-119106190D01*
X124385714Y-119106190D01*
X125909523Y-119582380D02*
X125338095Y-119582380D01*
X125623809Y-119582380D02*
X125623809Y-118582380D01*
X125528571Y-118725238D01*
X125433333Y-118820476D01*
X125338095Y-118868095D01*
X126766666Y-118915714D02*
X126766666Y-119582380D01*
X126528571Y-118534761D02*
X126290476Y-119249047D01*
X126909523Y-119249047D01*
D15*
X156784523Y-98872019D02*
X157812619Y-98872019D01*
X157933571Y-98811542D01*
X157994047Y-98751066D01*
X158054523Y-98630114D01*
X158054523Y-98388209D01*
X157994047Y-98267257D01*
X157933571Y-98206780D01*
X157812619Y-98146304D01*
X156784523Y-98146304D01*
X157207857Y-96997257D02*
X158054523Y-96997257D01*
X156724047Y-97299638D02*
X157631190Y-97602019D01*
X157631190Y-96815828D01*
D11*
X65714761Y-92533333D02*
X65762380Y-92390476D01*
X65762380Y-92152380D01*
X65714761Y-92057142D01*
X65667142Y-92009523D01*
X65571904Y-91961904D01*
X65476666Y-91961904D01*
X65381428Y-92009523D01*
X65333809Y-92057142D01*
X65286190Y-92152380D01*
X65238571Y-92342857D01*
X65190952Y-92438095D01*
X65143333Y-92485714D01*
X65048095Y-92533333D01*
X64952857Y-92533333D01*
X64857619Y-92485714D01*
X64810000Y-92438095D01*
X64762380Y-92342857D01*
X64762380Y-92104761D01*
X64810000Y-91961904D01*
X64762380Y-91628571D02*
X65762380Y-91390476D01*
X65048095Y-91200000D01*
X65762380Y-91009523D01*
X64762380Y-90771428D01*
X64857619Y-90438095D02*
X64810000Y-90390476D01*
X64762380Y-90295238D01*
X64762380Y-90057142D01*
X64810000Y-89961904D01*
X64857619Y-89914285D01*
X64952857Y-89866666D01*
X65048095Y-89866666D01*
X65190952Y-89914285D01*
X65762380Y-90485714D01*
X65762380Y-89866666D01*
X152302380Y-115412857D02*
X151826190Y-115746190D01*
X152302380Y-115984285D02*
X151302380Y-115984285D01*
X151302380Y-115603333D01*
X151350000Y-115508095D01*
X151397619Y-115460476D01*
X151492857Y-115412857D01*
X151635714Y-115412857D01*
X151730952Y-115460476D01*
X151778571Y-115508095D01*
X151826190Y-115603333D01*
X151826190Y-115984285D01*
X151397619Y-115031904D02*
X151350000Y-114984285D01*
X151302380Y-114889047D01*
X151302380Y-114650952D01*
X151350000Y-114555714D01*
X151397619Y-114508095D01*
X151492857Y-114460476D01*
X151588095Y-114460476D01*
X151730952Y-114508095D01*
X152302380Y-115079523D01*
X152302380Y-114460476D01*
X151302380Y-114127142D02*
X151302380Y-113508095D01*
X151683333Y-113841428D01*
X151683333Y-113698571D01*
X151730952Y-113603333D01*
X151778571Y-113555714D01*
X151873809Y-113508095D01*
X152111904Y-113508095D01*
X152207142Y-113555714D01*
X152254761Y-113603333D01*
X152302380Y-113698571D01*
X152302380Y-113984285D01*
X152254761Y-114079523D01*
X152207142Y-114127142D01*
D15*
X117142380Y-119154523D02*
X117142380Y-120182619D01*
X117202857Y-120303571D01*
X117263333Y-120364047D01*
X117384285Y-120424523D01*
X117626190Y-120424523D01*
X117747142Y-120364047D01*
X117807619Y-120303571D01*
X117868095Y-120182619D01*
X117868095Y-119154523D01*
X118351904Y-119154523D02*
X119138095Y-119154523D01*
X118714761Y-119638333D01*
X118896190Y-119638333D01*
X119017142Y-119698809D01*
X119077619Y-119759285D01*
X119138095Y-119880238D01*
X119138095Y-120182619D01*
X119077619Y-120303571D01*
X119017142Y-120364047D01*
X118896190Y-120424523D01*
X118533333Y-120424523D01*
X118412380Y-120364047D01*
X118351904Y-120303571D01*
D11*
X84092380Y-101101904D02*
X84901904Y-101101904D01*
X84997142Y-101054285D01*
X85044761Y-101006666D01*
X85092380Y-100911428D01*
X85092380Y-100720952D01*
X85044761Y-100625714D01*
X84997142Y-100578095D01*
X84901904Y-100530476D01*
X84092380Y-100530476D01*
X84187619Y-100101904D02*
X84140000Y-100054285D01*
X84092380Y-99959047D01*
X84092380Y-99720952D01*
X84140000Y-99625714D01*
X84187619Y-99578095D01*
X84282857Y-99530476D01*
X84378095Y-99530476D01*
X84520952Y-99578095D01*
X85092380Y-100149523D01*
X85092380Y-99530476D01*
X84328095Y-102892380D02*
X84328095Y-103701904D01*
X84375714Y-103797142D01*
X84423333Y-103844761D01*
X84518571Y-103892380D01*
X84709047Y-103892380D01*
X84804285Y-103844761D01*
X84851904Y-103797142D01*
X84899523Y-103701904D01*
X84899523Y-102892380D01*
X85899523Y-103892380D02*
X85328095Y-103892380D01*
X85613809Y-103892380D02*
X85613809Y-102892380D01*
X85518571Y-103035238D01*
X85423333Y-103130476D01*
X85328095Y-103178095D01*
X65714761Y-82373333D02*
X65762380Y-82230476D01*
X65762380Y-81992380D01*
X65714761Y-81897142D01*
X65667142Y-81849523D01*
X65571904Y-81801904D01*
X65476666Y-81801904D01*
X65381428Y-81849523D01*
X65333809Y-81897142D01*
X65286190Y-81992380D01*
X65238571Y-82182857D01*
X65190952Y-82278095D01*
X65143333Y-82325714D01*
X65048095Y-82373333D01*
X64952857Y-82373333D01*
X64857619Y-82325714D01*
X64810000Y-82278095D01*
X64762380Y-82182857D01*
X64762380Y-81944761D01*
X64810000Y-81801904D01*
X64762380Y-81468571D02*
X65762380Y-81230476D01*
X65048095Y-81040000D01*
X65762380Y-80849523D01*
X64762380Y-80611428D01*
X65762380Y-79706666D02*
X65762380Y-80278095D01*
X65762380Y-79992380D02*
X64762380Y-79992380D01*
X64905238Y-80087619D01*
X65000476Y-80182857D01*
X65048095Y-80278095D01*
X110664761Y-80471904D02*
X110712380Y-80329047D01*
X110712380Y-80090952D01*
X110664761Y-79995714D01*
X110617142Y-79948095D01*
X110521904Y-79900476D01*
X110426666Y-79900476D01*
X110331428Y-79948095D01*
X110283809Y-79995714D01*
X110236190Y-80090952D01*
X110188571Y-80281428D01*
X110140952Y-80376666D01*
X110093333Y-80424285D01*
X109998095Y-80471904D01*
X109902857Y-80471904D01*
X109807619Y-80424285D01*
X109760000Y-80376666D01*
X109712380Y-80281428D01*
X109712380Y-80043333D01*
X109760000Y-79900476D01*
X110617142Y-78900476D02*
X110664761Y-78948095D01*
X110712380Y-79090952D01*
X110712380Y-79186190D01*
X110664761Y-79329047D01*
X110569523Y-79424285D01*
X110474285Y-79471904D01*
X110283809Y-79519523D01*
X110140952Y-79519523D01*
X109950476Y-79471904D01*
X109855238Y-79424285D01*
X109760000Y-79329047D01*
X109712380Y-79186190D01*
X109712380Y-79090952D01*
X109760000Y-78948095D01*
X109807619Y-78900476D01*
X110712380Y-77948095D02*
X110712380Y-78519523D01*
X110712380Y-78233809D02*
X109712380Y-78233809D01*
X109855238Y-78329047D01*
X109950476Y-78424285D01*
X109998095Y-78519523D01*
X158652380Y-101312857D02*
X158176190Y-101646190D01*
X158652380Y-101884285D02*
X157652380Y-101884285D01*
X157652380Y-101503333D01*
X157700000Y-101408095D01*
X157747619Y-101360476D01*
X157842857Y-101312857D01*
X157985714Y-101312857D01*
X158080952Y-101360476D01*
X158128571Y-101408095D01*
X158176190Y-101503333D01*
X158176190Y-101884285D01*
X157747619Y-100931904D02*
X157700000Y-100884285D01*
X157652380Y-100789047D01*
X157652380Y-100550952D01*
X157700000Y-100455714D01*
X157747619Y-100408095D01*
X157842857Y-100360476D01*
X157938095Y-100360476D01*
X158080952Y-100408095D01*
X158652380Y-100979523D01*
X158652380Y-100360476D01*
X157652380Y-99503333D02*
X157652380Y-99693809D01*
X157700000Y-99789047D01*
X157747619Y-99836666D01*
X157890476Y-99931904D01*
X158080952Y-99979523D01*
X158461904Y-99979523D01*
X158557142Y-99931904D01*
X158604761Y-99884285D01*
X158652380Y-99789047D01*
X158652380Y-99598571D01*
X158604761Y-99503333D01*
X158557142Y-99455714D01*
X158461904Y-99408095D01*
X158223809Y-99408095D01*
X158128571Y-99455714D01*
X158080952Y-99503333D01*
X158033333Y-99598571D01*
X158033333Y-99789047D01*
X158080952Y-99884285D01*
X158128571Y-99931904D01*
X158223809Y-99979523D01*
X121277142Y-100702380D02*
X120943809Y-100226190D01*
X120705714Y-100702380D02*
X120705714Y-99702380D01*
X121086666Y-99702380D01*
X121181904Y-99750000D01*
X121229523Y-99797619D01*
X121277142Y-99892857D01*
X121277142Y-100035714D01*
X121229523Y-100130952D01*
X121181904Y-100178571D01*
X121086666Y-100226190D01*
X120705714Y-100226190D01*
X122229523Y-100702380D02*
X121658095Y-100702380D01*
X121943809Y-100702380D02*
X121943809Y-99702380D01*
X121848571Y-99845238D01*
X121753333Y-99940476D01*
X121658095Y-99988095D01*
X122705714Y-100702380D02*
X122896190Y-100702380D01*
X122991428Y-100654761D01*
X123039047Y-100607142D01*
X123134285Y-100464285D01*
X123181904Y-100273809D01*
X123181904Y-99892857D01*
X123134285Y-99797619D01*
X123086666Y-99750000D01*
X122991428Y-99702380D01*
X122800952Y-99702380D01*
X122705714Y-99750000D01*
X122658095Y-99797619D01*
X122610476Y-99892857D01*
X122610476Y-100130952D01*
X122658095Y-100226190D01*
X122705714Y-100273809D01*
X122800952Y-100321428D01*
X122991428Y-100321428D01*
X123086666Y-100273809D01*
X123134285Y-100226190D01*
X123181904Y-100130952D01*
X158652380Y-90142857D02*
X158176190Y-90476190D01*
X158652380Y-90714285D02*
X157652380Y-90714285D01*
X157652380Y-90333333D01*
X157700000Y-90238095D01*
X157747619Y-90190476D01*
X157842857Y-90142857D01*
X157985714Y-90142857D01*
X158080952Y-90190476D01*
X158128571Y-90238095D01*
X158176190Y-90333333D01*
X158176190Y-90714285D01*
X158652380Y-89190476D02*
X158652380Y-89761904D01*
X158652380Y-89476190D02*
X157652380Y-89476190D01*
X157795238Y-89571428D01*
X157890476Y-89666666D01*
X157938095Y-89761904D01*
X157652380Y-88333333D02*
X157652380Y-88523809D01*
X157700000Y-88619047D01*
X157747619Y-88666666D01*
X157890476Y-88761904D01*
X158080952Y-88809523D01*
X158461904Y-88809523D01*
X158557142Y-88761904D01*
X158604761Y-88714285D01*
X158652380Y-88619047D01*
X158652380Y-88428571D01*
X158604761Y-88333333D01*
X158557142Y-88285714D01*
X158461904Y-88238095D01*
X158223809Y-88238095D01*
X158128571Y-88285714D01*
X158080952Y-88333333D01*
X158033333Y-88428571D01*
X158033333Y-88619047D01*
X158080952Y-88714285D01*
X158128571Y-88761904D01*
X158223809Y-88809523D01*
X154842380Y-101442857D02*
X154366190Y-101776190D01*
X154842380Y-102014285D02*
X153842380Y-102014285D01*
X153842380Y-101633333D01*
X153890000Y-101538095D01*
X153937619Y-101490476D01*
X154032857Y-101442857D01*
X154175714Y-101442857D01*
X154270952Y-101490476D01*
X154318571Y-101538095D01*
X154366190Y-101633333D01*
X154366190Y-102014285D01*
X153937619Y-101061904D02*
X153890000Y-101014285D01*
X153842380Y-100919047D01*
X153842380Y-100680952D01*
X153890000Y-100585714D01*
X153937619Y-100538095D01*
X154032857Y-100490476D01*
X154128095Y-100490476D01*
X154270952Y-100538095D01*
X154842380Y-101109523D01*
X154842380Y-100490476D01*
X153842380Y-99585714D02*
X153842380Y-100061904D01*
X154318571Y-100109523D01*
X154270952Y-100061904D01*
X154223333Y-99966666D01*
X154223333Y-99728571D01*
X154270952Y-99633333D01*
X154318571Y-99585714D01*
X154413809Y-99538095D01*
X154651904Y-99538095D01*
X154747142Y-99585714D01*
X154794761Y-99633333D01*
X154842380Y-99728571D01*
X154842380Y-99966666D01*
X154794761Y-100061904D01*
X154747142Y-100109523D01*
X158237142Y-108322380D02*
X157903809Y-107846190D01*
X157665714Y-108322380D02*
X157665714Y-107322380D01*
X158046666Y-107322380D01*
X158141904Y-107370000D01*
X158189523Y-107417619D01*
X158237142Y-107512857D01*
X158237142Y-107655714D01*
X158189523Y-107750952D01*
X158141904Y-107798571D01*
X158046666Y-107846190D01*
X157665714Y-107846190D01*
X158618095Y-107417619D02*
X158665714Y-107370000D01*
X158760952Y-107322380D01*
X158999047Y-107322380D01*
X159094285Y-107370000D01*
X159141904Y-107417619D01*
X159189523Y-107512857D01*
X159189523Y-107608095D01*
X159141904Y-107750952D01*
X158570476Y-108322380D01*
X159189523Y-108322380D01*
X160046666Y-107655714D02*
X160046666Y-108322380D01*
X159808571Y-107274761D02*
X159570476Y-107989047D01*
X160189523Y-107989047D01*
X150357142Y-100702380D02*
X150023809Y-100226190D01*
X149785714Y-100702380D02*
X149785714Y-99702380D01*
X150166666Y-99702380D01*
X150261904Y-99750000D01*
X150309523Y-99797619D01*
X150357142Y-99892857D01*
X150357142Y-100035714D01*
X150309523Y-100130952D01*
X150261904Y-100178571D01*
X150166666Y-100226190D01*
X149785714Y-100226190D01*
X150738095Y-99797619D02*
X150785714Y-99750000D01*
X150880952Y-99702380D01*
X151119047Y-99702380D01*
X151214285Y-99750000D01*
X151261904Y-99797619D01*
X151309523Y-99892857D01*
X151309523Y-99988095D01*
X151261904Y-100130952D01*
X150690476Y-100702380D01*
X151309523Y-100702380D01*
X151690476Y-99797619D02*
X151738095Y-99750000D01*
X151833333Y-99702380D01*
X152071428Y-99702380D01*
X152166666Y-99750000D01*
X152214285Y-99797619D01*
X152261904Y-99892857D01*
X152261904Y-99988095D01*
X152214285Y-100130952D01*
X151642857Y-100702380D01*
X152261904Y-100702380D01*
X127757142Y-104342380D02*
X127423809Y-103866190D01*
X127185714Y-104342380D02*
X127185714Y-103342380D01*
X127566666Y-103342380D01*
X127661904Y-103390000D01*
X127709523Y-103437619D01*
X127757142Y-103532857D01*
X127757142Y-103675714D01*
X127709523Y-103770952D01*
X127661904Y-103818571D01*
X127566666Y-103866190D01*
X127185714Y-103866190D01*
X128138095Y-103437619D02*
X128185714Y-103390000D01*
X128280952Y-103342380D01*
X128519047Y-103342380D01*
X128614285Y-103390000D01*
X128661904Y-103437619D01*
X128709523Y-103532857D01*
X128709523Y-103628095D01*
X128661904Y-103770952D01*
X128090476Y-104342380D01*
X128709523Y-104342380D01*
X129661904Y-104342380D02*
X129090476Y-104342380D01*
X129376190Y-104342380D02*
X129376190Y-103342380D01*
X129280952Y-103485238D01*
X129185714Y-103580476D01*
X129090476Y-103628095D01*
X139432380Y-95092857D02*
X138956190Y-95426190D01*
X139432380Y-95664285D02*
X138432380Y-95664285D01*
X138432380Y-95283333D01*
X138480000Y-95188095D01*
X138527619Y-95140476D01*
X138622857Y-95092857D01*
X138765714Y-95092857D01*
X138860952Y-95140476D01*
X138908571Y-95188095D01*
X138956190Y-95283333D01*
X138956190Y-95664285D01*
X138527619Y-94711904D02*
X138480000Y-94664285D01*
X138432380Y-94569047D01*
X138432380Y-94330952D01*
X138480000Y-94235714D01*
X138527619Y-94188095D01*
X138622857Y-94140476D01*
X138718095Y-94140476D01*
X138860952Y-94188095D01*
X139432380Y-94759523D01*
X139432380Y-94140476D01*
X138432380Y-93521428D02*
X138432380Y-93426190D01*
X138480000Y-93330952D01*
X138527619Y-93283333D01*
X138622857Y-93235714D01*
X138813333Y-93188095D01*
X139051428Y-93188095D01*
X139241904Y-93235714D01*
X139337142Y-93283333D01*
X139384761Y-93330952D01*
X139432380Y-93426190D01*
X139432380Y-93521428D01*
X139384761Y-93616666D01*
X139337142Y-93664285D01*
X139241904Y-93711904D01*
X139051428Y-93759523D01*
X138813333Y-93759523D01*
X138622857Y-93711904D01*
X138527619Y-93664285D01*
X138480000Y-93616666D01*
X138432380Y-93521428D01*
X113657142Y-104342380D02*
X113323809Y-103866190D01*
X113085714Y-104342380D02*
X113085714Y-103342380D01*
X113466666Y-103342380D01*
X113561904Y-103390000D01*
X113609523Y-103437619D01*
X113657142Y-103532857D01*
X113657142Y-103675714D01*
X113609523Y-103770952D01*
X113561904Y-103818571D01*
X113466666Y-103866190D01*
X113085714Y-103866190D01*
X114609523Y-104342380D02*
X114038095Y-104342380D01*
X114323809Y-104342380D02*
X114323809Y-103342380D01*
X114228571Y-103485238D01*
X114133333Y-103580476D01*
X114038095Y-103628095D01*
X115180952Y-103770952D02*
X115085714Y-103723333D01*
X115038095Y-103675714D01*
X114990476Y-103580476D01*
X114990476Y-103532857D01*
X115038095Y-103437619D01*
X115085714Y-103390000D01*
X115180952Y-103342380D01*
X115371428Y-103342380D01*
X115466666Y-103390000D01*
X115514285Y-103437619D01*
X115561904Y-103532857D01*
X115561904Y-103580476D01*
X115514285Y-103675714D01*
X115466666Y-103723333D01*
X115371428Y-103770952D01*
X115180952Y-103770952D01*
X115085714Y-103818571D01*
X115038095Y-103866190D01*
X114990476Y-103961428D01*
X114990476Y-104151904D01*
X115038095Y-104247142D01*
X115085714Y-104294761D01*
X115180952Y-104342380D01*
X115371428Y-104342380D01*
X115466666Y-104294761D01*
X115514285Y-104247142D01*
X115561904Y-104151904D01*
X115561904Y-103961428D01*
X115514285Y-103866190D01*
X115466666Y-103818571D01*
X115371428Y-103770952D01*
X113657142Y-96722380D02*
X113323809Y-96246190D01*
X113085714Y-96722380D02*
X113085714Y-95722380D01*
X113466666Y-95722380D01*
X113561904Y-95770000D01*
X113609523Y-95817619D01*
X113657142Y-95912857D01*
X113657142Y-96055714D01*
X113609523Y-96150952D01*
X113561904Y-96198571D01*
X113466666Y-96246190D01*
X113085714Y-96246190D01*
X114609523Y-96722380D02*
X114038095Y-96722380D01*
X114323809Y-96722380D02*
X114323809Y-95722380D01*
X114228571Y-95865238D01*
X114133333Y-95960476D01*
X114038095Y-96008095D01*
X114942857Y-95722380D02*
X115609523Y-95722380D01*
X115180952Y-96722380D01*
X124957142Y-123392380D02*
X124623809Y-122916190D01*
X124385714Y-123392380D02*
X124385714Y-122392380D01*
X124766666Y-122392380D01*
X124861904Y-122440000D01*
X124909523Y-122487619D01*
X124957142Y-122582857D01*
X124957142Y-122725714D01*
X124909523Y-122820952D01*
X124861904Y-122868571D01*
X124766666Y-122916190D01*
X124385714Y-122916190D01*
X125909523Y-123392380D02*
X125338095Y-123392380D01*
X125623809Y-123392380D02*
X125623809Y-122392380D01*
X125528571Y-122535238D01*
X125433333Y-122630476D01*
X125338095Y-122678095D01*
X126242857Y-122392380D02*
X126861904Y-122392380D01*
X126528571Y-122773333D01*
X126671428Y-122773333D01*
X126766666Y-122820952D01*
X126814285Y-122868571D01*
X126861904Y-122963809D01*
X126861904Y-123201904D01*
X126814285Y-123297142D01*
X126766666Y-123344761D01*
X126671428Y-123392380D01*
X126385714Y-123392380D01*
X126290476Y-123344761D01*
X126242857Y-123297142D01*
X94607142Y-110692380D02*
X94273809Y-110216190D01*
X94035714Y-110692380D02*
X94035714Y-109692380D01*
X94416666Y-109692380D01*
X94511904Y-109740000D01*
X94559523Y-109787619D01*
X94607142Y-109882857D01*
X94607142Y-110025714D01*
X94559523Y-110120952D01*
X94511904Y-110168571D01*
X94416666Y-110216190D01*
X94035714Y-110216190D01*
X95559523Y-110692380D02*
X94988095Y-110692380D01*
X95273809Y-110692380D02*
X95273809Y-109692380D01*
X95178571Y-109835238D01*
X95083333Y-109930476D01*
X94988095Y-109978095D01*
X96511904Y-110692380D02*
X95940476Y-110692380D01*
X96226190Y-110692380D02*
X96226190Y-109692380D01*
X96130952Y-109835238D01*
X96035714Y-109930476D01*
X95940476Y-109978095D01*
X98893333Y-114672380D02*
X98560000Y-114196190D01*
X98321904Y-114672380D02*
X98321904Y-113672380D01*
X98702857Y-113672380D01*
X98798095Y-113720000D01*
X98845714Y-113767619D01*
X98893333Y-113862857D01*
X98893333Y-114005714D01*
X98845714Y-114100952D01*
X98798095Y-114148571D01*
X98702857Y-114196190D01*
X98321904Y-114196190D01*
X99464761Y-114100952D02*
X99369523Y-114053333D01*
X99321904Y-114005714D01*
X99274285Y-113910476D01*
X99274285Y-113862857D01*
X99321904Y-113767619D01*
X99369523Y-113720000D01*
X99464761Y-113672380D01*
X99655238Y-113672380D01*
X99750476Y-113720000D01*
X99798095Y-113767619D01*
X99845714Y-113862857D01*
X99845714Y-113910476D01*
X99798095Y-114005714D01*
X99750476Y-114053333D01*
X99655238Y-114100952D01*
X99464761Y-114100952D01*
X99369523Y-114148571D01*
X99321904Y-114196190D01*
X99274285Y-114291428D01*
X99274285Y-114481904D01*
X99321904Y-114577142D01*
X99369523Y-114624761D01*
X99464761Y-114672380D01*
X99655238Y-114672380D01*
X99750476Y-114624761D01*
X99798095Y-114577142D01*
X99845714Y-114481904D01*
X99845714Y-114291428D01*
X99798095Y-114196190D01*
X99750476Y-114148571D01*
X99655238Y-114100952D01*
X83552380Y-85726666D02*
X83076190Y-86060000D01*
X83552380Y-86298095D02*
X82552380Y-86298095D01*
X82552380Y-85917142D01*
X82600000Y-85821904D01*
X82647619Y-85774285D01*
X82742857Y-85726666D01*
X82885714Y-85726666D01*
X82980952Y-85774285D01*
X83028571Y-85821904D01*
X83076190Y-85917142D01*
X83076190Y-86298095D01*
X82552380Y-85393333D02*
X82552380Y-84774285D01*
X82933333Y-85107619D01*
X82933333Y-84964761D01*
X82980952Y-84869523D01*
X83028571Y-84821904D01*
X83123809Y-84774285D01*
X83361904Y-84774285D01*
X83457142Y-84821904D01*
X83504761Y-84869523D01*
X83552380Y-84964761D01*
X83552380Y-85250476D01*
X83504761Y-85345714D01*
X83457142Y-85393333D01*
D15*
X128149047Y-91335476D02*
X128028095Y-91275000D01*
X127907142Y-91154047D01*
X127725714Y-90972619D01*
X127604761Y-90912142D01*
X127483809Y-90912142D01*
X127544285Y-91214523D02*
X127423333Y-91154047D01*
X127302380Y-91033095D01*
X127241904Y-90791190D01*
X127241904Y-90367857D01*
X127302380Y-90125952D01*
X127423333Y-90005000D01*
X127544285Y-89944523D01*
X127786190Y-89944523D01*
X127907142Y-90005000D01*
X128028095Y-90125952D01*
X128088571Y-90367857D01*
X128088571Y-90791190D01*
X128028095Y-91033095D01*
X127907142Y-91154047D01*
X127786190Y-91214523D01*
X127544285Y-91214523D01*
X129298095Y-91214523D02*
X128572380Y-91214523D01*
X128935238Y-91214523D02*
X128935238Y-89944523D01*
X128814285Y-90125952D01*
X128693333Y-90246904D01*
X128572380Y-90307380D01*
D11*
X77303333Y-101802380D02*
X76970000Y-101326190D01*
X76731904Y-101802380D02*
X76731904Y-100802380D01*
X77112857Y-100802380D01*
X77208095Y-100850000D01*
X77255714Y-100897619D01*
X77303333Y-100992857D01*
X77303333Y-101135714D01*
X77255714Y-101230952D01*
X77208095Y-101278571D01*
X77112857Y-101326190D01*
X76731904Y-101326190D01*
X78255714Y-101802380D02*
X77684285Y-101802380D01*
X77970000Y-101802380D02*
X77970000Y-100802380D01*
X77874761Y-100945238D01*
X77779523Y-101040476D01*
X77684285Y-101088095D01*
X147222380Y-115066666D02*
X147222380Y-115542857D01*
X146222380Y-115542857D01*
X147222380Y-114209523D02*
X147222380Y-114780952D01*
X147222380Y-114495238D02*
X146222380Y-114495238D01*
X146365238Y-114590476D01*
X146460476Y-114685714D01*
X146508095Y-114780952D01*
X157602180Y-91378095D02*
X156602180Y-91378095D01*
X157602180Y-90806666D02*
X157030752Y-91235238D01*
X156602180Y-90806666D02*
X157173609Y-91378095D01*
X157602180Y-89854285D02*
X157602180Y-90425714D01*
X157602180Y-90140000D02*
X156602180Y-90140000D01*
X156745038Y-90235238D01*
X156840276Y-90330476D01*
X156887895Y-90425714D01*
X114282380Y-113093333D02*
X114996666Y-113093333D01*
X115139523Y-113140952D01*
X115234761Y-113236190D01*
X115282380Y-113379047D01*
X115282380Y-113474285D01*
X115282380Y-112617142D02*
X114282380Y-112617142D01*
X114282380Y-112236190D01*
X114330000Y-112140952D01*
X114377619Y-112093333D01*
X114472857Y-112045714D01*
X114615714Y-112045714D01*
X114710952Y-112093333D01*
X114758571Y-112140952D01*
X114806190Y-112236190D01*
X114806190Y-112617142D01*
X114377619Y-111664761D02*
X114330000Y-111617142D01*
X114282380Y-111521904D01*
X114282380Y-111283809D01*
X114330000Y-111188571D01*
X114377619Y-111140952D01*
X114472857Y-111093333D01*
X114568095Y-111093333D01*
X114710952Y-111140952D01*
X115282380Y-111712380D01*
X115282380Y-111093333D01*
X112482380Y-115193333D02*
X112482380Y-114574285D01*
X112863333Y-114907619D01*
X112863333Y-114764761D01*
X112910952Y-114669523D01*
X112958571Y-114621904D01*
X113053809Y-114574285D01*
X113291904Y-114574285D01*
X113387142Y-114621904D01*
X113434761Y-114669523D01*
X113482380Y-114764761D01*
X113482380Y-115050476D01*
X113434761Y-115145714D01*
X113387142Y-115193333D01*
X113482380Y-109374285D02*
X113482380Y-109945714D01*
X113482380Y-109660000D02*
X112482380Y-109660000D01*
X112625238Y-109755238D01*
X112720476Y-109850476D01*
X112768095Y-109945714D01*
X78406666Y-115392380D02*
X78406666Y-116106666D01*
X78359047Y-116249523D01*
X78263809Y-116344761D01*
X78120952Y-116392380D01*
X78025714Y-116392380D01*
X78835238Y-115487619D02*
X78882857Y-115440000D01*
X78978095Y-115392380D01*
X79216190Y-115392380D01*
X79311428Y-115440000D01*
X79359047Y-115487619D01*
X79406666Y-115582857D01*
X79406666Y-115678095D01*
X79359047Y-115820952D01*
X78787619Y-116392380D01*
X79406666Y-116392380D01*
X158107142Y-104417142D02*
X158059523Y-104464761D01*
X157916666Y-104512380D01*
X157821428Y-104512380D01*
X157678571Y-104464761D01*
X157583333Y-104369523D01*
X157535714Y-104274285D01*
X157488095Y-104083809D01*
X157488095Y-103940952D01*
X157535714Y-103750476D01*
X157583333Y-103655238D01*
X157678571Y-103560000D01*
X157821428Y-103512380D01*
X157916666Y-103512380D01*
X158059523Y-103560000D01*
X158107142Y-103607619D01*
X159059523Y-104512380D02*
X158488095Y-104512380D01*
X158773809Y-104512380D02*
X158773809Y-103512380D01*
X158678571Y-103655238D01*
X158583333Y-103750476D01*
X158488095Y-103798095D01*
X159964285Y-103512380D02*
X159488095Y-103512380D01*
X159440476Y-103988571D01*
X159488095Y-103940952D01*
X159583333Y-103893333D01*
X159821428Y-103893333D01*
X159916666Y-103940952D01*
X159964285Y-103988571D01*
X160011904Y-104083809D01*
X160011904Y-104321904D01*
X159964285Y-104417142D01*
X159916666Y-104464761D01*
X159821428Y-104512380D01*
X159583333Y-104512380D01*
X159488095Y-104464761D01*
X159440476Y-104417142D01*
X72056666Y-105562380D02*
X72056666Y-106276666D01*
X72009047Y-106419523D01*
X71913809Y-106514761D01*
X71770952Y-106562380D01*
X71675714Y-106562380D01*
X72961428Y-105895714D02*
X72961428Y-106562380D01*
X72723333Y-105514761D02*
X72485238Y-106229047D01*
X73104285Y-106229047D01*
X74308571Y-111793333D02*
X74308571Y-112126666D01*
X74832380Y-112126666D02*
X73832380Y-112126666D01*
X73832380Y-111650476D01*
X74308571Y-110936190D02*
X74356190Y-110793333D01*
X74403809Y-110745714D01*
X74499047Y-110698095D01*
X74641904Y-110698095D01*
X74737142Y-110745714D01*
X74784761Y-110793333D01*
X74832380Y-110888571D01*
X74832380Y-111269523D01*
X73832380Y-111269523D01*
X73832380Y-110936190D01*
X73880000Y-110840952D01*
X73927619Y-110793333D01*
X74022857Y-110745714D01*
X74118095Y-110745714D01*
X74213333Y-110793333D01*
X74260952Y-110840952D01*
X74308571Y-110936190D01*
X74308571Y-111269523D01*
X74832380Y-109745714D02*
X74832380Y-110317142D01*
X74832380Y-110031428D02*
X73832380Y-110031428D01*
X73975238Y-110126666D01*
X74070476Y-110221904D01*
X74118095Y-110317142D01*
D15*
X141302619Y-101374523D02*
X141302619Y-100104523D01*
X141605000Y-100104523D01*
X141786428Y-100165000D01*
X141907380Y-100285952D01*
X141967857Y-100406904D01*
X142028333Y-100648809D01*
X142028333Y-100830238D01*
X141967857Y-101072142D01*
X141907380Y-101193095D01*
X141786428Y-101314047D01*
X141605000Y-101374523D01*
X141302619Y-101374523D01*
X142451666Y-100104523D02*
X143298333Y-100104523D01*
X142754047Y-101374523D01*
D11*
X113561904Y-100532380D02*
X113561904Y-99532380D01*
X113800000Y-99532380D01*
X113942857Y-99580000D01*
X114038095Y-99675238D01*
X114085714Y-99770476D01*
X114133333Y-99960952D01*
X114133333Y-100103809D01*
X114085714Y-100294285D01*
X114038095Y-100389523D01*
X113942857Y-100484761D01*
X113800000Y-100532380D01*
X113561904Y-100532380D01*
X114990476Y-99532380D02*
X114800000Y-99532380D01*
X114704761Y-99580000D01*
X114657142Y-99627619D01*
X114561904Y-99770476D01*
X114514285Y-99960952D01*
X114514285Y-100341904D01*
X114561904Y-100437142D01*
X114609523Y-100484761D01*
X114704761Y-100532380D01*
X114895238Y-100532380D01*
X114990476Y-100484761D01*
X115038095Y-100437142D01*
X115085714Y-100341904D01*
X115085714Y-100103809D01*
X115038095Y-100008571D01*
X114990476Y-99960952D01*
X114895238Y-99913333D01*
X114704761Y-99913333D01*
X114609523Y-99960952D01*
X114561904Y-100008571D01*
X114514285Y-100103809D01*
D15*
X81854523Y-91879761D02*
X80584523Y-91879761D01*
X81733571Y-90549285D02*
X81794047Y-90609761D01*
X81854523Y-90791190D01*
X81854523Y-90912142D01*
X81794047Y-91093571D01*
X81673095Y-91214523D01*
X81552142Y-91275000D01*
X81310238Y-91335476D01*
X81128809Y-91335476D01*
X80886904Y-91275000D01*
X80765952Y-91214523D01*
X80645000Y-91093571D01*
X80584523Y-90912142D01*
X80584523Y-90791190D01*
X80645000Y-90609761D01*
X80705476Y-90549285D01*
X80705476Y-90065476D02*
X80645000Y-90005000D01*
X80584523Y-89884047D01*
X80584523Y-89581666D01*
X80645000Y-89460714D01*
X80705476Y-89400238D01*
X80826428Y-89339761D01*
X80947380Y-89339761D01*
X81128809Y-89400238D01*
X81854523Y-90125952D01*
X81854523Y-89339761D01*
D11*
X117133809Y-112622380D02*
X117133809Y-111622380D01*
X118181428Y-112527142D02*
X118133809Y-112574761D01*
X117990952Y-112622380D01*
X117895714Y-112622380D01*
X117752857Y-112574761D01*
X117657619Y-112479523D01*
X117610000Y-112384285D01*
X117562380Y-112193809D01*
X117562380Y-112050952D01*
X117610000Y-111860476D01*
X117657619Y-111765238D01*
X117752857Y-111670000D01*
X117895714Y-111622380D01*
X117990952Y-111622380D01*
X118133809Y-111670000D01*
X118181428Y-111717619D01*
X118514761Y-111622380D02*
X119133809Y-111622380D01*
X118800476Y-112003333D01*
X118943333Y-112003333D01*
X119038571Y-112050952D01*
X119086190Y-112098571D01*
X119133809Y-112193809D01*
X119133809Y-112431904D01*
X119086190Y-112527142D01*
X119038571Y-112574761D01*
X118943333Y-112622380D01*
X118657619Y-112622380D01*
X118562380Y-112574761D01*
X118514761Y-112527142D01*
X110682380Y-120683333D02*
X111396666Y-120683333D01*
X111539523Y-120730952D01*
X111634761Y-120826190D01*
X111682380Y-120969047D01*
X111682380Y-121064285D01*
X111682380Y-120207142D02*
X110682380Y-120207142D01*
X110682380Y-119826190D01*
X110730000Y-119730952D01*
X110777619Y-119683333D01*
X110872857Y-119635714D01*
X111015714Y-119635714D01*
X111110952Y-119683333D01*
X111158571Y-119730952D01*
X111206190Y-119826190D01*
X111206190Y-120207142D01*
X110682380Y-119302380D02*
X110682380Y-118683333D01*
X111063333Y-119016666D01*
X111063333Y-118873809D01*
X111110952Y-118778571D01*
X111158571Y-118730952D01*
X111253809Y-118683333D01*
X111491904Y-118683333D01*
X111587142Y-118730952D01*
X111634761Y-118778571D01*
X111682380Y-118873809D01*
X111682380Y-119159523D01*
X111634761Y-119254761D01*
X111587142Y-119302380D01*
X113482380Y-122164285D02*
X113482380Y-122735714D01*
X113482380Y-122450000D02*
X112482380Y-122450000D01*
X112625238Y-122545238D01*
X112720476Y-122640476D01*
X112768095Y-122735714D01*
X112482380Y-117583333D02*
X112482380Y-116964285D01*
X112863333Y-117297619D01*
X112863333Y-117154761D01*
X112910952Y-117059523D01*
X112958571Y-117011904D01*
X113053809Y-116964285D01*
X113291904Y-116964285D01*
X113387142Y-117011904D01*
X113434761Y-117059523D01*
X113482380Y-117154761D01*
X113482380Y-117440476D01*
X113434761Y-117535714D01*
X113387142Y-117583333D01*
D15*
X114874523Y-87767380D02*
X113604523Y-87767380D01*
X113604523Y-87465000D01*
X113665000Y-87283571D01*
X113785952Y-87162619D01*
X113906904Y-87102142D01*
X114148809Y-87041666D01*
X114330238Y-87041666D01*
X114572142Y-87102142D01*
X114693095Y-87162619D01*
X114814047Y-87283571D01*
X114874523Y-87465000D01*
X114874523Y-87767380D01*
X113604523Y-85892619D02*
X113604523Y-86497380D01*
X114209285Y-86557857D01*
X114148809Y-86497380D01*
X114088333Y-86376428D01*
X114088333Y-86074047D01*
X114148809Y-85953095D01*
X114209285Y-85892619D01*
X114330238Y-85832142D01*
X114632619Y-85832142D01*
X114753571Y-85892619D01*
X114814047Y-85953095D01*
X114874523Y-86074047D01*
X114874523Y-86376428D01*
X114814047Y-86497380D01*
X114753571Y-86557857D01*
D11*
X99591904Y-103242380D02*
X99591904Y-102242380D01*
X99830000Y-102242380D01*
X99972857Y-102290000D01*
X100068095Y-102385238D01*
X100115714Y-102480476D01*
X100163333Y-102670952D01*
X100163333Y-102813809D01*
X100115714Y-103004285D01*
X100068095Y-103099523D01*
X99972857Y-103194761D01*
X99830000Y-103242380D01*
X99591904Y-103242380D01*
X101115714Y-103242380D02*
X100544285Y-103242380D01*
X100830000Y-103242380D02*
X100830000Y-102242380D01*
X100734761Y-102385238D01*
X100639523Y-102480476D01*
X100544285Y-102528095D01*
X146449142Y-112872857D02*
X146496761Y-112920476D01*
X146544380Y-113063333D01*
X146544380Y-113158571D01*
X146496761Y-113301428D01*
X146401523Y-113396666D01*
X146306285Y-113444285D01*
X146115809Y-113491904D01*
X145972952Y-113491904D01*
X145782476Y-113444285D01*
X145687238Y-113396666D01*
X145592000Y-113301428D01*
X145544380Y-113158571D01*
X145544380Y-113063333D01*
X145592000Y-112920476D01*
X145639619Y-112872857D01*
X146544380Y-111920476D02*
X146544380Y-112491904D01*
X146544380Y-112206190D02*
X145544380Y-112206190D01*
X145687238Y-112301428D01*
X145782476Y-112396666D01*
X145830095Y-112491904D01*
X145877714Y-111063333D02*
X146544380Y-111063333D01*
X145496761Y-111301428D02*
X146211047Y-111539523D01*
X146211047Y-110920476D01*
X70953333Y-107052380D02*
X70620000Y-106576190D01*
X70381904Y-107052380D02*
X70381904Y-106052380D01*
X70762857Y-106052380D01*
X70858095Y-106100000D01*
X70905714Y-106147619D01*
X70953333Y-106242857D01*
X70953333Y-106385714D01*
X70905714Y-106480952D01*
X70858095Y-106528571D01*
X70762857Y-106576190D01*
X70381904Y-106576190D01*
X71858095Y-106052380D02*
X71381904Y-106052380D01*
X71334285Y-106528571D01*
X71381904Y-106480952D01*
X71477142Y-106433333D01*
X71715238Y-106433333D01*
X71810476Y-106480952D01*
X71858095Y-106528571D01*
X71905714Y-106623809D01*
X71905714Y-106861904D01*
X71858095Y-106957142D01*
X71810476Y-107004761D01*
X71715238Y-107052380D01*
X71477142Y-107052380D01*
X71381904Y-107004761D01*
X71334285Y-106957142D01*
X99591904Y-107052380D02*
X99591904Y-106052380D01*
X99830000Y-106052380D01*
X99972857Y-106100000D01*
X100068095Y-106195238D01*
X100115714Y-106290476D01*
X100163333Y-106480952D01*
X100163333Y-106623809D01*
X100115714Y-106814285D01*
X100068095Y-106909523D01*
X99972857Y-107004761D01*
X99830000Y-107052380D01*
X99591904Y-107052380D01*
X100544285Y-106147619D02*
X100591904Y-106100000D01*
X100687142Y-106052380D01*
X100925238Y-106052380D01*
X101020476Y-106100000D01*
X101068095Y-106147619D01*
X101115714Y-106242857D01*
X101115714Y-106338095D01*
X101068095Y-106480952D01*
X100496666Y-107052380D01*
X101115714Y-107052380D01*
X153062380Y-80019523D02*
X152062380Y-80019523D01*
X152776666Y-79686190D01*
X152062380Y-79352857D01*
X153062380Y-79352857D01*
X153062380Y-78352857D02*
X153062380Y-78924285D01*
X153062380Y-78638571D02*
X152062380Y-78638571D01*
X152205238Y-78733809D01*
X152300476Y-78829047D01*
X152348095Y-78924285D01*
X146449142Y-107922857D02*
X146496761Y-107970476D01*
X146544380Y-108113333D01*
X146544380Y-108208571D01*
X146496761Y-108351428D01*
X146401523Y-108446666D01*
X146306285Y-108494285D01*
X146115809Y-108541904D01*
X145972952Y-108541904D01*
X145782476Y-108494285D01*
X145687238Y-108446666D01*
X145592000Y-108351428D01*
X145544380Y-108208571D01*
X145544380Y-108113333D01*
X145592000Y-107970476D01*
X145639619Y-107922857D01*
X146544380Y-106970476D02*
X146544380Y-107541904D01*
X146544380Y-107256190D02*
X145544380Y-107256190D01*
X145687238Y-107351428D01*
X145782476Y-107446666D01*
X145830095Y-107541904D01*
X145544380Y-106637142D02*
X145544380Y-106018095D01*
X145925333Y-106351428D01*
X145925333Y-106208571D01*
X145972952Y-106113333D01*
X146020571Y-106065714D01*
X146115809Y-106018095D01*
X146353904Y-106018095D01*
X146449142Y-106065714D01*
X146496761Y-106113333D01*
X146544380Y-106208571D01*
X146544380Y-106494285D01*
X146496761Y-106589523D01*
X146449142Y-106637142D01*
D15*
X126425476Y-83140952D02*
X126365000Y-83261904D01*
X126244047Y-83382857D01*
X126062619Y-83564285D01*
X126002142Y-83685238D01*
X126002142Y-83806190D01*
X126304523Y-83745714D02*
X126244047Y-83866666D01*
X126123095Y-83987619D01*
X125881190Y-84048095D01*
X125457857Y-84048095D01*
X125215952Y-83987619D01*
X125095000Y-83866666D01*
X125034523Y-83745714D01*
X125034523Y-83503809D01*
X125095000Y-83382857D01*
X125215952Y-83261904D01*
X125457857Y-83201428D01*
X125881190Y-83201428D01*
X126123095Y-83261904D01*
X126244047Y-83382857D01*
X126304523Y-83503809D01*
X126304523Y-83745714D01*
X125155476Y-82717619D02*
X125095000Y-82657142D01*
X125034523Y-82536190D01*
X125034523Y-82233809D01*
X125095000Y-82112857D01*
X125155476Y-82052380D01*
X125276428Y-81991904D01*
X125397380Y-81991904D01*
X125578809Y-82052380D01*
X126304523Y-82778095D01*
X126304523Y-81991904D01*
X123220238Y-96294523D02*
X123220238Y-95024523D01*
X124550714Y-96173571D02*
X124490238Y-96234047D01*
X124308809Y-96294523D01*
X124187857Y-96294523D01*
X124006428Y-96234047D01*
X123885476Y-96113095D01*
X123825000Y-95992142D01*
X123764523Y-95750238D01*
X123764523Y-95568809D01*
X123825000Y-95326904D01*
X123885476Y-95205952D01*
X124006428Y-95085000D01*
X124187857Y-95024523D01*
X124308809Y-95024523D01*
X124490238Y-95085000D01*
X124550714Y-95145476D01*
X125639285Y-95447857D02*
X125639285Y-96294523D01*
X125336904Y-94964047D02*
X125034523Y-95871190D01*
X125820714Y-95871190D01*
X149587857Y-108994523D02*
X149587857Y-107724523D01*
X150071666Y-107724523D01*
X150192619Y-107785000D01*
X150253095Y-107845476D01*
X150313571Y-107966428D01*
X150313571Y-108147857D01*
X150253095Y-108268809D01*
X150192619Y-108329285D01*
X150071666Y-108389761D01*
X149587857Y-108389761D01*
X150797380Y-108934047D02*
X150978809Y-108994523D01*
X151281190Y-108994523D01*
X151402142Y-108934047D01*
X151462619Y-108873571D01*
X151523095Y-108752619D01*
X151523095Y-108631666D01*
X151462619Y-108510714D01*
X151402142Y-108450238D01*
X151281190Y-108389761D01*
X151039285Y-108329285D01*
X150918333Y-108268809D01*
X150857857Y-108208333D01*
X150797380Y-108087380D01*
X150797380Y-107966428D01*
X150857857Y-107845476D01*
X150918333Y-107785000D01*
X151039285Y-107724523D01*
X151341666Y-107724523D01*
X151523095Y-107785000D01*
X152732619Y-108994523D02*
X152006904Y-108994523D01*
X152369761Y-108994523D02*
X152369761Y-107724523D01*
X152248809Y-107905952D01*
X152127857Y-108026904D01*
X152006904Y-108087380D01*
X155272619Y-121694523D02*
X155272619Y-120424523D01*
X155575000Y-120424523D01*
X155756428Y-120485000D01*
X155877380Y-120605952D01*
X155937857Y-120726904D01*
X155998333Y-120968809D01*
X155998333Y-121150238D01*
X155937857Y-121392142D01*
X155877380Y-121513095D01*
X155756428Y-121634047D01*
X155575000Y-121694523D01*
X155272619Y-121694523D01*
X156724047Y-120968809D02*
X156603095Y-120908333D01*
X156542619Y-120847857D01*
X156482142Y-120726904D01*
X156482142Y-120666428D01*
X156542619Y-120545476D01*
X156603095Y-120485000D01*
X156724047Y-120424523D01*
X156965952Y-120424523D01*
X157086904Y-120485000D01*
X157147380Y-120545476D01*
X157207857Y-120666428D01*
X157207857Y-120726904D01*
X157147380Y-120847857D01*
X157086904Y-120908333D01*
X156965952Y-120968809D01*
X156724047Y-120968809D01*
X156603095Y-121029285D01*
X156542619Y-121089761D01*
X156482142Y-121210714D01*
X156482142Y-121452619D01*
X156542619Y-121573571D01*
X156603095Y-121634047D01*
X156724047Y-121694523D01*
X156965952Y-121694523D01*
X157086904Y-121634047D01*
X157147380Y-121573571D01*
X157207857Y-121452619D01*
X157207857Y-121210714D01*
X157147380Y-121089761D01*
X157086904Y-121029285D01*
X156965952Y-120968809D01*
D11*
X70953333Y-110862380D02*
X70620000Y-110386190D01*
X70381904Y-110862380D02*
X70381904Y-109862380D01*
X70762857Y-109862380D01*
X70858095Y-109910000D01*
X70905714Y-109957619D01*
X70953333Y-110052857D01*
X70953333Y-110195714D01*
X70905714Y-110290952D01*
X70858095Y-110338571D01*
X70762857Y-110386190D01*
X70381904Y-110386190D01*
X71810476Y-110195714D02*
X71810476Y-110862380D01*
X71572380Y-109814761D02*
X71334285Y-110529047D01*
X71953333Y-110529047D01*
X143702380Y-121303333D02*
X144416666Y-121303333D01*
X144559523Y-121350952D01*
X144654761Y-121446190D01*
X144702380Y-121589047D01*
X144702380Y-121684285D01*
X144702380Y-120827142D02*
X143702380Y-120827142D01*
X143702380Y-120446190D01*
X143750000Y-120350952D01*
X143797619Y-120303333D01*
X143892857Y-120255714D01*
X144035714Y-120255714D01*
X144130952Y-120303333D01*
X144178571Y-120350952D01*
X144226190Y-120446190D01*
X144226190Y-120827142D01*
X144035714Y-119398571D02*
X144702380Y-119398571D01*
X143654761Y-119636666D02*
X144369047Y-119874761D01*
X144369047Y-119255714D01*
X107783333Y-109422380D02*
X107450000Y-108946190D01*
X107211904Y-109422380D02*
X107211904Y-108422380D01*
X107592857Y-108422380D01*
X107688095Y-108470000D01*
X107735714Y-108517619D01*
X107783333Y-108612857D01*
X107783333Y-108755714D01*
X107735714Y-108850952D01*
X107688095Y-108898571D01*
X107592857Y-108946190D01*
X107211904Y-108946190D01*
X108259523Y-109422380D02*
X108450000Y-109422380D01*
X108545238Y-109374761D01*
X108592857Y-109327142D01*
X108688095Y-109184285D01*
X108735714Y-108993809D01*
X108735714Y-108612857D01*
X108688095Y-108517619D01*
X108640476Y-108470000D01*
X108545238Y-108422380D01*
X108354761Y-108422380D01*
X108259523Y-108470000D01*
X108211904Y-108517619D01*
X108164285Y-108612857D01*
X108164285Y-108850952D01*
X108211904Y-108946190D01*
X108259523Y-108993809D01*
X108354761Y-109041428D01*
X108545238Y-109041428D01*
X108640476Y-108993809D01*
X108688095Y-108946190D01*
X108735714Y-108850952D01*
X138035380Y-102617666D02*
X137559190Y-102951000D01*
X138035380Y-103189095D02*
X137035380Y-103189095D01*
X137035380Y-102808142D01*
X137083000Y-102712904D01*
X137130619Y-102665285D01*
X137225857Y-102617666D01*
X137368714Y-102617666D01*
X137463952Y-102665285D01*
X137511571Y-102712904D01*
X137559190Y-102808142D01*
X137559190Y-103189095D01*
X137035380Y-101760523D02*
X137035380Y-101951000D01*
X137083000Y-102046238D01*
X137130619Y-102093857D01*
X137273476Y-102189095D01*
X137463952Y-102236714D01*
X137844904Y-102236714D01*
X137940142Y-102189095D01*
X137987761Y-102141476D01*
X138035380Y-102046238D01*
X138035380Y-101855761D01*
X137987761Y-101760523D01*
X137940142Y-101712904D01*
X137844904Y-101665285D01*
X137606809Y-101665285D01*
X137511571Y-101712904D01*
X137463952Y-101760523D01*
X137416333Y-101855761D01*
X137416333Y-102046238D01*
X137463952Y-102141476D01*
X137511571Y-102189095D01*
X137606809Y-102236714D01*
X65706666Y-96212380D02*
X65706666Y-96926666D01*
X65659047Y-97069523D01*
X65563809Y-97164761D01*
X65420952Y-97212380D01*
X65325714Y-97212380D01*
X66087619Y-96212380D02*
X66706666Y-96212380D01*
X66373333Y-96593333D01*
X66516190Y-96593333D01*
X66611428Y-96640952D01*
X66659047Y-96688571D01*
X66706666Y-96783809D01*
X66706666Y-97021904D01*
X66659047Y-97117142D01*
X66611428Y-97164761D01*
X66516190Y-97212380D01*
X66230476Y-97212380D01*
X66135238Y-97164761D01*
X66087619Y-97117142D01*
D15*
X76774523Y-91879761D02*
X75504523Y-91879761D01*
X76653571Y-90549285D02*
X76714047Y-90609761D01*
X76774523Y-90791190D01*
X76774523Y-90912142D01*
X76714047Y-91093571D01*
X76593095Y-91214523D01*
X76472142Y-91275000D01*
X76230238Y-91335476D01*
X76048809Y-91335476D01*
X75806904Y-91275000D01*
X75685952Y-91214523D01*
X75565000Y-91093571D01*
X75504523Y-90912142D01*
X75504523Y-90791190D01*
X75565000Y-90609761D01*
X75625476Y-90549285D01*
X76774523Y-89339761D02*
X76774523Y-90065476D01*
X76774523Y-89702619D02*
X75504523Y-89702619D01*
X75685952Y-89823571D01*
X75806904Y-89944523D01*
X75867380Y-90065476D01*
X144084523Y-88077380D02*
X142814523Y-88077380D01*
X142814523Y-87775000D01*
X142875000Y-87593571D01*
X142995952Y-87472619D01*
X143116904Y-87412142D01*
X143358809Y-87351666D01*
X143540238Y-87351666D01*
X143782142Y-87412142D01*
X143903095Y-87472619D01*
X144024047Y-87593571D01*
X144084523Y-87775000D01*
X144084523Y-88077380D01*
X143237857Y-86263095D02*
X144084523Y-86263095D01*
X142754047Y-86565476D02*
X143661190Y-86867857D01*
X143661190Y-86081666D01*
D11*
X125087142Y-115772380D02*
X124753809Y-115296190D01*
X124515714Y-115772380D02*
X124515714Y-114772380D01*
X124896666Y-114772380D01*
X124991904Y-114820000D01*
X125039523Y-114867619D01*
X125087142Y-114962857D01*
X125087142Y-115105714D01*
X125039523Y-115200952D01*
X124991904Y-115248571D01*
X124896666Y-115296190D01*
X124515714Y-115296190D01*
X126039523Y-115772380D02*
X125468095Y-115772380D01*
X125753809Y-115772380D02*
X125753809Y-114772380D01*
X125658571Y-114915238D01*
X125563333Y-115010476D01*
X125468095Y-115058095D01*
X126420476Y-114867619D02*
X126468095Y-114820000D01*
X126563333Y-114772380D01*
X126801428Y-114772380D01*
X126896666Y-114820000D01*
X126944285Y-114867619D01*
X126991904Y-114962857D01*
X126991904Y-115058095D01*
X126944285Y-115200952D01*
X126372857Y-115772380D01*
X126991904Y-115772380D01*
X94607142Y-106882380D02*
X94273809Y-106406190D01*
X94035714Y-106882380D02*
X94035714Y-105882380D01*
X94416666Y-105882380D01*
X94511904Y-105930000D01*
X94559523Y-105977619D01*
X94607142Y-106072857D01*
X94607142Y-106215714D01*
X94559523Y-106310952D01*
X94511904Y-106358571D01*
X94416666Y-106406190D01*
X94035714Y-106406190D01*
X95559523Y-106882380D02*
X94988095Y-106882380D01*
X95273809Y-106882380D02*
X95273809Y-105882380D01*
X95178571Y-106025238D01*
X95083333Y-106120476D01*
X94988095Y-106168095D01*
X96178571Y-105882380D02*
X96273809Y-105882380D01*
X96369047Y-105930000D01*
X96416666Y-105977619D01*
X96464285Y-106072857D01*
X96511904Y-106263333D01*
X96511904Y-106501428D01*
X96464285Y-106691904D01*
X96416666Y-106787142D01*
X96369047Y-106834761D01*
X96273809Y-106882380D01*
X96178571Y-106882380D01*
X96083333Y-106834761D01*
X96035714Y-106787142D01*
X95988095Y-106691904D01*
X95940476Y-106501428D01*
X95940476Y-106263333D01*
X95988095Y-106072857D01*
X96035714Y-105977619D01*
X96083333Y-105930000D01*
X96178571Y-105882380D01*
X93813333Y-114672380D02*
X93480000Y-114196190D01*
X93241904Y-114672380D02*
X93241904Y-113672380D01*
X93622857Y-113672380D01*
X93718095Y-113720000D01*
X93765714Y-113767619D01*
X93813333Y-113862857D01*
X93813333Y-114005714D01*
X93765714Y-114100952D01*
X93718095Y-114148571D01*
X93622857Y-114196190D01*
X93241904Y-114196190D01*
X94146666Y-113672380D02*
X94813333Y-113672380D01*
X94384761Y-114672380D01*
X77303333Y-94352380D02*
X76970000Y-93876190D01*
X76731904Y-94352380D02*
X76731904Y-93352380D01*
X77112857Y-93352380D01*
X77208095Y-93400000D01*
X77255714Y-93447619D01*
X77303333Y-93542857D01*
X77303333Y-93685714D01*
X77255714Y-93780952D01*
X77208095Y-93828571D01*
X77112857Y-93876190D01*
X76731904Y-93876190D01*
X77684285Y-93447619D02*
X77731904Y-93400000D01*
X77827142Y-93352380D01*
X78065238Y-93352380D01*
X78160476Y-93400000D01*
X78208095Y-93447619D01*
X78255714Y-93542857D01*
X78255714Y-93638095D01*
X78208095Y-93780952D01*
X77636666Y-94352380D01*
X78255714Y-94352380D01*
X131742380Y-122723333D02*
X132456666Y-122723333D01*
X132599523Y-122770952D01*
X132694761Y-122866190D01*
X132742380Y-123009047D01*
X132742380Y-123104285D01*
X132742380Y-121723333D02*
X132742380Y-122294761D01*
X132742380Y-122009047D02*
X131742380Y-122009047D01*
X131885238Y-122104285D01*
X131980476Y-122199523D01*
X132028095Y-122294761D01*
X99591904Y-110862380D02*
X99591904Y-109862380D01*
X99830000Y-109862380D01*
X99972857Y-109910000D01*
X100068095Y-110005238D01*
X100115714Y-110100476D01*
X100163333Y-110290952D01*
X100163333Y-110433809D01*
X100115714Y-110624285D01*
X100068095Y-110719523D01*
X99972857Y-110814761D01*
X99830000Y-110862380D01*
X99591904Y-110862380D01*
X100496666Y-109862380D02*
X101115714Y-109862380D01*
X100782380Y-110243333D01*
X100925238Y-110243333D01*
X101020476Y-110290952D01*
X101068095Y-110338571D01*
X101115714Y-110433809D01*
X101115714Y-110671904D01*
X101068095Y-110767142D01*
X101020476Y-110814761D01*
X100925238Y-110862380D01*
X100639523Y-110862380D01*
X100544285Y-110814761D01*
X100496666Y-110767142D01*
X76636666Y-83212380D02*
X76636666Y-83926666D01*
X76589047Y-84069523D01*
X76493809Y-84164761D01*
X76350952Y-84212380D01*
X76255714Y-84212380D01*
X77112857Y-84212380D02*
X77112857Y-83212380D01*
X77493809Y-83212380D01*
X77589047Y-83260000D01*
X77636666Y-83307619D01*
X77684285Y-83402857D01*
X77684285Y-83545714D01*
X77636666Y-83640952D01*
X77589047Y-83688571D01*
X77493809Y-83736190D01*
X77112857Y-83736190D01*
X78636666Y-84212380D02*
X78065238Y-84212380D01*
X78350952Y-84212380D02*
X78350952Y-83212380D01*
X78255714Y-83355238D01*
X78160476Y-83450476D01*
X78065238Y-83498095D01*
X157287142Y-115412857D02*
X157334761Y-115460476D01*
X157382380Y-115603333D01*
X157382380Y-115698571D01*
X157334761Y-115841428D01*
X157239523Y-115936666D01*
X157144285Y-115984285D01*
X156953809Y-116031904D01*
X156810952Y-116031904D01*
X156620476Y-115984285D01*
X156525238Y-115936666D01*
X156430000Y-115841428D01*
X156382380Y-115698571D01*
X156382380Y-115603333D01*
X156430000Y-115460476D01*
X156477619Y-115412857D01*
X157382380Y-114460476D02*
X157382380Y-115031904D01*
X157382380Y-114746190D02*
X156382380Y-114746190D01*
X156525238Y-114841428D01*
X156620476Y-114936666D01*
X156668095Y-115031904D01*
X156382380Y-113603333D02*
X156382380Y-113793809D01*
X156430000Y-113889047D01*
X156477619Y-113936666D01*
X156620476Y-114031904D01*
X156810952Y-114079523D01*
X157191904Y-114079523D01*
X157287142Y-114031904D01*
X157334761Y-113984285D01*
X157382380Y-113889047D01*
X157382380Y-113698571D01*
X157334761Y-113603333D01*
X157287142Y-113555714D01*
X157191904Y-113508095D01*
X156953809Y-113508095D01*
X156858571Y-113555714D01*
X156810952Y-113603333D01*
X156763333Y-113698571D01*
X156763333Y-113889047D01*
X156810952Y-113984285D01*
X156858571Y-114031904D01*
X156953809Y-114079523D01*
X110127142Y-121286666D02*
X110174761Y-121334285D01*
X110222380Y-121477142D01*
X110222380Y-121572380D01*
X110174761Y-121715238D01*
X110079523Y-121810476D01*
X109984285Y-121858095D01*
X109793809Y-121905714D01*
X109650952Y-121905714D01*
X109460476Y-121858095D01*
X109365238Y-121810476D01*
X109270000Y-121715238D01*
X109222380Y-121572380D01*
X109222380Y-121477142D01*
X109270000Y-121334285D01*
X109317619Y-121286666D01*
X109222380Y-120429523D02*
X109222380Y-120620000D01*
X109270000Y-120715238D01*
X109317619Y-120762857D01*
X109460476Y-120858095D01*
X109650952Y-120905714D01*
X110031904Y-120905714D01*
X110127142Y-120858095D01*
X110174761Y-120810476D01*
X110222380Y-120715238D01*
X110222380Y-120524761D01*
X110174761Y-120429523D01*
X110127142Y-120381904D01*
X110031904Y-120334285D01*
X109793809Y-120334285D01*
X109698571Y-120381904D01*
X109650952Y-120429523D01*
X109603333Y-120524761D01*
X109603333Y-120715238D01*
X109650952Y-120810476D01*
X109698571Y-120858095D01*
X109793809Y-120905714D01*
X106317142Y-121286666D02*
X106364761Y-121334285D01*
X106412380Y-121477142D01*
X106412380Y-121572380D01*
X106364761Y-121715238D01*
X106269523Y-121810476D01*
X106174285Y-121858095D01*
X105983809Y-121905714D01*
X105840952Y-121905714D01*
X105650476Y-121858095D01*
X105555238Y-121810476D01*
X105460000Y-121715238D01*
X105412380Y-121572380D01*
X105412380Y-121477142D01*
X105460000Y-121334285D01*
X105507619Y-121286666D01*
X105412380Y-120381904D02*
X105412380Y-120858095D01*
X105888571Y-120905714D01*
X105840952Y-120858095D01*
X105793333Y-120762857D01*
X105793333Y-120524761D01*
X105840952Y-120429523D01*
X105888571Y-120381904D01*
X105983809Y-120334285D01*
X106221904Y-120334285D01*
X106317142Y-120381904D01*
X106364761Y-120429523D01*
X106412380Y-120524761D01*
X106412380Y-120762857D01*
X106364761Y-120858095D01*
X106317142Y-120905714D01*
X119187142Y-84932857D02*
X119234761Y-84980476D01*
X119282380Y-85123333D01*
X119282380Y-85218571D01*
X119234761Y-85361428D01*
X119139523Y-85456666D01*
X119044285Y-85504285D01*
X118853809Y-85551904D01*
X118710952Y-85551904D01*
X118520476Y-85504285D01*
X118425238Y-85456666D01*
X118330000Y-85361428D01*
X118282380Y-85218571D01*
X118282380Y-85123333D01*
X118330000Y-84980476D01*
X118377619Y-84932857D01*
X119282380Y-83980476D02*
X119282380Y-84551904D01*
X119282380Y-84266190D02*
X118282380Y-84266190D01*
X118425238Y-84361428D01*
X118520476Y-84456666D01*
X118568095Y-84551904D01*
X118282380Y-83361428D02*
X118282380Y-83266190D01*
X118330000Y-83170952D01*
X118377619Y-83123333D01*
X118472857Y-83075714D01*
X118663333Y-83028095D01*
X118901428Y-83028095D01*
X119091904Y-83075714D01*
X119187142Y-83123333D01*
X119234761Y-83170952D01*
X119282380Y-83266190D01*
X119282380Y-83361428D01*
X119234761Y-83456666D01*
X119187142Y-83504285D01*
X119091904Y-83551904D01*
X118901428Y-83599523D01*
X118663333Y-83599523D01*
X118472857Y-83551904D01*
X118377619Y-83504285D01*
X118330000Y-83456666D01*
X118282380Y-83361428D01*
X94887142Y-121286666D02*
X94934761Y-121334285D01*
X94982380Y-121477142D01*
X94982380Y-121572380D01*
X94934761Y-121715238D01*
X94839523Y-121810476D01*
X94744285Y-121858095D01*
X94553809Y-121905714D01*
X94410952Y-121905714D01*
X94220476Y-121858095D01*
X94125238Y-121810476D01*
X94030000Y-121715238D01*
X93982380Y-121572380D01*
X93982380Y-121477142D01*
X94030000Y-121334285D01*
X94077619Y-121286666D01*
X93982380Y-120953333D02*
X93982380Y-120286666D01*
X94982380Y-120715238D01*
X117943333Y-111867142D02*
X117895714Y-111914761D01*
X117752857Y-111962380D01*
X117657619Y-111962380D01*
X117514761Y-111914761D01*
X117419523Y-111819523D01*
X117371904Y-111724285D01*
X117324285Y-111533809D01*
X117324285Y-111390952D01*
X117371904Y-111200476D01*
X117419523Y-111105238D01*
X117514761Y-111010000D01*
X117657619Y-110962380D01*
X117752857Y-110962380D01*
X117895714Y-111010000D01*
X117943333Y-111057619D01*
X118419523Y-111962380D02*
X118610000Y-111962380D01*
X118705238Y-111914761D01*
X118752857Y-111867142D01*
X118848095Y-111724285D01*
X118895714Y-111533809D01*
X118895714Y-111152857D01*
X118848095Y-111057619D01*
X118800476Y-111010000D01*
X118705238Y-110962380D01*
X118514761Y-110962380D01*
X118419523Y-111010000D01*
X118371904Y-111057619D01*
X118324285Y-111152857D01*
X118324285Y-111390952D01*
X118371904Y-111486190D01*
X118419523Y-111533809D01*
X118514761Y-111581428D01*
X118705238Y-111581428D01*
X118800476Y-111533809D01*
X118848095Y-111486190D01*
X118895714Y-111390952D01*
X135527142Y-95222857D02*
X135574761Y-95270476D01*
X135622380Y-95413333D01*
X135622380Y-95508571D01*
X135574761Y-95651428D01*
X135479523Y-95746666D01*
X135384285Y-95794285D01*
X135193809Y-95841904D01*
X135050952Y-95841904D01*
X134860476Y-95794285D01*
X134765238Y-95746666D01*
X134670000Y-95651428D01*
X134622380Y-95508571D01*
X134622380Y-95413333D01*
X134670000Y-95270476D01*
X134717619Y-95222857D01*
X135622380Y-94270476D02*
X135622380Y-94841904D01*
X135622380Y-94556190D02*
X134622380Y-94556190D01*
X134765238Y-94651428D01*
X134860476Y-94746666D01*
X134908095Y-94841904D01*
X134717619Y-93889523D02*
X134670000Y-93841904D01*
X134622380Y-93746666D01*
X134622380Y-93508571D01*
X134670000Y-93413333D01*
X134717619Y-93365714D01*
X134812857Y-93318095D01*
X134908095Y-93318095D01*
X135050952Y-93365714D01*
X135622380Y-93937142D01*
X135622380Y-93318095D01*
X98697142Y-121286666D02*
X98744761Y-121334285D01*
X98792380Y-121477142D01*
X98792380Y-121572380D01*
X98744761Y-121715238D01*
X98649523Y-121810476D01*
X98554285Y-121858095D01*
X98363809Y-121905714D01*
X98220952Y-121905714D01*
X98030476Y-121858095D01*
X97935238Y-121810476D01*
X97840000Y-121715238D01*
X97792380Y-121572380D01*
X97792380Y-121477142D01*
X97840000Y-121334285D01*
X97887619Y-121286666D01*
X98125714Y-120429523D02*
X98792380Y-120429523D01*
X97744761Y-120667619D02*
X98459047Y-120905714D01*
X98459047Y-120286666D01*
X91077142Y-121286666D02*
X91124761Y-121334285D01*
X91172380Y-121477142D01*
X91172380Y-121572380D01*
X91124761Y-121715238D01*
X91029523Y-121810476D01*
X90934285Y-121858095D01*
X90743809Y-121905714D01*
X90600952Y-121905714D01*
X90410476Y-121858095D01*
X90315238Y-121810476D01*
X90220000Y-121715238D01*
X90172380Y-121572380D01*
X90172380Y-121477142D01*
X90220000Y-121334285D01*
X90267619Y-121286666D01*
X90172380Y-120953333D02*
X90172380Y-120334285D01*
X90553333Y-120667619D01*
X90553333Y-120524761D01*
X90600952Y-120429523D01*
X90648571Y-120381904D01*
X90743809Y-120334285D01*
X90981904Y-120334285D01*
X91077142Y-120381904D01*
X91124761Y-120429523D01*
X91172380Y-120524761D01*
X91172380Y-120810476D01*
X91124761Y-120905714D01*
X91077142Y-120953333D01*
X121727142Y-108456666D02*
X121774761Y-108504285D01*
X121822380Y-108647142D01*
X121822380Y-108742380D01*
X121774761Y-108885238D01*
X121679523Y-108980476D01*
X121584285Y-109028095D01*
X121393809Y-109075714D01*
X121250952Y-109075714D01*
X121060476Y-109028095D01*
X120965238Y-108980476D01*
X120870000Y-108885238D01*
X120822380Y-108742380D01*
X120822380Y-108647142D01*
X120870000Y-108504285D01*
X120917619Y-108456666D01*
X120917619Y-108075714D02*
X120870000Y-108028095D01*
X120822380Y-107932857D01*
X120822380Y-107694761D01*
X120870000Y-107599523D01*
X120917619Y-107551904D01*
X121012857Y-107504285D01*
X121108095Y-107504285D01*
X121250952Y-107551904D01*
X121822380Y-108123333D01*
X121822380Y-107504285D01*
X125537142Y-108586666D02*
X125584761Y-108634285D01*
X125632380Y-108777142D01*
X125632380Y-108872380D01*
X125584761Y-109015238D01*
X125489523Y-109110476D01*
X125394285Y-109158095D01*
X125203809Y-109205714D01*
X125060952Y-109205714D01*
X124870476Y-109158095D01*
X124775238Y-109110476D01*
X124680000Y-109015238D01*
X124632380Y-108872380D01*
X124632380Y-108777142D01*
X124680000Y-108634285D01*
X124727619Y-108586666D01*
X125632380Y-107634285D02*
X125632380Y-108205714D01*
X125632380Y-107920000D02*
X124632380Y-107920000D01*
X124775238Y-108015238D01*
X124870476Y-108110476D01*
X124918095Y-108205714D01*
X139398571Y-79995714D02*
X139446190Y-79852857D01*
X139493809Y-79805238D01*
X139589047Y-79757619D01*
X139731904Y-79757619D01*
X139827142Y-79805238D01*
X139874761Y-79852857D01*
X139922380Y-79948095D01*
X139922380Y-80329047D01*
X138922380Y-80329047D01*
X138922380Y-79995714D01*
X138970000Y-79900476D01*
X139017619Y-79852857D01*
X139112857Y-79805238D01*
X139208095Y-79805238D01*
X139303333Y-79852857D01*
X139350952Y-79900476D01*
X139398571Y-79995714D01*
X139398571Y-80329047D01*
X138922380Y-79471904D02*
X138922380Y-78900476D01*
X139922380Y-79186190D02*
X138922380Y-79186190D01*
X139922380Y-78043333D02*
X139922380Y-78614761D01*
X139922380Y-78329047D02*
X138922380Y-78329047D01*
X139065238Y-78424285D01*
X139160476Y-78519523D01*
X139208095Y-78614761D01*
X102507142Y-121286666D02*
X102554761Y-121334285D01*
X102602380Y-121477142D01*
X102602380Y-121572380D01*
X102554761Y-121715238D01*
X102459523Y-121810476D01*
X102364285Y-121858095D01*
X102173809Y-121905714D01*
X102030952Y-121905714D01*
X101840476Y-121858095D01*
X101745238Y-121810476D01*
X101650000Y-121715238D01*
X101602380Y-121572380D01*
X101602380Y-121477142D01*
X101650000Y-121334285D01*
X101697619Y-121286666D01*
X102030952Y-120715238D02*
X101983333Y-120810476D01*
X101935714Y-120858095D01*
X101840476Y-120905714D01*
X101792857Y-120905714D01*
X101697619Y-120858095D01*
X101650000Y-120810476D01*
X101602380Y-120715238D01*
X101602380Y-120524761D01*
X101650000Y-120429523D01*
X101697619Y-120381904D01*
X101792857Y-120334285D01*
X101840476Y-120334285D01*
X101935714Y-120381904D01*
X101983333Y-120429523D01*
X102030952Y-120524761D01*
X102030952Y-120715238D01*
X102078571Y-120810476D01*
X102126190Y-120858095D01*
X102221428Y-120905714D01*
X102411904Y-120905714D01*
X102507142Y-120858095D01*
X102554761Y-120810476D01*
X102602380Y-120715238D01*
X102602380Y-120524761D01*
X102554761Y-120429523D01*
X102507142Y-120381904D01*
X102411904Y-120334285D01*
X102221428Y-120334285D01*
X102126190Y-120381904D01*
X102078571Y-120429523D01*
X102030952Y-120524761D01*
X135527142Y-88742857D02*
X135574761Y-88790476D01*
X135622380Y-88933333D01*
X135622380Y-89028571D01*
X135574761Y-89171428D01*
X135479523Y-89266666D01*
X135384285Y-89314285D01*
X135193809Y-89361904D01*
X135050952Y-89361904D01*
X134860476Y-89314285D01*
X134765238Y-89266666D01*
X134670000Y-89171428D01*
X134622380Y-89028571D01*
X134622380Y-88933333D01*
X134670000Y-88790476D01*
X134717619Y-88742857D01*
X135622380Y-87790476D02*
X135622380Y-88361904D01*
X135622380Y-88076190D02*
X134622380Y-88076190D01*
X134765238Y-88171428D01*
X134860476Y-88266666D01*
X134908095Y-88361904D01*
X135622380Y-86838095D02*
X135622380Y-87409523D01*
X135622380Y-87123809D02*
X134622380Y-87123809D01*
X134765238Y-87219047D01*
X134860476Y-87314285D01*
X134908095Y-87409523D01*
X139398571Y-29995714D02*
X139446190Y-29852857D01*
X139493809Y-29805238D01*
X139589047Y-29757619D01*
X139731904Y-29757619D01*
X139827142Y-29805238D01*
X139874761Y-29852857D01*
X139922380Y-29948095D01*
X139922380Y-30329047D01*
X138922380Y-30329047D01*
X138922380Y-29995714D01*
X138970000Y-29900476D01*
X139017619Y-29852857D01*
X139112857Y-29805238D01*
X139208095Y-29805238D01*
X139303333Y-29852857D01*
X139350952Y-29900476D01*
X139398571Y-29995714D01*
X139398571Y-30329047D01*
X138922380Y-29471904D02*
X138922380Y-28900476D01*
X139922380Y-29186190D02*
X138922380Y-29186190D01*
X139922380Y-28043333D02*
X139922380Y-28614761D01*
X139922380Y-28329047D02*
X138922380Y-28329047D01*
X139065238Y-28424285D01*
X139160476Y-28519523D01*
X139208095Y-28614761D01*
X125537142Y-58586666D02*
X125584761Y-58634285D01*
X125632380Y-58777142D01*
X125632380Y-58872380D01*
X125584761Y-59015238D01*
X125489523Y-59110476D01*
X125394285Y-59158095D01*
X125203809Y-59205714D01*
X125060952Y-59205714D01*
X124870476Y-59158095D01*
X124775238Y-59110476D01*
X124680000Y-59015238D01*
X124632380Y-58872380D01*
X124632380Y-58777142D01*
X124680000Y-58634285D01*
X124727619Y-58586666D01*
X125632380Y-57634285D02*
X125632380Y-58205714D01*
X125632380Y-57920000D02*
X124632380Y-57920000D01*
X124775238Y-58015238D01*
X124870476Y-58110476D01*
X124918095Y-58205714D01*
X121727142Y-58456666D02*
X121774761Y-58504285D01*
X121822380Y-58647142D01*
X121822380Y-58742380D01*
X121774761Y-58885238D01*
X121679523Y-58980476D01*
X121584285Y-59028095D01*
X121393809Y-59075714D01*
X121250952Y-59075714D01*
X121060476Y-59028095D01*
X120965238Y-58980476D01*
X120870000Y-58885238D01*
X120822380Y-58742380D01*
X120822380Y-58647142D01*
X120870000Y-58504285D01*
X120917619Y-58456666D01*
X120917619Y-58075714D02*
X120870000Y-58028095D01*
X120822380Y-57932857D01*
X120822380Y-57694761D01*
X120870000Y-57599523D01*
X120917619Y-57551904D01*
X121012857Y-57504285D01*
X121108095Y-57504285D01*
X121250952Y-57551904D01*
X121822380Y-58123333D01*
X121822380Y-57504285D01*
X91077142Y-71286666D02*
X91124761Y-71334285D01*
X91172380Y-71477142D01*
X91172380Y-71572380D01*
X91124761Y-71715238D01*
X91029523Y-71810476D01*
X90934285Y-71858095D01*
X90743809Y-71905714D01*
X90600952Y-71905714D01*
X90410476Y-71858095D01*
X90315238Y-71810476D01*
X90220000Y-71715238D01*
X90172380Y-71572380D01*
X90172380Y-71477142D01*
X90220000Y-71334285D01*
X90267619Y-71286666D01*
X90172380Y-70953333D02*
X90172380Y-70334285D01*
X90553333Y-70667619D01*
X90553333Y-70524761D01*
X90600952Y-70429523D01*
X90648571Y-70381904D01*
X90743809Y-70334285D01*
X90981904Y-70334285D01*
X91077142Y-70381904D01*
X91124761Y-70429523D01*
X91172380Y-70524761D01*
X91172380Y-70810476D01*
X91124761Y-70905714D01*
X91077142Y-70953333D01*
X98697142Y-71286666D02*
X98744761Y-71334285D01*
X98792380Y-71477142D01*
X98792380Y-71572380D01*
X98744761Y-71715238D01*
X98649523Y-71810476D01*
X98554285Y-71858095D01*
X98363809Y-71905714D01*
X98220952Y-71905714D01*
X98030476Y-71858095D01*
X97935238Y-71810476D01*
X97840000Y-71715238D01*
X97792380Y-71572380D01*
X97792380Y-71477142D01*
X97840000Y-71334285D01*
X97887619Y-71286666D01*
X98125714Y-70429523D02*
X98792380Y-70429523D01*
X97744761Y-70667619D02*
X98459047Y-70905714D01*
X98459047Y-70286666D01*
X106317142Y-71286666D02*
X106364761Y-71334285D01*
X106412380Y-71477142D01*
X106412380Y-71572380D01*
X106364761Y-71715238D01*
X106269523Y-71810476D01*
X106174285Y-71858095D01*
X105983809Y-71905714D01*
X105840952Y-71905714D01*
X105650476Y-71858095D01*
X105555238Y-71810476D01*
X105460000Y-71715238D01*
X105412380Y-71572380D01*
X105412380Y-71477142D01*
X105460000Y-71334285D01*
X105507619Y-71286666D01*
X105412380Y-70381904D02*
X105412380Y-70858095D01*
X105888571Y-70905714D01*
X105840952Y-70858095D01*
X105793333Y-70762857D01*
X105793333Y-70524761D01*
X105840952Y-70429523D01*
X105888571Y-70381904D01*
X105983809Y-70334285D01*
X106221904Y-70334285D01*
X106317142Y-70381904D01*
X106364761Y-70429523D01*
X106412380Y-70524761D01*
X106412380Y-70762857D01*
X106364761Y-70858095D01*
X106317142Y-70905714D01*
X110127142Y-71286666D02*
X110174761Y-71334285D01*
X110222380Y-71477142D01*
X110222380Y-71572380D01*
X110174761Y-71715238D01*
X110079523Y-71810476D01*
X109984285Y-71858095D01*
X109793809Y-71905714D01*
X109650952Y-71905714D01*
X109460476Y-71858095D01*
X109365238Y-71810476D01*
X109270000Y-71715238D01*
X109222380Y-71572380D01*
X109222380Y-71477142D01*
X109270000Y-71334285D01*
X109317619Y-71286666D01*
X109222380Y-70429523D02*
X109222380Y-70620000D01*
X109270000Y-70715238D01*
X109317619Y-70762857D01*
X109460476Y-70858095D01*
X109650952Y-70905714D01*
X110031904Y-70905714D01*
X110127142Y-70858095D01*
X110174761Y-70810476D01*
X110222380Y-70715238D01*
X110222380Y-70524761D01*
X110174761Y-70429523D01*
X110127142Y-70381904D01*
X110031904Y-70334285D01*
X109793809Y-70334285D01*
X109698571Y-70381904D01*
X109650952Y-70429523D01*
X109603333Y-70524761D01*
X109603333Y-70715238D01*
X109650952Y-70810476D01*
X109698571Y-70858095D01*
X109793809Y-70905714D01*
X94887142Y-71286666D02*
X94934761Y-71334285D01*
X94982380Y-71477142D01*
X94982380Y-71572380D01*
X94934761Y-71715238D01*
X94839523Y-71810476D01*
X94744285Y-71858095D01*
X94553809Y-71905714D01*
X94410952Y-71905714D01*
X94220476Y-71858095D01*
X94125238Y-71810476D01*
X94030000Y-71715238D01*
X93982380Y-71572380D01*
X93982380Y-71477142D01*
X94030000Y-71334285D01*
X94077619Y-71286666D01*
X93982380Y-70953333D02*
X93982380Y-70286666D01*
X94982380Y-70715238D01*
X102507142Y-71286666D02*
X102554761Y-71334285D01*
X102602380Y-71477142D01*
X102602380Y-71572380D01*
X102554761Y-71715238D01*
X102459523Y-71810476D01*
X102364285Y-71858095D01*
X102173809Y-71905714D01*
X102030952Y-71905714D01*
X101840476Y-71858095D01*
X101745238Y-71810476D01*
X101650000Y-71715238D01*
X101602380Y-71572380D01*
X101602380Y-71477142D01*
X101650000Y-71334285D01*
X101697619Y-71286666D01*
X102030952Y-70715238D02*
X101983333Y-70810476D01*
X101935714Y-70858095D01*
X101840476Y-70905714D01*
X101792857Y-70905714D01*
X101697619Y-70858095D01*
X101650000Y-70810476D01*
X101602380Y-70715238D01*
X101602380Y-70524761D01*
X101650000Y-70429523D01*
X101697619Y-70381904D01*
X101792857Y-70334285D01*
X101840476Y-70334285D01*
X101935714Y-70381904D01*
X101983333Y-70429523D01*
X102030952Y-70524761D01*
X102030952Y-70715238D01*
X102078571Y-70810476D01*
X102126190Y-70858095D01*
X102221428Y-70905714D01*
X102411904Y-70905714D01*
X102507142Y-70858095D01*
X102554761Y-70810476D01*
X102602380Y-70715238D01*
X102602380Y-70524761D01*
X102554761Y-70429523D01*
X102507142Y-70381904D01*
X102411904Y-70334285D01*
X102221428Y-70334285D01*
X102126190Y-70381904D01*
X102078571Y-70429523D01*
X102030952Y-70524761D01*
X117943333Y-61867142D02*
X117895714Y-61914761D01*
X117752857Y-61962380D01*
X117657619Y-61962380D01*
X117514761Y-61914761D01*
X117419523Y-61819523D01*
X117371904Y-61724285D01*
X117324285Y-61533809D01*
X117324285Y-61390952D01*
X117371904Y-61200476D01*
X117419523Y-61105238D01*
X117514761Y-61010000D01*
X117657619Y-60962380D01*
X117752857Y-60962380D01*
X117895714Y-61010000D01*
X117943333Y-61057619D01*
X118419523Y-61962380D02*
X118610000Y-61962380D01*
X118705238Y-61914761D01*
X118752857Y-61867142D01*
X118848095Y-61724285D01*
X118895714Y-61533809D01*
X118895714Y-61152857D01*
X118848095Y-61057619D01*
X118800476Y-61010000D01*
X118705238Y-60962380D01*
X118514761Y-60962380D01*
X118419523Y-61010000D01*
X118371904Y-61057619D01*
X118324285Y-61152857D01*
X118324285Y-61390952D01*
X118371904Y-61486190D01*
X118419523Y-61533809D01*
X118514761Y-61581428D01*
X118705238Y-61581428D01*
X118800476Y-61533809D01*
X118848095Y-61486190D01*
X118895714Y-61390952D01*
X119187142Y-34932857D02*
X119234761Y-34980476D01*
X119282380Y-35123333D01*
X119282380Y-35218571D01*
X119234761Y-35361428D01*
X119139523Y-35456666D01*
X119044285Y-35504285D01*
X118853809Y-35551904D01*
X118710952Y-35551904D01*
X118520476Y-35504285D01*
X118425238Y-35456666D01*
X118330000Y-35361428D01*
X118282380Y-35218571D01*
X118282380Y-35123333D01*
X118330000Y-34980476D01*
X118377619Y-34932857D01*
X119282380Y-33980476D02*
X119282380Y-34551904D01*
X119282380Y-34266190D02*
X118282380Y-34266190D01*
X118425238Y-34361428D01*
X118520476Y-34456666D01*
X118568095Y-34551904D01*
X118282380Y-33361428D02*
X118282380Y-33266190D01*
X118330000Y-33170952D01*
X118377619Y-33123333D01*
X118472857Y-33075714D01*
X118663333Y-33028095D01*
X118901428Y-33028095D01*
X119091904Y-33075714D01*
X119187142Y-33123333D01*
X119234761Y-33170952D01*
X119282380Y-33266190D01*
X119282380Y-33361428D01*
X119234761Y-33456666D01*
X119187142Y-33504285D01*
X119091904Y-33551904D01*
X118901428Y-33599523D01*
X118663333Y-33599523D01*
X118472857Y-33551904D01*
X118377619Y-33504285D01*
X118330000Y-33456666D01*
X118282380Y-33361428D01*
X135527142Y-38742857D02*
X135574761Y-38790476D01*
X135622380Y-38933333D01*
X135622380Y-39028571D01*
X135574761Y-39171428D01*
X135479523Y-39266666D01*
X135384285Y-39314285D01*
X135193809Y-39361904D01*
X135050952Y-39361904D01*
X134860476Y-39314285D01*
X134765238Y-39266666D01*
X134670000Y-39171428D01*
X134622380Y-39028571D01*
X134622380Y-38933333D01*
X134670000Y-38790476D01*
X134717619Y-38742857D01*
X135622380Y-37790476D02*
X135622380Y-38361904D01*
X135622380Y-38076190D02*
X134622380Y-38076190D01*
X134765238Y-38171428D01*
X134860476Y-38266666D01*
X134908095Y-38361904D01*
X135622380Y-36838095D02*
X135622380Y-37409523D01*
X135622380Y-37123809D02*
X134622380Y-37123809D01*
X134765238Y-37219047D01*
X134860476Y-37314285D01*
X134908095Y-37409523D01*
X135527142Y-45222857D02*
X135574761Y-45270476D01*
X135622380Y-45413333D01*
X135622380Y-45508571D01*
X135574761Y-45651428D01*
X135479523Y-45746666D01*
X135384285Y-45794285D01*
X135193809Y-45841904D01*
X135050952Y-45841904D01*
X134860476Y-45794285D01*
X134765238Y-45746666D01*
X134670000Y-45651428D01*
X134622380Y-45508571D01*
X134622380Y-45413333D01*
X134670000Y-45270476D01*
X134717619Y-45222857D01*
X135622380Y-44270476D02*
X135622380Y-44841904D01*
X135622380Y-44556190D02*
X134622380Y-44556190D01*
X134765238Y-44651428D01*
X134860476Y-44746666D01*
X134908095Y-44841904D01*
X134717619Y-43889523D02*
X134670000Y-43841904D01*
X134622380Y-43746666D01*
X134622380Y-43508571D01*
X134670000Y-43413333D01*
X134717619Y-43365714D01*
X134812857Y-43318095D01*
X134908095Y-43318095D01*
X135050952Y-43365714D01*
X135622380Y-43937142D01*
X135622380Y-43318095D01*
X146449142Y-57922857D02*
X146496761Y-57970476D01*
X146544380Y-58113333D01*
X146544380Y-58208571D01*
X146496761Y-58351428D01*
X146401523Y-58446666D01*
X146306285Y-58494285D01*
X146115809Y-58541904D01*
X145972952Y-58541904D01*
X145782476Y-58494285D01*
X145687238Y-58446666D01*
X145592000Y-58351428D01*
X145544380Y-58208571D01*
X145544380Y-58113333D01*
X145592000Y-57970476D01*
X145639619Y-57922857D01*
X146544380Y-56970476D02*
X146544380Y-57541904D01*
X146544380Y-57256190D02*
X145544380Y-57256190D01*
X145687238Y-57351428D01*
X145782476Y-57446666D01*
X145830095Y-57541904D01*
X145544380Y-56637142D02*
X145544380Y-56018095D01*
X145925333Y-56351428D01*
X145925333Y-56208571D01*
X145972952Y-56113333D01*
X146020571Y-56065714D01*
X146115809Y-56018095D01*
X146353904Y-56018095D01*
X146449142Y-56065714D01*
X146496761Y-56113333D01*
X146544380Y-56208571D01*
X146544380Y-56494285D01*
X146496761Y-56589523D01*
X146449142Y-56637142D01*
X146449142Y-62872857D02*
X146496761Y-62920476D01*
X146544380Y-63063333D01*
X146544380Y-63158571D01*
X146496761Y-63301428D01*
X146401523Y-63396666D01*
X146306285Y-63444285D01*
X146115809Y-63491904D01*
X145972952Y-63491904D01*
X145782476Y-63444285D01*
X145687238Y-63396666D01*
X145592000Y-63301428D01*
X145544380Y-63158571D01*
X145544380Y-63063333D01*
X145592000Y-62920476D01*
X145639619Y-62872857D01*
X146544380Y-61920476D02*
X146544380Y-62491904D01*
X146544380Y-62206190D02*
X145544380Y-62206190D01*
X145687238Y-62301428D01*
X145782476Y-62396666D01*
X145830095Y-62491904D01*
X145877714Y-61063333D02*
X146544380Y-61063333D01*
X145496761Y-61301428D02*
X146211047Y-61539523D01*
X146211047Y-60920476D01*
X158107142Y-54417142D02*
X158059523Y-54464761D01*
X157916666Y-54512380D01*
X157821428Y-54512380D01*
X157678571Y-54464761D01*
X157583333Y-54369523D01*
X157535714Y-54274285D01*
X157488095Y-54083809D01*
X157488095Y-53940952D01*
X157535714Y-53750476D01*
X157583333Y-53655238D01*
X157678571Y-53560000D01*
X157821428Y-53512380D01*
X157916666Y-53512380D01*
X158059523Y-53560000D01*
X158107142Y-53607619D01*
X159059523Y-54512380D02*
X158488095Y-54512380D01*
X158773809Y-54512380D02*
X158773809Y-53512380D01*
X158678571Y-53655238D01*
X158583333Y-53750476D01*
X158488095Y-53798095D01*
X159964285Y-53512380D02*
X159488095Y-53512380D01*
X159440476Y-53988571D01*
X159488095Y-53940952D01*
X159583333Y-53893333D01*
X159821428Y-53893333D01*
X159916666Y-53940952D01*
X159964285Y-53988571D01*
X160011904Y-54083809D01*
X160011904Y-54321904D01*
X159964285Y-54417142D01*
X159916666Y-54464761D01*
X159821428Y-54512380D01*
X159583333Y-54512380D01*
X159488095Y-54464761D01*
X159440476Y-54417142D01*
X157287142Y-65412857D02*
X157334761Y-65460476D01*
X157382380Y-65603333D01*
X157382380Y-65698571D01*
X157334761Y-65841428D01*
X157239523Y-65936666D01*
X157144285Y-65984285D01*
X156953809Y-66031904D01*
X156810952Y-66031904D01*
X156620476Y-65984285D01*
X156525238Y-65936666D01*
X156430000Y-65841428D01*
X156382380Y-65698571D01*
X156382380Y-65603333D01*
X156430000Y-65460476D01*
X156477619Y-65412857D01*
X157382380Y-64460476D02*
X157382380Y-65031904D01*
X157382380Y-64746190D02*
X156382380Y-64746190D01*
X156525238Y-64841428D01*
X156620476Y-64936666D01*
X156668095Y-65031904D01*
X156382380Y-63603333D02*
X156382380Y-63793809D01*
X156430000Y-63889047D01*
X156477619Y-63936666D01*
X156620476Y-64031904D01*
X156810952Y-64079523D01*
X157191904Y-64079523D01*
X157287142Y-64031904D01*
X157334761Y-63984285D01*
X157382380Y-63889047D01*
X157382380Y-63698571D01*
X157334761Y-63603333D01*
X157287142Y-63555714D01*
X157191904Y-63508095D01*
X156953809Y-63508095D01*
X156858571Y-63555714D01*
X156810952Y-63603333D01*
X156763333Y-63698571D01*
X156763333Y-63889047D01*
X156810952Y-63984285D01*
X156858571Y-64031904D01*
X156953809Y-64079523D01*
X99591904Y-53242380D02*
X99591904Y-52242380D01*
X99830000Y-52242380D01*
X99972857Y-52290000D01*
X100068095Y-52385238D01*
X100115714Y-52480476D01*
X100163333Y-52670952D01*
X100163333Y-52813809D01*
X100115714Y-53004285D01*
X100068095Y-53099523D01*
X99972857Y-53194761D01*
X99830000Y-53242380D01*
X99591904Y-53242380D01*
X101115714Y-53242380D02*
X100544285Y-53242380D01*
X100830000Y-53242380D02*
X100830000Y-52242380D01*
X100734761Y-52385238D01*
X100639523Y-52480476D01*
X100544285Y-52528095D01*
X99591904Y-57052380D02*
X99591904Y-56052380D01*
X99830000Y-56052380D01*
X99972857Y-56100000D01*
X100068095Y-56195238D01*
X100115714Y-56290476D01*
X100163333Y-56480952D01*
X100163333Y-56623809D01*
X100115714Y-56814285D01*
X100068095Y-56909523D01*
X99972857Y-57004761D01*
X99830000Y-57052380D01*
X99591904Y-57052380D01*
X100544285Y-56147619D02*
X100591904Y-56100000D01*
X100687142Y-56052380D01*
X100925238Y-56052380D01*
X101020476Y-56100000D01*
X101068095Y-56147619D01*
X101115714Y-56242857D01*
X101115714Y-56338095D01*
X101068095Y-56480952D01*
X100496666Y-57052380D01*
X101115714Y-57052380D01*
X99591904Y-60862380D02*
X99591904Y-59862380D01*
X99830000Y-59862380D01*
X99972857Y-59910000D01*
X100068095Y-60005238D01*
X100115714Y-60100476D01*
X100163333Y-60290952D01*
X100163333Y-60433809D01*
X100115714Y-60624285D01*
X100068095Y-60719523D01*
X99972857Y-60814761D01*
X99830000Y-60862380D01*
X99591904Y-60862380D01*
X100496666Y-59862380D02*
X101115714Y-59862380D01*
X100782380Y-60243333D01*
X100925238Y-60243333D01*
X101020476Y-60290952D01*
X101068095Y-60338571D01*
X101115714Y-60433809D01*
X101115714Y-60671904D01*
X101068095Y-60767142D01*
X101020476Y-60814761D01*
X100925238Y-60862380D01*
X100639523Y-60862380D01*
X100544285Y-60814761D01*
X100496666Y-60767142D01*
D15*
X144084523Y-38077380D02*
X142814523Y-38077380D01*
X142814523Y-37775000D01*
X142875000Y-37593571D01*
X142995952Y-37472619D01*
X143116904Y-37412142D01*
X143358809Y-37351666D01*
X143540238Y-37351666D01*
X143782142Y-37412142D01*
X143903095Y-37472619D01*
X144024047Y-37593571D01*
X144084523Y-37775000D01*
X144084523Y-38077380D01*
X143237857Y-36263095D02*
X144084523Y-36263095D01*
X142754047Y-36565476D02*
X143661190Y-36867857D01*
X143661190Y-36081666D01*
X114874523Y-37767380D02*
X113604523Y-37767380D01*
X113604523Y-37465000D01*
X113665000Y-37283571D01*
X113785952Y-37162619D01*
X113906904Y-37102142D01*
X114148809Y-37041666D01*
X114330238Y-37041666D01*
X114572142Y-37102142D01*
X114693095Y-37162619D01*
X114814047Y-37283571D01*
X114874523Y-37465000D01*
X114874523Y-37767380D01*
X113604523Y-35892619D02*
X113604523Y-36497380D01*
X114209285Y-36557857D01*
X114148809Y-36497380D01*
X114088333Y-36376428D01*
X114088333Y-36074047D01*
X114148809Y-35953095D01*
X114209285Y-35892619D01*
X114330238Y-35832142D01*
X114632619Y-35832142D01*
X114753571Y-35892619D01*
X114814047Y-35953095D01*
X114874523Y-36074047D01*
X114874523Y-36376428D01*
X114814047Y-36497380D01*
X114753571Y-36557857D01*
D11*
X113561904Y-50532380D02*
X113561904Y-49532380D01*
X113800000Y-49532380D01*
X113942857Y-49580000D01*
X114038095Y-49675238D01*
X114085714Y-49770476D01*
X114133333Y-49960952D01*
X114133333Y-50103809D01*
X114085714Y-50294285D01*
X114038095Y-50389523D01*
X113942857Y-50484761D01*
X113800000Y-50532380D01*
X113561904Y-50532380D01*
X114990476Y-49532380D02*
X114800000Y-49532380D01*
X114704761Y-49580000D01*
X114657142Y-49627619D01*
X114561904Y-49770476D01*
X114514285Y-49960952D01*
X114514285Y-50341904D01*
X114561904Y-50437142D01*
X114609523Y-50484761D01*
X114704761Y-50532380D01*
X114895238Y-50532380D01*
X114990476Y-50484761D01*
X115038095Y-50437142D01*
X115085714Y-50341904D01*
X115085714Y-50103809D01*
X115038095Y-50008571D01*
X114990476Y-49960952D01*
X114895238Y-49913333D01*
X114704761Y-49913333D01*
X114609523Y-49960952D01*
X114561904Y-50008571D01*
X114514285Y-50103809D01*
D15*
X141302619Y-51374523D02*
X141302619Y-50104523D01*
X141605000Y-50104523D01*
X141786428Y-50165000D01*
X141907380Y-50285952D01*
X141967857Y-50406904D01*
X142028333Y-50648809D01*
X142028333Y-50830238D01*
X141967857Y-51072142D01*
X141907380Y-51193095D01*
X141786428Y-51314047D01*
X141605000Y-51374523D01*
X141302619Y-51374523D01*
X142451666Y-50104523D02*
X143298333Y-50104523D01*
X142754047Y-51374523D01*
X155272619Y-71694523D02*
X155272619Y-70424523D01*
X155575000Y-70424523D01*
X155756428Y-70485000D01*
X155877380Y-70605952D01*
X155937857Y-70726904D01*
X155998333Y-70968809D01*
X155998333Y-71150238D01*
X155937857Y-71392142D01*
X155877380Y-71513095D01*
X155756428Y-71634047D01*
X155575000Y-71694523D01*
X155272619Y-71694523D01*
X156724047Y-70968809D02*
X156603095Y-70908333D01*
X156542619Y-70847857D01*
X156482142Y-70726904D01*
X156482142Y-70666428D01*
X156542619Y-70545476D01*
X156603095Y-70485000D01*
X156724047Y-70424523D01*
X156965952Y-70424523D01*
X157086904Y-70485000D01*
X157147380Y-70545476D01*
X157207857Y-70666428D01*
X157207857Y-70726904D01*
X157147380Y-70847857D01*
X157086904Y-70908333D01*
X156965952Y-70968809D01*
X156724047Y-70968809D01*
X156603095Y-71029285D01*
X156542619Y-71089761D01*
X156482142Y-71210714D01*
X156482142Y-71452619D01*
X156542619Y-71573571D01*
X156603095Y-71634047D01*
X156724047Y-71694523D01*
X156965952Y-71694523D01*
X157086904Y-71634047D01*
X157147380Y-71573571D01*
X157207857Y-71452619D01*
X157207857Y-71210714D01*
X157147380Y-71089761D01*
X157086904Y-71029285D01*
X156965952Y-70968809D01*
D11*
X74308571Y-61793333D02*
X74308571Y-62126666D01*
X74832380Y-62126666D02*
X73832380Y-62126666D01*
X73832380Y-61650476D01*
X74308571Y-60936190D02*
X74356190Y-60793333D01*
X74403809Y-60745714D01*
X74499047Y-60698095D01*
X74641904Y-60698095D01*
X74737142Y-60745714D01*
X74784761Y-60793333D01*
X74832380Y-60888571D01*
X74832380Y-61269523D01*
X73832380Y-61269523D01*
X73832380Y-60936190D01*
X73880000Y-60840952D01*
X73927619Y-60793333D01*
X74022857Y-60745714D01*
X74118095Y-60745714D01*
X74213333Y-60793333D01*
X74260952Y-60840952D01*
X74308571Y-60936190D01*
X74308571Y-61269523D01*
X74832380Y-59745714D02*
X74832380Y-60317142D01*
X74832380Y-60031428D02*
X73832380Y-60031428D01*
X73975238Y-60126666D01*
X74070476Y-60221904D01*
X74118095Y-60317142D01*
D15*
X76774523Y-41879761D02*
X75504523Y-41879761D01*
X76653571Y-40549285D02*
X76714047Y-40609761D01*
X76774523Y-40791190D01*
X76774523Y-40912142D01*
X76714047Y-41093571D01*
X76593095Y-41214523D01*
X76472142Y-41275000D01*
X76230238Y-41335476D01*
X76048809Y-41335476D01*
X75806904Y-41275000D01*
X75685952Y-41214523D01*
X75565000Y-41093571D01*
X75504523Y-40912142D01*
X75504523Y-40791190D01*
X75565000Y-40609761D01*
X75625476Y-40549285D01*
X76774523Y-39339761D02*
X76774523Y-40065476D01*
X76774523Y-39702619D02*
X75504523Y-39702619D01*
X75685952Y-39823571D01*
X75806904Y-39944523D01*
X75867380Y-40065476D01*
X81854523Y-41879761D02*
X80584523Y-41879761D01*
X81733571Y-40549285D02*
X81794047Y-40609761D01*
X81854523Y-40791190D01*
X81854523Y-40912142D01*
X81794047Y-41093571D01*
X81673095Y-41214523D01*
X81552142Y-41275000D01*
X81310238Y-41335476D01*
X81128809Y-41335476D01*
X80886904Y-41275000D01*
X80765952Y-41214523D01*
X80645000Y-41093571D01*
X80584523Y-40912142D01*
X80584523Y-40791190D01*
X80645000Y-40609761D01*
X80705476Y-40549285D01*
X80705476Y-40065476D02*
X80645000Y-40005000D01*
X80584523Y-39884047D01*
X80584523Y-39581666D01*
X80645000Y-39460714D01*
X80705476Y-39400238D01*
X80826428Y-39339761D01*
X80947380Y-39339761D01*
X81128809Y-39400238D01*
X81854523Y-40125952D01*
X81854523Y-39339761D01*
D11*
X117133809Y-62622380D02*
X117133809Y-61622380D01*
X118181428Y-62527142D02*
X118133809Y-62574761D01*
X117990952Y-62622380D01*
X117895714Y-62622380D01*
X117752857Y-62574761D01*
X117657619Y-62479523D01*
X117610000Y-62384285D01*
X117562380Y-62193809D01*
X117562380Y-62050952D01*
X117610000Y-61860476D01*
X117657619Y-61765238D01*
X117752857Y-61670000D01*
X117895714Y-61622380D01*
X117990952Y-61622380D01*
X118133809Y-61670000D01*
X118181428Y-61717619D01*
X118514761Y-61622380D02*
X119133809Y-61622380D01*
X118800476Y-62003333D01*
X118943333Y-62003333D01*
X119038571Y-62050952D01*
X119086190Y-62098571D01*
X119133809Y-62193809D01*
X119133809Y-62431904D01*
X119086190Y-62527142D01*
X119038571Y-62574761D01*
X118943333Y-62622380D01*
X118657619Y-62622380D01*
X118562380Y-62574761D01*
X118514761Y-62527142D01*
D15*
X123220238Y-46294523D02*
X123220238Y-45024523D01*
X124550714Y-46173571D02*
X124490238Y-46234047D01*
X124308809Y-46294523D01*
X124187857Y-46294523D01*
X124006428Y-46234047D01*
X123885476Y-46113095D01*
X123825000Y-45992142D01*
X123764523Y-45750238D01*
X123764523Y-45568809D01*
X123825000Y-45326904D01*
X123885476Y-45205952D01*
X124006428Y-45085000D01*
X124187857Y-45024523D01*
X124308809Y-45024523D01*
X124490238Y-45085000D01*
X124550714Y-45145476D01*
X125639285Y-45447857D02*
X125639285Y-46294523D01*
X125336904Y-44964047D02*
X125034523Y-45871190D01*
X125820714Y-45871190D01*
D11*
X131742380Y-72723333D02*
X132456666Y-72723333D01*
X132599523Y-72770952D01*
X132694761Y-72866190D01*
X132742380Y-73009047D01*
X132742380Y-73104285D01*
X132742380Y-71723333D02*
X132742380Y-72294761D01*
X132742380Y-72009047D02*
X131742380Y-72009047D01*
X131885238Y-72104285D01*
X131980476Y-72199523D01*
X132028095Y-72294761D01*
X78406666Y-65392380D02*
X78406666Y-66106666D01*
X78359047Y-66249523D01*
X78263809Y-66344761D01*
X78120952Y-66392380D01*
X78025714Y-66392380D01*
X78835238Y-65487619D02*
X78882857Y-65440000D01*
X78978095Y-65392380D01*
X79216190Y-65392380D01*
X79311428Y-65440000D01*
X79359047Y-65487619D01*
X79406666Y-65582857D01*
X79406666Y-65678095D01*
X79359047Y-65820952D01*
X78787619Y-66392380D01*
X79406666Y-66392380D01*
X65706666Y-46212380D02*
X65706666Y-46926666D01*
X65659047Y-47069523D01*
X65563809Y-47164761D01*
X65420952Y-47212380D01*
X65325714Y-47212380D01*
X66087619Y-46212380D02*
X66706666Y-46212380D01*
X66373333Y-46593333D01*
X66516190Y-46593333D01*
X66611428Y-46640952D01*
X66659047Y-46688571D01*
X66706666Y-46783809D01*
X66706666Y-47021904D01*
X66659047Y-47117142D01*
X66611428Y-47164761D01*
X66516190Y-47212380D01*
X66230476Y-47212380D01*
X66135238Y-47164761D01*
X66087619Y-47117142D01*
X72056666Y-55562380D02*
X72056666Y-56276666D01*
X72009047Y-56419523D01*
X71913809Y-56514761D01*
X71770952Y-56562380D01*
X71675714Y-56562380D01*
X72961428Y-55895714D02*
X72961428Y-56562380D01*
X72723333Y-55514761D02*
X72485238Y-56229047D01*
X73104285Y-56229047D01*
X76636666Y-33212380D02*
X76636666Y-33926666D01*
X76589047Y-34069523D01*
X76493809Y-34164761D01*
X76350952Y-34212380D01*
X76255714Y-34212380D01*
X77112857Y-34212380D02*
X77112857Y-33212380D01*
X77493809Y-33212380D01*
X77589047Y-33260000D01*
X77636666Y-33307619D01*
X77684285Y-33402857D01*
X77684285Y-33545714D01*
X77636666Y-33640952D01*
X77589047Y-33688571D01*
X77493809Y-33736190D01*
X77112857Y-33736190D01*
X78636666Y-34212380D02*
X78065238Y-34212380D01*
X78350952Y-34212380D02*
X78350952Y-33212380D01*
X78255714Y-33355238D01*
X78160476Y-33450476D01*
X78065238Y-33498095D01*
X114282380Y-63093333D02*
X114996666Y-63093333D01*
X115139523Y-63140952D01*
X115234761Y-63236190D01*
X115282380Y-63379047D01*
X115282380Y-63474285D01*
X115282380Y-62617142D02*
X114282380Y-62617142D01*
X114282380Y-62236190D01*
X114330000Y-62140952D01*
X114377619Y-62093333D01*
X114472857Y-62045714D01*
X114615714Y-62045714D01*
X114710952Y-62093333D01*
X114758571Y-62140952D01*
X114806190Y-62236190D01*
X114806190Y-62617142D01*
X114377619Y-61664761D02*
X114330000Y-61617142D01*
X114282380Y-61521904D01*
X114282380Y-61283809D01*
X114330000Y-61188571D01*
X114377619Y-61140952D01*
X114472857Y-61093333D01*
X114568095Y-61093333D01*
X114710952Y-61140952D01*
X115282380Y-61712380D01*
X115282380Y-61093333D01*
X113482380Y-59374285D02*
X113482380Y-59945714D01*
X113482380Y-59660000D02*
X112482380Y-59660000D01*
X112625238Y-59755238D01*
X112720476Y-59850476D01*
X112768095Y-59945714D01*
X112482380Y-65193333D02*
X112482380Y-64574285D01*
X112863333Y-64907619D01*
X112863333Y-64764761D01*
X112910952Y-64669523D01*
X112958571Y-64621904D01*
X113053809Y-64574285D01*
X113291904Y-64574285D01*
X113387142Y-64621904D01*
X113434761Y-64669523D01*
X113482380Y-64764761D01*
X113482380Y-65050476D01*
X113434761Y-65145714D01*
X113387142Y-65193333D01*
X110682380Y-70683333D02*
X111396666Y-70683333D01*
X111539523Y-70730952D01*
X111634761Y-70826190D01*
X111682380Y-70969047D01*
X111682380Y-71064285D01*
X111682380Y-70207142D02*
X110682380Y-70207142D01*
X110682380Y-69826190D01*
X110730000Y-69730952D01*
X110777619Y-69683333D01*
X110872857Y-69635714D01*
X111015714Y-69635714D01*
X111110952Y-69683333D01*
X111158571Y-69730952D01*
X111206190Y-69826190D01*
X111206190Y-70207142D01*
X110682380Y-69302380D02*
X110682380Y-68683333D01*
X111063333Y-69016666D01*
X111063333Y-68873809D01*
X111110952Y-68778571D01*
X111158571Y-68730952D01*
X111253809Y-68683333D01*
X111491904Y-68683333D01*
X111587142Y-68730952D01*
X111634761Y-68778571D01*
X111682380Y-68873809D01*
X111682380Y-69159523D01*
X111634761Y-69254761D01*
X111587142Y-69302380D01*
X112482380Y-67583333D02*
X112482380Y-66964285D01*
X112863333Y-67297619D01*
X112863333Y-67154761D01*
X112910952Y-67059523D01*
X112958571Y-67011904D01*
X113053809Y-66964285D01*
X113291904Y-66964285D01*
X113387142Y-67011904D01*
X113434761Y-67059523D01*
X113482380Y-67154761D01*
X113482380Y-67440476D01*
X113434761Y-67535714D01*
X113387142Y-67583333D01*
X113482380Y-72164285D02*
X113482380Y-72735714D01*
X113482380Y-72450000D02*
X112482380Y-72450000D01*
X112625238Y-72545238D01*
X112720476Y-72640476D01*
X112768095Y-72735714D01*
X143702380Y-71303333D02*
X144416666Y-71303333D01*
X144559523Y-71350952D01*
X144654761Y-71446190D01*
X144702380Y-71589047D01*
X144702380Y-71684285D01*
X144702380Y-70827142D02*
X143702380Y-70827142D01*
X143702380Y-70446190D01*
X143750000Y-70350952D01*
X143797619Y-70303333D01*
X143892857Y-70255714D01*
X144035714Y-70255714D01*
X144130952Y-70303333D01*
X144178571Y-70350952D01*
X144226190Y-70446190D01*
X144226190Y-70827142D01*
X144035714Y-69398571D02*
X144702380Y-69398571D01*
X143654761Y-69636666D02*
X144369047Y-69874761D01*
X144369047Y-69255714D01*
X157602180Y-41378095D02*
X156602180Y-41378095D01*
X157602180Y-40806666D02*
X157030752Y-41235238D01*
X156602180Y-40806666D02*
X157173609Y-41378095D01*
X157602180Y-39854285D02*
X157602180Y-40425714D01*
X157602180Y-40140000D02*
X156602180Y-40140000D01*
X156745038Y-40235238D01*
X156840276Y-40330476D01*
X156887895Y-40425714D01*
X147222380Y-65066666D02*
X147222380Y-65542857D01*
X146222380Y-65542857D01*
X147222380Y-64209523D02*
X147222380Y-64780952D01*
X147222380Y-64495238D02*
X146222380Y-64495238D01*
X146365238Y-64590476D01*
X146460476Y-64685714D01*
X146508095Y-64780952D01*
X153062380Y-30019523D02*
X152062380Y-30019523D01*
X152776666Y-29686190D01*
X152062380Y-29352857D01*
X153062380Y-29352857D01*
X153062380Y-28352857D02*
X153062380Y-28924285D01*
X153062380Y-28638571D02*
X152062380Y-28638571D01*
X152205238Y-28733809D01*
X152300476Y-28829047D01*
X152348095Y-28924285D01*
D15*
X149587857Y-58994523D02*
X149587857Y-57724523D01*
X150071666Y-57724523D01*
X150192619Y-57785000D01*
X150253095Y-57845476D01*
X150313571Y-57966428D01*
X150313571Y-58147857D01*
X150253095Y-58268809D01*
X150192619Y-58329285D01*
X150071666Y-58389761D01*
X149587857Y-58389761D01*
X150797380Y-58934047D02*
X150978809Y-58994523D01*
X151281190Y-58994523D01*
X151402142Y-58934047D01*
X151462619Y-58873571D01*
X151523095Y-58752619D01*
X151523095Y-58631666D01*
X151462619Y-58510714D01*
X151402142Y-58450238D01*
X151281190Y-58389761D01*
X151039285Y-58329285D01*
X150918333Y-58268809D01*
X150857857Y-58208333D01*
X150797380Y-58087380D01*
X150797380Y-57966428D01*
X150857857Y-57845476D01*
X150918333Y-57785000D01*
X151039285Y-57724523D01*
X151341666Y-57724523D01*
X151523095Y-57785000D01*
X152732619Y-58994523D02*
X152006904Y-58994523D01*
X152369761Y-58994523D02*
X152369761Y-57724523D01*
X152248809Y-57905952D01*
X152127857Y-58026904D01*
X152006904Y-58087380D01*
X128149047Y-41335476D02*
X128028095Y-41275000D01*
X127907142Y-41154047D01*
X127725714Y-40972619D01*
X127604761Y-40912142D01*
X127483809Y-40912142D01*
X127544285Y-41214523D02*
X127423333Y-41154047D01*
X127302380Y-41033095D01*
X127241904Y-40791190D01*
X127241904Y-40367857D01*
X127302380Y-40125952D01*
X127423333Y-40005000D01*
X127544285Y-39944523D01*
X127786190Y-39944523D01*
X127907142Y-40005000D01*
X128028095Y-40125952D01*
X128088571Y-40367857D01*
X128088571Y-40791190D01*
X128028095Y-41033095D01*
X127907142Y-41154047D01*
X127786190Y-41214523D01*
X127544285Y-41214523D01*
X129298095Y-41214523D02*
X128572380Y-41214523D01*
X128935238Y-41214523D02*
X128935238Y-39944523D01*
X128814285Y-40125952D01*
X128693333Y-40246904D01*
X128572380Y-40307380D01*
X126425476Y-33140952D02*
X126365000Y-33261904D01*
X126244047Y-33382857D01*
X126062619Y-33564285D01*
X126002142Y-33685238D01*
X126002142Y-33806190D01*
X126304523Y-33745714D02*
X126244047Y-33866666D01*
X126123095Y-33987619D01*
X125881190Y-34048095D01*
X125457857Y-34048095D01*
X125215952Y-33987619D01*
X125095000Y-33866666D01*
X125034523Y-33745714D01*
X125034523Y-33503809D01*
X125095000Y-33382857D01*
X125215952Y-33261904D01*
X125457857Y-33201428D01*
X125881190Y-33201428D01*
X126123095Y-33261904D01*
X126244047Y-33382857D01*
X126304523Y-33503809D01*
X126304523Y-33745714D01*
X125155476Y-32717619D02*
X125095000Y-32657142D01*
X125034523Y-32536190D01*
X125034523Y-32233809D01*
X125095000Y-32112857D01*
X125155476Y-32052380D01*
X125276428Y-31991904D01*
X125397380Y-31991904D01*
X125578809Y-32052380D01*
X126304523Y-32778095D01*
X126304523Y-31991904D01*
D11*
X77303333Y-51802380D02*
X76970000Y-51326190D01*
X76731904Y-51802380D02*
X76731904Y-50802380D01*
X77112857Y-50802380D01*
X77208095Y-50850000D01*
X77255714Y-50897619D01*
X77303333Y-50992857D01*
X77303333Y-51135714D01*
X77255714Y-51230952D01*
X77208095Y-51278571D01*
X77112857Y-51326190D01*
X76731904Y-51326190D01*
X78255714Y-51802380D02*
X77684285Y-51802380D01*
X77970000Y-51802380D02*
X77970000Y-50802380D01*
X77874761Y-50945238D01*
X77779523Y-51040476D01*
X77684285Y-51088095D01*
X77303333Y-44352380D02*
X76970000Y-43876190D01*
X76731904Y-44352380D02*
X76731904Y-43352380D01*
X77112857Y-43352380D01*
X77208095Y-43400000D01*
X77255714Y-43447619D01*
X77303333Y-43542857D01*
X77303333Y-43685714D01*
X77255714Y-43780952D01*
X77208095Y-43828571D01*
X77112857Y-43876190D01*
X76731904Y-43876190D01*
X77684285Y-43447619D02*
X77731904Y-43400000D01*
X77827142Y-43352380D01*
X78065238Y-43352380D01*
X78160476Y-43400000D01*
X78208095Y-43447619D01*
X78255714Y-43542857D01*
X78255714Y-43638095D01*
X78208095Y-43780952D01*
X77636666Y-44352380D01*
X78255714Y-44352380D01*
X83552380Y-35726666D02*
X83076190Y-36060000D01*
X83552380Y-36298095D02*
X82552380Y-36298095D01*
X82552380Y-35917142D01*
X82600000Y-35821904D01*
X82647619Y-35774285D01*
X82742857Y-35726666D01*
X82885714Y-35726666D01*
X82980952Y-35774285D01*
X83028571Y-35821904D01*
X83076190Y-35917142D01*
X83076190Y-36298095D01*
X82552380Y-35393333D02*
X82552380Y-34774285D01*
X82933333Y-35107619D01*
X82933333Y-34964761D01*
X82980952Y-34869523D01*
X83028571Y-34821904D01*
X83123809Y-34774285D01*
X83361904Y-34774285D01*
X83457142Y-34821904D01*
X83504761Y-34869523D01*
X83552380Y-34964761D01*
X83552380Y-35250476D01*
X83504761Y-35345714D01*
X83457142Y-35393333D01*
X70953333Y-60862380D02*
X70620000Y-60386190D01*
X70381904Y-60862380D02*
X70381904Y-59862380D01*
X70762857Y-59862380D01*
X70858095Y-59910000D01*
X70905714Y-59957619D01*
X70953333Y-60052857D01*
X70953333Y-60195714D01*
X70905714Y-60290952D01*
X70858095Y-60338571D01*
X70762857Y-60386190D01*
X70381904Y-60386190D01*
X71810476Y-60195714D02*
X71810476Y-60862380D01*
X71572380Y-59814761D02*
X71334285Y-60529047D01*
X71953333Y-60529047D01*
X70953333Y-57052380D02*
X70620000Y-56576190D01*
X70381904Y-57052380D02*
X70381904Y-56052380D01*
X70762857Y-56052380D01*
X70858095Y-56100000D01*
X70905714Y-56147619D01*
X70953333Y-56242857D01*
X70953333Y-56385714D01*
X70905714Y-56480952D01*
X70858095Y-56528571D01*
X70762857Y-56576190D01*
X70381904Y-56576190D01*
X71858095Y-56052380D02*
X71381904Y-56052380D01*
X71334285Y-56528571D01*
X71381904Y-56480952D01*
X71477142Y-56433333D01*
X71715238Y-56433333D01*
X71810476Y-56480952D01*
X71858095Y-56528571D01*
X71905714Y-56623809D01*
X71905714Y-56861904D01*
X71858095Y-56957142D01*
X71810476Y-57004761D01*
X71715238Y-57052380D01*
X71477142Y-57052380D01*
X71381904Y-57004761D01*
X71334285Y-56957142D01*
X138035380Y-52617666D02*
X137559190Y-52951000D01*
X138035380Y-53189095D02*
X137035380Y-53189095D01*
X137035380Y-52808142D01*
X137083000Y-52712904D01*
X137130619Y-52665285D01*
X137225857Y-52617666D01*
X137368714Y-52617666D01*
X137463952Y-52665285D01*
X137511571Y-52712904D01*
X137559190Y-52808142D01*
X137559190Y-53189095D01*
X137035380Y-51760523D02*
X137035380Y-51951000D01*
X137083000Y-52046238D01*
X137130619Y-52093857D01*
X137273476Y-52189095D01*
X137463952Y-52236714D01*
X137844904Y-52236714D01*
X137940142Y-52189095D01*
X137987761Y-52141476D01*
X138035380Y-52046238D01*
X138035380Y-51855761D01*
X137987761Y-51760523D01*
X137940142Y-51712904D01*
X137844904Y-51665285D01*
X137606809Y-51665285D01*
X137511571Y-51712904D01*
X137463952Y-51760523D01*
X137416333Y-51855761D01*
X137416333Y-52046238D01*
X137463952Y-52141476D01*
X137511571Y-52189095D01*
X137606809Y-52236714D01*
X93813333Y-64672380D02*
X93480000Y-64196190D01*
X93241904Y-64672380D02*
X93241904Y-63672380D01*
X93622857Y-63672380D01*
X93718095Y-63720000D01*
X93765714Y-63767619D01*
X93813333Y-63862857D01*
X93813333Y-64005714D01*
X93765714Y-64100952D01*
X93718095Y-64148571D01*
X93622857Y-64196190D01*
X93241904Y-64196190D01*
X94146666Y-63672380D02*
X94813333Y-63672380D01*
X94384761Y-64672380D01*
X98893333Y-64672380D02*
X98560000Y-64196190D01*
X98321904Y-64672380D02*
X98321904Y-63672380D01*
X98702857Y-63672380D01*
X98798095Y-63720000D01*
X98845714Y-63767619D01*
X98893333Y-63862857D01*
X98893333Y-64005714D01*
X98845714Y-64100952D01*
X98798095Y-64148571D01*
X98702857Y-64196190D01*
X98321904Y-64196190D01*
X99464761Y-64100952D02*
X99369523Y-64053333D01*
X99321904Y-64005714D01*
X99274285Y-63910476D01*
X99274285Y-63862857D01*
X99321904Y-63767619D01*
X99369523Y-63720000D01*
X99464761Y-63672380D01*
X99655238Y-63672380D01*
X99750476Y-63720000D01*
X99798095Y-63767619D01*
X99845714Y-63862857D01*
X99845714Y-63910476D01*
X99798095Y-64005714D01*
X99750476Y-64053333D01*
X99655238Y-64100952D01*
X99464761Y-64100952D01*
X99369523Y-64148571D01*
X99321904Y-64196190D01*
X99274285Y-64291428D01*
X99274285Y-64481904D01*
X99321904Y-64577142D01*
X99369523Y-64624761D01*
X99464761Y-64672380D01*
X99655238Y-64672380D01*
X99750476Y-64624761D01*
X99798095Y-64577142D01*
X99845714Y-64481904D01*
X99845714Y-64291428D01*
X99798095Y-64196190D01*
X99750476Y-64148571D01*
X99655238Y-64100952D01*
X107783333Y-59422380D02*
X107450000Y-58946190D01*
X107211904Y-59422380D02*
X107211904Y-58422380D01*
X107592857Y-58422380D01*
X107688095Y-58470000D01*
X107735714Y-58517619D01*
X107783333Y-58612857D01*
X107783333Y-58755714D01*
X107735714Y-58850952D01*
X107688095Y-58898571D01*
X107592857Y-58946190D01*
X107211904Y-58946190D01*
X108259523Y-59422380D02*
X108450000Y-59422380D01*
X108545238Y-59374761D01*
X108592857Y-59327142D01*
X108688095Y-59184285D01*
X108735714Y-58993809D01*
X108735714Y-58612857D01*
X108688095Y-58517619D01*
X108640476Y-58470000D01*
X108545238Y-58422380D01*
X108354761Y-58422380D01*
X108259523Y-58470000D01*
X108211904Y-58517619D01*
X108164285Y-58612857D01*
X108164285Y-58850952D01*
X108211904Y-58946190D01*
X108259523Y-58993809D01*
X108354761Y-59041428D01*
X108545238Y-59041428D01*
X108640476Y-58993809D01*
X108688095Y-58946190D01*
X108735714Y-58850952D01*
X94607142Y-56882380D02*
X94273809Y-56406190D01*
X94035714Y-56882380D02*
X94035714Y-55882380D01*
X94416666Y-55882380D01*
X94511904Y-55930000D01*
X94559523Y-55977619D01*
X94607142Y-56072857D01*
X94607142Y-56215714D01*
X94559523Y-56310952D01*
X94511904Y-56358571D01*
X94416666Y-56406190D01*
X94035714Y-56406190D01*
X95559523Y-56882380D02*
X94988095Y-56882380D01*
X95273809Y-56882380D02*
X95273809Y-55882380D01*
X95178571Y-56025238D01*
X95083333Y-56120476D01*
X94988095Y-56168095D01*
X96178571Y-55882380D02*
X96273809Y-55882380D01*
X96369047Y-55930000D01*
X96416666Y-55977619D01*
X96464285Y-56072857D01*
X96511904Y-56263333D01*
X96511904Y-56501428D01*
X96464285Y-56691904D01*
X96416666Y-56787142D01*
X96369047Y-56834761D01*
X96273809Y-56882380D01*
X96178571Y-56882380D01*
X96083333Y-56834761D01*
X96035714Y-56787142D01*
X95988095Y-56691904D01*
X95940476Y-56501428D01*
X95940476Y-56263333D01*
X95988095Y-56072857D01*
X96035714Y-55977619D01*
X96083333Y-55930000D01*
X96178571Y-55882380D01*
X94607142Y-60692380D02*
X94273809Y-60216190D01*
X94035714Y-60692380D02*
X94035714Y-59692380D01*
X94416666Y-59692380D01*
X94511904Y-59740000D01*
X94559523Y-59787619D01*
X94607142Y-59882857D01*
X94607142Y-60025714D01*
X94559523Y-60120952D01*
X94511904Y-60168571D01*
X94416666Y-60216190D01*
X94035714Y-60216190D01*
X95559523Y-60692380D02*
X94988095Y-60692380D01*
X95273809Y-60692380D02*
X95273809Y-59692380D01*
X95178571Y-59835238D01*
X95083333Y-59930476D01*
X94988095Y-59978095D01*
X96511904Y-60692380D02*
X95940476Y-60692380D01*
X96226190Y-60692380D02*
X96226190Y-59692380D01*
X96130952Y-59835238D01*
X96035714Y-59930476D01*
X95940476Y-59978095D01*
X125087142Y-65772380D02*
X124753809Y-65296190D01*
X124515714Y-65772380D02*
X124515714Y-64772380D01*
X124896666Y-64772380D01*
X124991904Y-64820000D01*
X125039523Y-64867619D01*
X125087142Y-64962857D01*
X125087142Y-65105714D01*
X125039523Y-65200952D01*
X124991904Y-65248571D01*
X124896666Y-65296190D01*
X124515714Y-65296190D01*
X126039523Y-65772380D02*
X125468095Y-65772380D01*
X125753809Y-65772380D02*
X125753809Y-64772380D01*
X125658571Y-64915238D01*
X125563333Y-65010476D01*
X125468095Y-65058095D01*
X126420476Y-64867619D02*
X126468095Y-64820000D01*
X126563333Y-64772380D01*
X126801428Y-64772380D01*
X126896666Y-64820000D01*
X126944285Y-64867619D01*
X126991904Y-64962857D01*
X126991904Y-65058095D01*
X126944285Y-65200952D01*
X126372857Y-65772380D01*
X126991904Y-65772380D01*
X124957142Y-73392380D02*
X124623809Y-72916190D01*
X124385714Y-73392380D02*
X124385714Y-72392380D01*
X124766666Y-72392380D01*
X124861904Y-72440000D01*
X124909523Y-72487619D01*
X124957142Y-72582857D01*
X124957142Y-72725714D01*
X124909523Y-72820952D01*
X124861904Y-72868571D01*
X124766666Y-72916190D01*
X124385714Y-72916190D01*
X125909523Y-73392380D02*
X125338095Y-73392380D01*
X125623809Y-73392380D02*
X125623809Y-72392380D01*
X125528571Y-72535238D01*
X125433333Y-72630476D01*
X125338095Y-72678095D01*
X126242857Y-72392380D02*
X126861904Y-72392380D01*
X126528571Y-72773333D01*
X126671428Y-72773333D01*
X126766666Y-72820952D01*
X126814285Y-72868571D01*
X126861904Y-72963809D01*
X126861904Y-73201904D01*
X126814285Y-73297142D01*
X126766666Y-73344761D01*
X126671428Y-73392380D01*
X126385714Y-73392380D01*
X126290476Y-73344761D01*
X126242857Y-73297142D01*
X124957142Y-69582380D02*
X124623809Y-69106190D01*
X124385714Y-69582380D02*
X124385714Y-68582380D01*
X124766666Y-68582380D01*
X124861904Y-68630000D01*
X124909523Y-68677619D01*
X124957142Y-68772857D01*
X124957142Y-68915714D01*
X124909523Y-69010952D01*
X124861904Y-69058571D01*
X124766666Y-69106190D01*
X124385714Y-69106190D01*
X125909523Y-69582380D02*
X125338095Y-69582380D01*
X125623809Y-69582380D02*
X125623809Y-68582380D01*
X125528571Y-68725238D01*
X125433333Y-68820476D01*
X125338095Y-68868095D01*
X126766666Y-68915714D02*
X126766666Y-69582380D01*
X126528571Y-68534761D02*
X126290476Y-69249047D01*
X126909523Y-69249047D01*
X94607142Y-64502380D02*
X94273809Y-64026190D01*
X94035714Y-64502380D02*
X94035714Y-63502380D01*
X94416666Y-63502380D01*
X94511904Y-63550000D01*
X94559523Y-63597619D01*
X94607142Y-63692857D01*
X94607142Y-63835714D01*
X94559523Y-63930952D01*
X94511904Y-63978571D01*
X94416666Y-64026190D01*
X94035714Y-64026190D01*
X95559523Y-64502380D02*
X94988095Y-64502380D01*
X95273809Y-64502380D02*
X95273809Y-63502380D01*
X95178571Y-63645238D01*
X95083333Y-63740476D01*
X94988095Y-63788095D01*
X96464285Y-63502380D02*
X95988095Y-63502380D01*
X95940476Y-63978571D01*
X95988095Y-63930952D01*
X96083333Y-63883333D01*
X96321428Y-63883333D01*
X96416666Y-63930952D01*
X96464285Y-63978571D01*
X96511904Y-64073809D01*
X96511904Y-64311904D01*
X96464285Y-64407142D01*
X96416666Y-64454761D01*
X96321428Y-64502380D01*
X96083333Y-64502380D01*
X95988095Y-64454761D01*
X95940476Y-64407142D01*
X158652380Y-40142857D02*
X158176190Y-40476190D01*
X158652380Y-40714285D02*
X157652380Y-40714285D01*
X157652380Y-40333333D01*
X157700000Y-40238095D01*
X157747619Y-40190476D01*
X157842857Y-40142857D01*
X157985714Y-40142857D01*
X158080952Y-40190476D01*
X158128571Y-40238095D01*
X158176190Y-40333333D01*
X158176190Y-40714285D01*
X158652380Y-39190476D02*
X158652380Y-39761904D01*
X158652380Y-39476190D02*
X157652380Y-39476190D01*
X157795238Y-39571428D01*
X157890476Y-39666666D01*
X157938095Y-39761904D01*
X157652380Y-38333333D02*
X157652380Y-38523809D01*
X157700000Y-38619047D01*
X157747619Y-38666666D01*
X157890476Y-38761904D01*
X158080952Y-38809523D01*
X158461904Y-38809523D01*
X158557142Y-38761904D01*
X158604761Y-38714285D01*
X158652380Y-38619047D01*
X158652380Y-38428571D01*
X158604761Y-38333333D01*
X158557142Y-38285714D01*
X158461904Y-38238095D01*
X158223809Y-38238095D01*
X158128571Y-38285714D01*
X158080952Y-38333333D01*
X158033333Y-38428571D01*
X158033333Y-38619047D01*
X158080952Y-38714285D01*
X158128571Y-38761904D01*
X158223809Y-38809523D01*
X113657142Y-46722380D02*
X113323809Y-46246190D01*
X113085714Y-46722380D02*
X113085714Y-45722380D01*
X113466666Y-45722380D01*
X113561904Y-45770000D01*
X113609523Y-45817619D01*
X113657142Y-45912857D01*
X113657142Y-46055714D01*
X113609523Y-46150952D01*
X113561904Y-46198571D01*
X113466666Y-46246190D01*
X113085714Y-46246190D01*
X114609523Y-46722380D02*
X114038095Y-46722380D01*
X114323809Y-46722380D02*
X114323809Y-45722380D01*
X114228571Y-45865238D01*
X114133333Y-45960476D01*
X114038095Y-46008095D01*
X114942857Y-45722380D02*
X115609523Y-45722380D01*
X115180952Y-46722380D01*
X113657142Y-54342380D02*
X113323809Y-53866190D01*
X113085714Y-54342380D02*
X113085714Y-53342380D01*
X113466666Y-53342380D01*
X113561904Y-53390000D01*
X113609523Y-53437619D01*
X113657142Y-53532857D01*
X113657142Y-53675714D01*
X113609523Y-53770952D01*
X113561904Y-53818571D01*
X113466666Y-53866190D01*
X113085714Y-53866190D01*
X114609523Y-54342380D02*
X114038095Y-54342380D01*
X114323809Y-54342380D02*
X114323809Y-53342380D01*
X114228571Y-53485238D01*
X114133333Y-53580476D01*
X114038095Y-53628095D01*
X115180952Y-53770952D02*
X115085714Y-53723333D01*
X115038095Y-53675714D01*
X114990476Y-53580476D01*
X114990476Y-53532857D01*
X115038095Y-53437619D01*
X115085714Y-53390000D01*
X115180952Y-53342380D01*
X115371428Y-53342380D01*
X115466666Y-53390000D01*
X115514285Y-53437619D01*
X115561904Y-53532857D01*
X115561904Y-53580476D01*
X115514285Y-53675714D01*
X115466666Y-53723333D01*
X115371428Y-53770952D01*
X115180952Y-53770952D01*
X115085714Y-53818571D01*
X115038095Y-53866190D01*
X114990476Y-53961428D01*
X114990476Y-54151904D01*
X115038095Y-54247142D01*
X115085714Y-54294761D01*
X115180952Y-54342380D01*
X115371428Y-54342380D01*
X115466666Y-54294761D01*
X115514285Y-54247142D01*
X115561904Y-54151904D01*
X115561904Y-53961428D01*
X115514285Y-53866190D01*
X115466666Y-53818571D01*
X115371428Y-53770952D01*
X121277142Y-50702380D02*
X120943809Y-50226190D01*
X120705714Y-50702380D02*
X120705714Y-49702380D01*
X121086666Y-49702380D01*
X121181904Y-49750000D01*
X121229523Y-49797619D01*
X121277142Y-49892857D01*
X121277142Y-50035714D01*
X121229523Y-50130952D01*
X121181904Y-50178571D01*
X121086666Y-50226190D01*
X120705714Y-50226190D01*
X122229523Y-50702380D02*
X121658095Y-50702380D01*
X121943809Y-50702380D02*
X121943809Y-49702380D01*
X121848571Y-49845238D01*
X121753333Y-49940476D01*
X121658095Y-49988095D01*
X122705714Y-50702380D02*
X122896190Y-50702380D01*
X122991428Y-50654761D01*
X123039047Y-50607142D01*
X123134285Y-50464285D01*
X123181904Y-50273809D01*
X123181904Y-49892857D01*
X123134285Y-49797619D01*
X123086666Y-49750000D01*
X122991428Y-49702380D01*
X122800952Y-49702380D01*
X122705714Y-49750000D01*
X122658095Y-49797619D01*
X122610476Y-49892857D01*
X122610476Y-50130952D01*
X122658095Y-50226190D01*
X122705714Y-50273809D01*
X122800952Y-50321428D01*
X122991428Y-50321428D01*
X123086666Y-50273809D01*
X123134285Y-50226190D01*
X123181904Y-50130952D01*
X139432380Y-45092857D02*
X138956190Y-45426190D01*
X139432380Y-45664285D02*
X138432380Y-45664285D01*
X138432380Y-45283333D01*
X138480000Y-45188095D01*
X138527619Y-45140476D01*
X138622857Y-45092857D01*
X138765714Y-45092857D01*
X138860952Y-45140476D01*
X138908571Y-45188095D01*
X138956190Y-45283333D01*
X138956190Y-45664285D01*
X138527619Y-44711904D02*
X138480000Y-44664285D01*
X138432380Y-44569047D01*
X138432380Y-44330952D01*
X138480000Y-44235714D01*
X138527619Y-44188095D01*
X138622857Y-44140476D01*
X138718095Y-44140476D01*
X138860952Y-44188095D01*
X139432380Y-44759523D01*
X139432380Y-44140476D01*
X138432380Y-43521428D02*
X138432380Y-43426190D01*
X138480000Y-43330952D01*
X138527619Y-43283333D01*
X138622857Y-43235714D01*
X138813333Y-43188095D01*
X139051428Y-43188095D01*
X139241904Y-43235714D01*
X139337142Y-43283333D01*
X139384761Y-43330952D01*
X139432380Y-43426190D01*
X139432380Y-43521428D01*
X139384761Y-43616666D01*
X139337142Y-43664285D01*
X139241904Y-43711904D01*
X139051428Y-43759523D01*
X138813333Y-43759523D01*
X138622857Y-43711904D01*
X138527619Y-43664285D01*
X138480000Y-43616666D01*
X138432380Y-43521428D01*
X127757142Y-54342380D02*
X127423809Y-53866190D01*
X127185714Y-54342380D02*
X127185714Y-53342380D01*
X127566666Y-53342380D01*
X127661904Y-53390000D01*
X127709523Y-53437619D01*
X127757142Y-53532857D01*
X127757142Y-53675714D01*
X127709523Y-53770952D01*
X127661904Y-53818571D01*
X127566666Y-53866190D01*
X127185714Y-53866190D01*
X128138095Y-53437619D02*
X128185714Y-53390000D01*
X128280952Y-53342380D01*
X128519047Y-53342380D01*
X128614285Y-53390000D01*
X128661904Y-53437619D01*
X128709523Y-53532857D01*
X128709523Y-53628095D01*
X128661904Y-53770952D01*
X128090476Y-54342380D01*
X128709523Y-54342380D01*
X129661904Y-54342380D02*
X129090476Y-54342380D01*
X129376190Y-54342380D02*
X129376190Y-53342380D01*
X129280952Y-53485238D01*
X129185714Y-53580476D01*
X129090476Y-53628095D01*
X150357142Y-50702380D02*
X150023809Y-50226190D01*
X149785714Y-50702380D02*
X149785714Y-49702380D01*
X150166666Y-49702380D01*
X150261904Y-49750000D01*
X150309523Y-49797619D01*
X150357142Y-49892857D01*
X150357142Y-50035714D01*
X150309523Y-50130952D01*
X150261904Y-50178571D01*
X150166666Y-50226190D01*
X149785714Y-50226190D01*
X150738095Y-49797619D02*
X150785714Y-49750000D01*
X150880952Y-49702380D01*
X151119047Y-49702380D01*
X151214285Y-49750000D01*
X151261904Y-49797619D01*
X151309523Y-49892857D01*
X151309523Y-49988095D01*
X151261904Y-50130952D01*
X150690476Y-50702380D01*
X151309523Y-50702380D01*
X151690476Y-49797619D02*
X151738095Y-49750000D01*
X151833333Y-49702380D01*
X152071428Y-49702380D01*
X152166666Y-49750000D01*
X152214285Y-49797619D01*
X152261904Y-49892857D01*
X152261904Y-49988095D01*
X152214285Y-50130952D01*
X151642857Y-50702380D01*
X152261904Y-50702380D01*
X152302380Y-65412857D02*
X151826190Y-65746190D01*
X152302380Y-65984285D02*
X151302380Y-65984285D01*
X151302380Y-65603333D01*
X151350000Y-65508095D01*
X151397619Y-65460476D01*
X151492857Y-65412857D01*
X151635714Y-65412857D01*
X151730952Y-65460476D01*
X151778571Y-65508095D01*
X151826190Y-65603333D01*
X151826190Y-65984285D01*
X151397619Y-65031904D02*
X151350000Y-64984285D01*
X151302380Y-64889047D01*
X151302380Y-64650952D01*
X151350000Y-64555714D01*
X151397619Y-64508095D01*
X151492857Y-64460476D01*
X151588095Y-64460476D01*
X151730952Y-64508095D01*
X152302380Y-65079523D01*
X152302380Y-64460476D01*
X151302380Y-64127142D02*
X151302380Y-63508095D01*
X151683333Y-63841428D01*
X151683333Y-63698571D01*
X151730952Y-63603333D01*
X151778571Y-63555714D01*
X151873809Y-63508095D01*
X152111904Y-63508095D01*
X152207142Y-63555714D01*
X152254761Y-63603333D01*
X152302380Y-63698571D01*
X152302380Y-63984285D01*
X152254761Y-64079523D01*
X152207142Y-64127142D01*
X158237142Y-58322380D02*
X157903809Y-57846190D01*
X157665714Y-58322380D02*
X157665714Y-57322380D01*
X158046666Y-57322380D01*
X158141904Y-57370000D01*
X158189523Y-57417619D01*
X158237142Y-57512857D01*
X158237142Y-57655714D01*
X158189523Y-57750952D01*
X158141904Y-57798571D01*
X158046666Y-57846190D01*
X157665714Y-57846190D01*
X158618095Y-57417619D02*
X158665714Y-57370000D01*
X158760952Y-57322380D01*
X158999047Y-57322380D01*
X159094285Y-57370000D01*
X159141904Y-57417619D01*
X159189523Y-57512857D01*
X159189523Y-57608095D01*
X159141904Y-57750952D01*
X158570476Y-58322380D01*
X159189523Y-58322380D01*
X160046666Y-57655714D02*
X160046666Y-58322380D01*
X159808571Y-57274761D02*
X159570476Y-57989047D01*
X160189523Y-57989047D01*
X154842380Y-51442857D02*
X154366190Y-51776190D01*
X154842380Y-52014285D02*
X153842380Y-52014285D01*
X153842380Y-51633333D01*
X153890000Y-51538095D01*
X153937619Y-51490476D01*
X154032857Y-51442857D01*
X154175714Y-51442857D01*
X154270952Y-51490476D01*
X154318571Y-51538095D01*
X154366190Y-51633333D01*
X154366190Y-52014285D01*
X153937619Y-51061904D02*
X153890000Y-51014285D01*
X153842380Y-50919047D01*
X153842380Y-50680952D01*
X153890000Y-50585714D01*
X153937619Y-50538095D01*
X154032857Y-50490476D01*
X154128095Y-50490476D01*
X154270952Y-50538095D01*
X154842380Y-51109523D01*
X154842380Y-50490476D01*
X153842380Y-49585714D02*
X153842380Y-50061904D01*
X154318571Y-50109523D01*
X154270952Y-50061904D01*
X154223333Y-49966666D01*
X154223333Y-49728571D01*
X154270952Y-49633333D01*
X154318571Y-49585714D01*
X154413809Y-49538095D01*
X154651904Y-49538095D01*
X154747142Y-49585714D01*
X154794761Y-49633333D01*
X154842380Y-49728571D01*
X154842380Y-49966666D01*
X154794761Y-50061904D01*
X154747142Y-50109523D01*
X158652380Y-51312857D02*
X158176190Y-51646190D01*
X158652380Y-51884285D02*
X157652380Y-51884285D01*
X157652380Y-51503333D01*
X157700000Y-51408095D01*
X157747619Y-51360476D01*
X157842857Y-51312857D01*
X157985714Y-51312857D01*
X158080952Y-51360476D01*
X158128571Y-51408095D01*
X158176190Y-51503333D01*
X158176190Y-51884285D01*
X157747619Y-50931904D02*
X157700000Y-50884285D01*
X157652380Y-50789047D01*
X157652380Y-50550952D01*
X157700000Y-50455714D01*
X157747619Y-50408095D01*
X157842857Y-50360476D01*
X157938095Y-50360476D01*
X158080952Y-50408095D01*
X158652380Y-50979523D01*
X158652380Y-50360476D01*
X157652380Y-49503333D02*
X157652380Y-49693809D01*
X157700000Y-49789047D01*
X157747619Y-49836666D01*
X157890476Y-49931904D01*
X158080952Y-49979523D01*
X158461904Y-49979523D01*
X158557142Y-49931904D01*
X158604761Y-49884285D01*
X158652380Y-49789047D01*
X158652380Y-49598571D01*
X158604761Y-49503333D01*
X158557142Y-49455714D01*
X158461904Y-49408095D01*
X158223809Y-49408095D01*
X158128571Y-49455714D01*
X158080952Y-49503333D01*
X158033333Y-49598571D01*
X158033333Y-49789047D01*
X158080952Y-49884285D01*
X158128571Y-49931904D01*
X158223809Y-49979523D01*
X110664761Y-30471904D02*
X110712380Y-30329047D01*
X110712380Y-30090952D01*
X110664761Y-29995714D01*
X110617142Y-29948095D01*
X110521904Y-29900476D01*
X110426666Y-29900476D01*
X110331428Y-29948095D01*
X110283809Y-29995714D01*
X110236190Y-30090952D01*
X110188571Y-30281428D01*
X110140952Y-30376666D01*
X110093333Y-30424285D01*
X109998095Y-30471904D01*
X109902857Y-30471904D01*
X109807619Y-30424285D01*
X109760000Y-30376666D01*
X109712380Y-30281428D01*
X109712380Y-30043333D01*
X109760000Y-29900476D01*
X110617142Y-28900476D02*
X110664761Y-28948095D01*
X110712380Y-29090952D01*
X110712380Y-29186190D01*
X110664761Y-29329047D01*
X110569523Y-29424285D01*
X110474285Y-29471904D01*
X110283809Y-29519523D01*
X110140952Y-29519523D01*
X109950476Y-29471904D01*
X109855238Y-29424285D01*
X109760000Y-29329047D01*
X109712380Y-29186190D01*
X109712380Y-29090952D01*
X109760000Y-28948095D01*
X109807619Y-28900476D01*
X110712380Y-27948095D02*
X110712380Y-28519523D01*
X110712380Y-28233809D02*
X109712380Y-28233809D01*
X109855238Y-28329047D01*
X109950476Y-28424285D01*
X109998095Y-28519523D01*
X65714761Y-32373333D02*
X65762380Y-32230476D01*
X65762380Y-31992380D01*
X65714761Y-31897142D01*
X65667142Y-31849523D01*
X65571904Y-31801904D01*
X65476666Y-31801904D01*
X65381428Y-31849523D01*
X65333809Y-31897142D01*
X65286190Y-31992380D01*
X65238571Y-32182857D01*
X65190952Y-32278095D01*
X65143333Y-32325714D01*
X65048095Y-32373333D01*
X64952857Y-32373333D01*
X64857619Y-32325714D01*
X64810000Y-32278095D01*
X64762380Y-32182857D01*
X64762380Y-31944761D01*
X64810000Y-31801904D01*
X64762380Y-31468571D02*
X65762380Y-31230476D01*
X65048095Y-31040000D01*
X65762380Y-30849523D01*
X64762380Y-30611428D01*
X65762380Y-29706666D02*
X65762380Y-30278095D01*
X65762380Y-29992380D02*
X64762380Y-29992380D01*
X64905238Y-30087619D01*
X65000476Y-30182857D01*
X65048095Y-30278095D01*
X65714761Y-42533333D02*
X65762380Y-42390476D01*
X65762380Y-42152380D01*
X65714761Y-42057142D01*
X65667142Y-42009523D01*
X65571904Y-41961904D01*
X65476666Y-41961904D01*
X65381428Y-42009523D01*
X65333809Y-42057142D01*
X65286190Y-42152380D01*
X65238571Y-42342857D01*
X65190952Y-42438095D01*
X65143333Y-42485714D01*
X65048095Y-42533333D01*
X64952857Y-42533333D01*
X64857619Y-42485714D01*
X64810000Y-42438095D01*
X64762380Y-42342857D01*
X64762380Y-42104761D01*
X64810000Y-41961904D01*
X64762380Y-41628571D02*
X65762380Y-41390476D01*
X65048095Y-41200000D01*
X65762380Y-41009523D01*
X64762380Y-40771428D01*
X64857619Y-40438095D02*
X64810000Y-40390476D01*
X64762380Y-40295238D01*
X64762380Y-40057142D01*
X64810000Y-39961904D01*
X64857619Y-39914285D01*
X64952857Y-39866666D01*
X65048095Y-39866666D01*
X65190952Y-39914285D01*
X65762380Y-40485714D01*
X65762380Y-39866666D01*
X84328095Y-52892380D02*
X84328095Y-53701904D01*
X84375714Y-53797142D01*
X84423333Y-53844761D01*
X84518571Y-53892380D01*
X84709047Y-53892380D01*
X84804285Y-53844761D01*
X84851904Y-53797142D01*
X84899523Y-53701904D01*
X84899523Y-52892380D01*
X85899523Y-53892380D02*
X85328095Y-53892380D01*
X85613809Y-53892380D02*
X85613809Y-52892380D01*
X85518571Y-53035238D01*
X85423333Y-53130476D01*
X85328095Y-53178095D01*
X84092380Y-51101904D02*
X84901904Y-51101904D01*
X84997142Y-51054285D01*
X85044761Y-51006666D01*
X85092380Y-50911428D01*
X85092380Y-50720952D01*
X85044761Y-50625714D01*
X84997142Y-50578095D01*
X84901904Y-50530476D01*
X84092380Y-50530476D01*
X84187619Y-50101904D02*
X84140000Y-50054285D01*
X84092380Y-49959047D01*
X84092380Y-49720952D01*
X84140000Y-49625714D01*
X84187619Y-49578095D01*
X84282857Y-49530476D01*
X84378095Y-49530476D01*
X84520952Y-49578095D01*
X85092380Y-50149523D01*
X85092380Y-49530476D01*
D15*
X117142380Y-69154523D02*
X117142380Y-70182619D01*
X117202857Y-70303571D01*
X117263333Y-70364047D01*
X117384285Y-70424523D01*
X117626190Y-70424523D01*
X117747142Y-70364047D01*
X117807619Y-70303571D01*
X117868095Y-70182619D01*
X117868095Y-69154523D01*
X118351904Y-69154523D02*
X119138095Y-69154523D01*
X118714761Y-69638333D01*
X118896190Y-69638333D01*
X119017142Y-69698809D01*
X119077619Y-69759285D01*
X119138095Y-69880238D01*
X119138095Y-70182619D01*
X119077619Y-70303571D01*
X119017142Y-70364047D01*
X118896190Y-70424523D01*
X118533333Y-70424523D01*
X118412380Y-70364047D01*
X118351904Y-70303571D01*
X156784523Y-48872019D02*
X157812619Y-48872019D01*
X157933571Y-48811542D01*
X157994047Y-48751066D01*
X158054523Y-48630114D01*
X158054523Y-48388209D01*
X157994047Y-48267257D01*
X157933571Y-48206780D01*
X157812619Y-48146304D01*
X156784523Y-48146304D01*
X157207857Y-46997257D02*
X158054523Y-46997257D01*
X156724047Y-47299638D02*
X157631190Y-47602019D01*
X157631190Y-46815828D01*
D11*
X132112380Y-64261904D02*
X132921904Y-64261904D01*
X133017142Y-64214285D01*
X133064761Y-64166666D01*
X133112380Y-64071428D01*
X133112380Y-63880952D01*
X133064761Y-63785714D01*
X133017142Y-63738095D01*
X132921904Y-63690476D01*
X132112380Y-63690476D01*
X132112380Y-62738095D02*
X132112380Y-63214285D01*
X132588571Y-63261904D01*
X132540952Y-63214285D01*
X132493333Y-63119047D01*
X132493333Y-62880952D01*
X132540952Y-62785714D01*
X132588571Y-62738095D01*
X132683809Y-62690476D01*
X132921904Y-62690476D01*
X133017142Y-62738095D01*
X133064761Y-62785714D01*
X133112380Y-62880952D01*
X133112380Y-63119047D01*
X133064761Y-63214285D01*
X133017142Y-63261904D01*
M02*
