M48
; DRILL file {KiCad (5.1.5)-3} date 2020/05/20 21:29:04
; FORMAT={-:-/ absolute / metric / decimal}
; #@! TF.CreationDate,2020-05-20T21:29:04+09:00
; #@! TF.GenerationSoftware,Kicad,Pcbnew,(5.1.5)-3
FMAT,2
METRIC
T1C0.400
T2C0.500
T3C0.600
T4C0.762
T5C1.000
T6C1.100
T7C0.650
%
G90
G05
T1
X68.326Y-62.357
X68.326Y-63.5
X68.326Y-112.357
X68.326Y-113.5
X68.707Y-59.944
X68.707Y-109.944
X68.961Y-48.26
X68.961Y-49.53
X68.961Y-98.26
X68.961Y-99.53
X69.012Y-56.5
X69.012Y-106.5
X69.094Y-64.14
X69.094Y-114.14
X69.215Y-36.195
X69.215Y-86.195
X69.596Y-55.499
X69.596Y-105.499
X70.739Y-47.371
X70.739Y-97.371
X70.744Y-48.392
X70.744Y-98.392
X70.993Y-36.195
X70.993Y-86.195
X71.606Y-56.224
X71.606Y-106.224
X72.326Y-56.918
X72.326Y-106.918
X74.041Y-58.547
X74.041Y-108.547
X74.078Y-47.879
X74.078Y-97.879
X74.33Y-64.04
X74.33Y-114.04
X74.422Y-55.88
X74.422Y-105.88
X75.311Y-37.982
X75.311Y-87.982
X75.311Y-36.957
X75.311Y-86.957
X75.528Y-51.915
X75.528Y-101.915
X75.873Y-57.468
X75.873Y-107.468
X76.073Y-53.594
X76.073Y-103.594
X76.454Y-56.388
X76.454Y-106.388
X76.778Y-64.376
X76.778Y-114.376
X76.835Y-52.07
X76.835Y-102.07
X76.941Y-55.003
X76.941Y-105.003
X77.31Y-58.12
X77.31Y-108.12
X77.343Y-38.444
X77.343Y-88.444
X77.731Y-65.223
X77.731Y-115.223
X77.895Y-52.056
X77.895Y-102.056
X78.079Y-60.35
X78.079Y-110.35
X78.197Y-57.659
X78.197Y-107.659
X78.236Y-59.362
X78.236Y-109.362
X78.291Y-54.288
X78.291Y-104.288
X78.447Y-56.106
X78.447Y-106.106
X78.69Y-65.506
X78.69Y-115.506
X78.892Y-52.266
X78.892Y-102.266
X79.236Y-59.294
X79.236Y-109.294
X79.248Y-37.719
X79.248Y-87.719
X79.615Y-57.09
X79.615Y-107.09
X79.815Y-52.996
X79.815Y-102.996
X79.956Y-66.606
X79.956Y-116.606
X81.661Y-48.387
X81.661Y-98.387
X81.915Y-53.213
X81.915Y-103.213
X82.872Y-48.201
X82.872Y-98.201
X83.312Y-34.544
X83.312Y-84.544
X83.579Y-48.908
X83.579Y-98.908
X84.328Y-40.513
X84.328Y-90.513
X85.852Y-67.056
X85.852Y-117.056
X86.868Y-67.945
X86.868Y-117.945
X88.379Y-66.815
X88.379Y-116.815
X90.805Y-56.64
X90.805Y-106.64
X90.952Y-59.283
X90.952Y-109.283
X90.968Y-60.733
X90.968Y-110.733
X91.104Y-64.325
X91.104Y-114.325
X91.567Y-61.722
X91.567Y-111.722
X91.577Y-58.502
X91.577Y-108.502
X91.593Y-56.025
X91.593Y-106.025
X92.038Y-63.161
X92.038Y-113.161
X92.075Y-53.086
X92.075Y-103.086
X92.175Y-55.211
X92.175Y-105.211
X92.636Y-64.031
X92.636Y-114.031
X92.964Y-60.071
X92.964Y-110.071
X93.472Y-56.388
X93.472Y-106.388
X96.52Y-67.753
X96.52Y-117.753
X100.547Y-68.035
X100.547Y-118.035
X103.378Y-67.945
X103.378Y-117.945
X103.632Y-62.484
X103.632Y-112.484
X105.156Y-74.168
X105.156Y-124.168
X106.553Y-49.784
X106.553Y-99.784
X106.875Y-39.81
X106.875Y-89.81
X106.907Y-38.699
X106.907Y-88.699
X109.22Y-45.085
X109.22Y-95.085
X109.728Y-50.8
X109.728Y-100.8
X110.654Y-53.34
X110.654Y-103.34
X110.871Y-73.406
X110.871Y-123.406
X111.379Y-55.118
X111.379Y-105.118
X113.03Y-59.563
X113.03Y-109.563
X113.093Y-72.855
X113.093Y-122.855
X114.374Y-62.428
X114.374Y-112.428
X115.099Y-65.589
X115.099Y-115.589
X115.316Y-61.468
X115.316Y-111.468
X115.824Y-62.738
X115.824Y-112.738
X117.348Y-44.45
X117.348Y-94.45
X117.602Y-67.31
X117.602Y-117.31
X117.851Y-62.235
X117.851Y-112.235
X119.052Y-67.61
X119.052Y-117.61
X120.083Y-62.289
X120.083Y-112.289
X120.142Y-44.45
X120.142Y-94.45
X121.158Y-61.722
X121.158Y-111.722
X121.359Y-66.324
X121.359Y-116.324
X122.174Y-69.85
X122.174Y-119.85
X122.809Y-66.167
X122.809Y-116.167
X124.841Y-54.229
X124.841Y-104.229
X125.857Y-40.64
X125.857Y-42.672
X125.857Y-90.64
X125.857Y-92.672
X127.762Y-48.26
X127.762Y-98.26
X127.889Y-54.356
X127.889Y-104.356
X128.555Y-55.102
X128.555Y-105.102
X128.646Y-49.017
X128.646Y-99.017
X129.032Y-46.99
X129.032Y-96.99
X130.937Y-73.914
X130.937Y-123.914
X132.457Y-51.177
X132.457Y-101.177
X133.858Y-31.75
X133.858Y-81.75
X134.46Y-69.574
X134.46Y-119.574
X138.43Y-69.088
X138.43Y-119.088
X140.745Y-69.185
X140.745Y-119.185
X141.351Y-46.736
X141.351Y-96.736
X143.002Y-31.496
X143.002Y-81.496
X145.949Y-59.857
X145.949Y-109.857
X146.558Y-57.59
X146.558Y-107.59
X146.812Y-63.5
X146.812Y-113.5
X146.812Y-58.76
X146.812Y-108.76
X148.082Y-51.562
X148.082Y-101.562
X150.622Y-67.31
X150.622Y-117.31
X155.702Y-63.246
X155.702Y-113.246
X155.829Y-60.325
X155.829Y-110.325
X75.94Y-119.8
X76.34Y-120.5
X77.14Y-120.5
X77.54Y-119.8
X77.94Y-120.5
X78.34Y-119.8
X79.14Y-119.8
X79.54Y-120.5
X79.94Y-119.8
X80.34Y-120.5
X81.14Y-120.5
X81.54Y-119.8
X75.94Y-69.8
X76.34Y-70.5
X77.14Y-70.5
X77.54Y-69.8
X77.94Y-70.5
X78.34Y-69.8
X79.14Y-69.8
X79.54Y-70.5
X79.94Y-69.8
X80.34Y-70.5
X81.14Y-70.5
X81.54Y-69.8
T4
X149.86Y-35.56
X149.86Y-38.1
X149.86Y-45.72
X154.94Y-35.56
X154.94Y-38.1
X154.94Y-45.72
X149.86Y-85.56
X149.86Y-88.1
X149.86Y-95.72
X154.94Y-85.56
X154.94Y-88.1
X154.94Y-95.72
T5
X142.24Y-29.21
X144.78Y-29.21
X154.94Y-29.21
X157.48Y-29.21
X66.04Y-99.53
X66.04Y-102.07
X66.04Y-104.61
X66.04Y-107.15
X66.04Y-109.69
X66.04Y-112.23
X66.04Y-114.77
X66.04Y-117.31
X66.04Y-119.85
X113.03Y-29.21
X115.57Y-29.21
X154.94Y-79.21
X157.48Y-79.21
X72.39Y-100.8
X72.39Y-103.34
X72.39Y-50.8
X72.39Y-53.34
X113.03Y-79.21
X115.57Y-79.21
X66.04Y-49.53
X66.04Y-52.07
X66.04Y-54.61
X66.04Y-57.15
X66.04Y-59.69
X66.04Y-62.23
X66.04Y-64.77
X66.04Y-67.31
X66.04Y-69.85
X134.62Y-72.39
X137.16Y-72.39
X139.7Y-72.39
X142.24Y-79.21
X144.78Y-79.21
X134.62Y-122.39
X137.16Y-122.39
X139.7Y-122.39
T6
X67.31Y-27.79
X67.31Y-34.29
X71.81Y-27.79
X71.81Y-34.29
X67.31Y-77.79
X67.31Y-84.29
X71.81Y-77.79
X71.81Y-84.29
X67.31Y-37.95
X67.31Y-44.45
X71.81Y-37.95
X71.81Y-44.45
X67.31Y-87.95
X67.31Y-94.45
X71.81Y-87.95
X71.81Y-94.45
T7
X75.14Y-119.15
X75.14Y-69.15
T1
G00X74.72Y-117.6
M15
G01X75.07Y-117.6
M16
G05
G00X82.41Y-117.6
M15
G01X82.76Y-117.6
M16
G05
G00X74.72Y-67.6
M15
G01X75.07Y-67.6
M16
G05
G00X82.41Y-67.6
M15
G01X82.76Y-67.6
M16
G05
T2
G00X74.24Y-122.415
M15
G01X74.24Y-123.415
M16
G05
G00X83.24Y-122.415
M15
G01X83.24Y-123.415
M16
G05
G00X74.24Y-72.415
M15
G01X74.24Y-73.415
M16
G05
G00X83.24Y-72.415
M15
G01X83.24Y-73.415
M16
G05
T3
G00X74.52Y-120.1
M15
G01X74.52Y-120.7
M16
G05
G00X82.96Y-120.1
M15
G01X82.96Y-120.7
M16
G05
G00X74.52Y-70.1
M15
G01X74.52Y-70.7
M16
G05
G00X82.96Y-70.1
M15
G01X82.96Y-70.7
M16
G05
T7
G00X82.19Y-119.15
M15
G01X82.49Y-119.15
M16
G05
G00X82.19Y-69.15
M15
G01X82.49Y-69.15
M16
G05
T0
M30
