G04 #@! TF.GenerationSoftware,KiCad,Pcbnew,(5.1.5)-3*
G04 #@! TF.CreationDate,2020-05-20T21:28:27+09:00*
G04 #@! TF.ProjectId,autoplanter,6175746f-706c-4616-9e74-65722e6b6963,rev?*
G04 #@! TF.SameCoordinates,Original*
G04 #@! TF.FileFunction,Soldermask,Bot*
G04 #@! TF.FilePolarity,Negative*
%FSLAX46Y46*%
G04 Gerber Fmt 4.6, Leading zero omitted, Abs format (unit mm)*
G04 Created by KiCad (PCBNEW (5.1.5)-3) date 2020-05-20 21:28:27*
%MOMM*%
%LPD*%
G04 APERTURE LIST*
%ADD10C,0.100000*%
G04 APERTURE END LIST*
D10*
G36*
X83338212Y-121921249D02*
G01*
X83432651Y-121949897D01*
X83519687Y-121996418D01*
X83595975Y-122059025D01*
X83658582Y-122135313D01*
X83705103Y-122222348D01*
X83733751Y-122316787D01*
X83741000Y-122390388D01*
X83741000Y-123439612D01*
X83733751Y-123513213D01*
X83705103Y-123607652D01*
X83658582Y-123694687D01*
X83595975Y-123770975D01*
X83519687Y-123833582D01*
X83432652Y-123880103D01*
X83338213Y-123908751D01*
X83240000Y-123918424D01*
X83141788Y-123908751D01*
X83047349Y-123880103D01*
X82960314Y-123833582D01*
X82884026Y-123770975D01*
X82821419Y-123694687D01*
X82774898Y-123607652D01*
X82746250Y-123513213D01*
X82739001Y-123439612D01*
X82739000Y-122390389D01*
X82746249Y-122316788D01*
X82774897Y-122222349D01*
X82821418Y-122135313D01*
X82884025Y-122059025D01*
X82960313Y-121996418D01*
X83047348Y-121949897D01*
X83141787Y-121921249D01*
X83240000Y-121911576D01*
X83338212Y-121921249D01*
G37*
G36*
X74338212Y-121921249D02*
G01*
X74432651Y-121949897D01*
X74519687Y-121996418D01*
X74595975Y-122059025D01*
X74658582Y-122135313D01*
X74705103Y-122222348D01*
X74733751Y-122316787D01*
X74741000Y-122390388D01*
X74741000Y-123439612D01*
X74733751Y-123513213D01*
X74705103Y-123607652D01*
X74658582Y-123694687D01*
X74595975Y-123770975D01*
X74519687Y-123833582D01*
X74432652Y-123880103D01*
X74338213Y-123908751D01*
X74240000Y-123918424D01*
X74141788Y-123908751D01*
X74047349Y-123880103D01*
X73960314Y-123833582D01*
X73884026Y-123770975D01*
X73821419Y-123694687D01*
X73774898Y-123607652D01*
X73746250Y-123513213D01*
X73739001Y-123439612D01*
X73739000Y-122390389D01*
X73746249Y-122316788D01*
X73774897Y-122222349D01*
X73821418Y-122135313D01*
X73884025Y-122059025D01*
X73960313Y-121996418D01*
X74047348Y-121949897D01*
X74141787Y-121921249D01*
X74240000Y-121911576D01*
X74338212Y-121921249D01*
G37*
G36*
X135521000Y-123291000D02*
G01*
X133719000Y-123291000D01*
X133719000Y-121489000D01*
X135521000Y-121489000D01*
X135521000Y-123291000D01*
G37*
G36*
X137273512Y-121493927D02*
G01*
X137422812Y-121523624D01*
X137586784Y-121591544D01*
X137734354Y-121690147D01*
X137859853Y-121815646D01*
X137958456Y-121963216D01*
X138026376Y-122127188D01*
X138061000Y-122301259D01*
X138061000Y-122478741D01*
X138026376Y-122652812D01*
X137958456Y-122816784D01*
X137859853Y-122964354D01*
X137734354Y-123089853D01*
X137586784Y-123188456D01*
X137422812Y-123256376D01*
X137273512Y-123286073D01*
X137248742Y-123291000D01*
X137071258Y-123291000D01*
X137046488Y-123286073D01*
X136897188Y-123256376D01*
X136733216Y-123188456D01*
X136585646Y-123089853D01*
X136460147Y-122964354D01*
X136361544Y-122816784D01*
X136293624Y-122652812D01*
X136259000Y-122478741D01*
X136259000Y-122301259D01*
X136293624Y-122127188D01*
X136361544Y-121963216D01*
X136460147Y-121815646D01*
X136585646Y-121690147D01*
X136733216Y-121591544D01*
X136897188Y-121523624D01*
X137046488Y-121493927D01*
X137071258Y-121489000D01*
X137248742Y-121489000D01*
X137273512Y-121493927D01*
G37*
G36*
X139813512Y-121493927D02*
G01*
X139962812Y-121523624D01*
X140126784Y-121591544D01*
X140274354Y-121690147D01*
X140399853Y-121815646D01*
X140498456Y-121963216D01*
X140566376Y-122127188D01*
X140601000Y-122301259D01*
X140601000Y-122478741D01*
X140566376Y-122652812D01*
X140498456Y-122816784D01*
X140399853Y-122964354D01*
X140274354Y-123089853D01*
X140126784Y-123188456D01*
X139962812Y-123256376D01*
X139813512Y-123286073D01*
X139788742Y-123291000D01*
X139611258Y-123291000D01*
X139586488Y-123286073D01*
X139437188Y-123256376D01*
X139273216Y-123188456D01*
X139125646Y-123089853D01*
X139000147Y-122964354D01*
X138901544Y-122816784D01*
X138833624Y-122652812D01*
X138799000Y-122478741D01*
X138799000Y-122301259D01*
X138833624Y-122127188D01*
X138901544Y-121963216D01*
X139000147Y-121815646D01*
X139125646Y-121690147D01*
X139273216Y-121591544D01*
X139437188Y-121523624D01*
X139586488Y-121493927D01*
X139611258Y-121489000D01*
X139788742Y-121489000D01*
X139813512Y-121493927D01*
G37*
G36*
X75249672Y-118788449D02*
G01*
X75249674Y-118788450D01*
X75249675Y-118788450D01*
X75318103Y-118816793D01*
X75379686Y-118857942D01*
X75432058Y-118910314D01*
X75473207Y-118971897D01*
X75487090Y-119005415D01*
X75501551Y-119040328D01*
X75516000Y-119112966D01*
X75516000Y-119187034D01*
X75508705Y-119223709D01*
X75501550Y-119259675D01*
X75473207Y-119328103D01*
X75432058Y-119389686D01*
X75379686Y-119442058D01*
X75318103Y-119483207D01*
X75249675Y-119511550D01*
X75249674Y-119511550D01*
X75249672Y-119511551D01*
X75177034Y-119526000D01*
X75102966Y-119526000D01*
X75037790Y-119513036D01*
X75013403Y-119510634D01*
X74989017Y-119513036D01*
X74965568Y-119520149D01*
X74943958Y-119531700D01*
X74925016Y-119547246D01*
X74909471Y-119566188D01*
X74897920Y-119587798D01*
X74890807Y-119611247D01*
X74888405Y-119635634D01*
X74890807Y-119660020D01*
X74897920Y-119683469D01*
X74909471Y-119705079D01*
X74916766Y-119714915D01*
X74980356Y-119792400D01*
X75031521Y-119888121D01*
X75063027Y-119991985D01*
X75071000Y-120072933D01*
X75071000Y-120727067D01*
X75063027Y-120808015D01*
X75031521Y-120911879D01*
X75031519Y-120911882D01*
X74980357Y-121007600D01*
X74911501Y-121091501D01*
X74827600Y-121160357D01*
X74759055Y-121196995D01*
X74731879Y-121211521D01*
X74628015Y-121243027D01*
X74520000Y-121253666D01*
X74411986Y-121243027D01*
X74308122Y-121211521D01*
X74280946Y-121196995D01*
X74212401Y-121160357D01*
X74128500Y-121091501D01*
X74059645Y-121007601D01*
X74008480Y-120911879D01*
X73984615Y-120833206D01*
X73976973Y-120808015D01*
X73969000Y-120727067D01*
X73969000Y-120072934D01*
X73976973Y-119991986D01*
X74008479Y-119888122D01*
X74059644Y-119792400D01*
X74128499Y-119708499D01*
X74212400Y-119639644D01*
X74212399Y-119639644D01*
X74212401Y-119639643D01*
X74285069Y-119600801D01*
X74308121Y-119588479D01*
X74411985Y-119556973D01*
X74520000Y-119546334D01*
X74628014Y-119556973D01*
X74709753Y-119581768D01*
X74733773Y-119586545D01*
X74758277Y-119586545D01*
X74782310Y-119581765D01*
X74804949Y-119572387D01*
X74825324Y-119558774D01*
X74842651Y-119541446D01*
X74856264Y-119521072D01*
X74865642Y-119498433D01*
X74870422Y-119474400D01*
X74870422Y-119449896D01*
X74865642Y-119425863D01*
X74856264Y-119403224D01*
X74849958Y-119392702D01*
X74847944Y-119389688D01*
X74847942Y-119389686D01*
X74806793Y-119328103D01*
X74778450Y-119259675D01*
X74771296Y-119223709D01*
X74764000Y-119187034D01*
X74764000Y-119112966D01*
X74778449Y-119040328D01*
X74792910Y-119005415D01*
X74806793Y-118971897D01*
X74847942Y-118910314D01*
X74900314Y-118857942D01*
X74961897Y-118816793D01*
X75030325Y-118788450D01*
X75030326Y-118788450D01*
X75030328Y-118788449D01*
X75102966Y-118774000D01*
X75177034Y-118774000D01*
X75249672Y-118788449D01*
G37*
G36*
X82563710Y-118779440D02*
G01*
X82634585Y-118800940D01*
X82699904Y-118835854D01*
X82757159Y-118882841D01*
X82804146Y-118940096D01*
X82839060Y-119005415D01*
X82860560Y-119076290D01*
X82867819Y-119150000D01*
X82860560Y-119223710D01*
X82839060Y-119294585D01*
X82800538Y-119366655D01*
X82791160Y-119389294D01*
X82786380Y-119413327D01*
X82786380Y-119437832D01*
X82791161Y-119461865D01*
X82800538Y-119484504D01*
X82814152Y-119504878D01*
X82831479Y-119522205D01*
X82851853Y-119535818D01*
X82874492Y-119545196D01*
X82898525Y-119549976D01*
X82923024Y-119549976D01*
X82960000Y-119546334D01*
X83068014Y-119556973D01*
X83171878Y-119588479D01*
X83194934Y-119600803D01*
X83267599Y-119639643D01*
X83267601Y-119639644D01*
X83267600Y-119639644D01*
X83351501Y-119708499D01*
X83420356Y-119792400D01*
X83471521Y-119888121D01*
X83503027Y-119991985D01*
X83511000Y-120072933D01*
X83511000Y-120727067D01*
X83503027Y-120808015D01*
X83471521Y-120911879D01*
X83471519Y-120911882D01*
X83420357Y-121007600D01*
X83351501Y-121091501D01*
X83267600Y-121160357D01*
X83199055Y-121196995D01*
X83171879Y-121211521D01*
X83068015Y-121243027D01*
X82960000Y-121253666D01*
X82851986Y-121243027D01*
X82748122Y-121211521D01*
X82720946Y-121196995D01*
X82652401Y-121160357D01*
X82568500Y-121091501D01*
X82499645Y-121007601D01*
X82448480Y-120911879D01*
X82424615Y-120833206D01*
X82416973Y-120808015D01*
X82409000Y-120727067D01*
X82409000Y-120072934D01*
X82416973Y-119991986D01*
X82448479Y-119888122D01*
X82499644Y-119792400D01*
X82550619Y-119730286D01*
X82564224Y-119709923D01*
X82573602Y-119687284D01*
X82578382Y-119663251D01*
X82578382Y-119638747D01*
X82573602Y-119614714D01*
X82564224Y-119592075D01*
X82550611Y-119571700D01*
X82533284Y-119554373D01*
X82512909Y-119540760D01*
X82490270Y-119531382D01*
X82453985Y-119526000D01*
X82171528Y-119526000D01*
X82116290Y-119520560D01*
X82043175Y-119498380D01*
X82019142Y-119493599D01*
X81994638Y-119493599D01*
X81970604Y-119498379D01*
X81947965Y-119507756D01*
X81927591Y-119521370D01*
X81910264Y-119538697D01*
X81896650Y-119559071D01*
X81887273Y-119581710D01*
X81882492Y-119605743D01*
X81882492Y-119630247D01*
X81887272Y-119654281D01*
X81891405Y-119665831D01*
X81901551Y-119690326D01*
X81916000Y-119762966D01*
X81916000Y-119837034D01*
X81905838Y-119888122D01*
X81901550Y-119909675D01*
X81873207Y-119978103D01*
X81832058Y-120039686D01*
X81779686Y-120092058D01*
X81718103Y-120133207D01*
X81659696Y-120157399D01*
X81649673Y-120161551D01*
X81574662Y-120176472D01*
X81551214Y-120183585D01*
X81529603Y-120195136D01*
X81510661Y-120210682D01*
X81495116Y-120229624D01*
X81483565Y-120251234D01*
X81476452Y-120274683D01*
X81474050Y-120299069D01*
X81476452Y-120323456D01*
X81483565Y-120346904D01*
X81501551Y-120390326D01*
X81516000Y-120462966D01*
X81516000Y-120537033D01*
X81501550Y-120609675D01*
X81473207Y-120678103D01*
X81432058Y-120739686D01*
X81379686Y-120792058D01*
X81318103Y-120833207D01*
X81249675Y-120861550D01*
X81249674Y-120861550D01*
X81249672Y-120861551D01*
X81177034Y-120876000D01*
X81102966Y-120876000D01*
X81030328Y-120861551D01*
X81030326Y-120861550D01*
X81030325Y-120861550D01*
X80961897Y-120833207D01*
X80900314Y-120792058D01*
X80847942Y-120739686D01*
X80843928Y-120733679D01*
X80828388Y-120714744D01*
X80809447Y-120699199D01*
X80787836Y-120687647D01*
X80764387Y-120680534D01*
X80740001Y-120678132D01*
X80715615Y-120680534D01*
X80692166Y-120687647D01*
X80670555Y-120699197D01*
X80651613Y-120714743D01*
X80636072Y-120733679D01*
X80632058Y-120739686D01*
X80579686Y-120792058D01*
X80518103Y-120833207D01*
X80449675Y-120861550D01*
X80449674Y-120861550D01*
X80449672Y-120861551D01*
X80377034Y-120876000D01*
X80302966Y-120876000D01*
X80230328Y-120861551D01*
X80230326Y-120861550D01*
X80230325Y-120861550D01*
X80161897Y-120833207D01*
X80100314Y-120792058D01*
X80047942Y-120739686D01*
X80043928Y-120733679D01*
X80028388Y-120714744D01*
X80009447Y-120699199D01*
X79987836Y-120687647D01*
X79964387Y-120680534D01*
X79940001Y-120678132D01*
X79915615Y-120680534D01*
X79892166Y-120687647D01*
X79870555Y-120699197D01*
X79851613Y-120714743D01*
X79836072Y-120733679D01*
X79832058Y-120739686D01*
X79779686Y-120792058D01*
X79718103Y-120833207D01*
X79649675Y-120861550D01*
X79649674Y-120861550D01*
X79649672Y-120861551D01*
X79577034Y-120876000D01*
X79502966Y-120876000D01*
X79430328Y-120861551D01*
X79430326Y-120861550D01*
X79430325Y-120861550D01*
X79361897Y-120833207D01*
X79300314Y-120792058D01*
X79247942Y-120739686D01*
X79206793Y-120678103D01*
X79178450Y-120609675D01*
X79164000Y-120537033D01*
X79164000Y-120462966D01*
X79178449Y-120390326D01*
X79196435Y-120346904D01*
X79203548Y-120323455D01*
X79205950Y-120299069D01*
X79203548Y-120274683D01*
X79196435Y-120251234D01*
X79184884Y-120229624D01*
X79169339Y-120210682D01*
X79150397Y-120195136D01*
X79128786Y-120183585D01*
X79105338Y-120176472D01*
X79030327Y-120161551D01*
X79020304Y-120157399D01*
X78961897Y-120133207D01*
X78900314Y-120092058D01*
X78847942Y-120039686D01*
X78843928Y-120033679D01*
X78828388Y-120014744D01*
X78809447Y-119999199D01*
X78787836Y-119987647D01*
X78764387Y-119980534D01*
X78740001Y-119978132D01*
X78715615Y-119980534D01*
X78692166Y-119987647D01*
X78670555Y-119999197D01*
X78651613Y-120014743D01*
X78636072Y-120033679D01*
X78632058Y-120039686D01*
X78579686Y-120092058D01*
X78518103Y-120133207D01*
X78459696Y-120157399D01*
X78449673Y-120161551D01*
X78374662Y-120176472D01*
X78351214Y-120183585D01*
X78329603Y-120195136D01*
X78310661Y-120210682D01*
X78295116Y-120229624D01*
X78283565Y-120251234D01*
X78276452Y-120274683D01*
X78274050Y-120299069D01*
X78276452Y-120323456D01*
X78283565Y-120346904D01*
X78301551Y-120390326D01*
X78316000Y-120462966D01*
X78316000Y-120537033D01*
X78301550Y-120609675D01*
X78273207Y-120678103D01*
X78232058Y-120739686D01*
X78179686Y-120792058D01*
X78118103Y-120833207D01*
X78049675Y-120861550D01*
X78049674Y-120861550D01*
X78049672Y-120861551D01*
X77977034Y-120876000D01*
X77902966Y-120876000D01*
X77830328Y-120861551D01*
X77830326Y-120861550D01*
X77830325Y-120861550D01*
X77761897Y-120833207D01*
X77700314Y-120792058D01*
X77647942Y-120739686D01*
X77643928Y-120733679D01*
X77628388Y-120714744D01*
X77609447Y-120699199D01*
X77587836Y-120687647D01*
X77564387Y-120680534D01*
X77540001Y-120678132D01*
X77515615Y-120680534D01*
X77492166Y-120687647D01*
X77470555Y-120699197D01*
X77451613Y-120714743D01*
X77436072Y-120733679D01*
X77432058Y-120739686D01*
X77379686Y-120792058D01*
X77318103Y-120833207D01*
X77249675Y-120861550D01*
X77249674Y-120861550D01*
X77249672Y-120861551D01*
X77177034Y-120876000D01*
X77102966Y-120876000D01*
X77030328Y-120861551D01*
X77030326Y-120861550D01*
X77030325Y-120861550D01*
X76961897Y-120833207D01*
X76900314Y-120792058D01*
X76847942Y-120739686D01*
X76843928Y-120733679D01*
X76828388Y-120714744D01*
X76809447Y-120699199D01*
X76787836Y-120687647D01*
X76764387Y-120680534D01*
X76740001Y-120678132D01*
X76715615Y-120680534D01*
X76692166Y-120687647D01*
X76670555Y-120699197D01*
X76651613Y-120714743D01*
X76636072Y-120733679D01*
X76632058Y-120739686D01*
X76579686Y-120792058D01*
X76518103Y-120833207D01*
X76449675Y-120861550D01*
X76449674Y-120861550D01*
X76449672Y-120861551D01*
X76377034Y-120876000D01*
X76302966Y-120876000D01*
X76230328Y-120861551D01*
X76230326Y-120861550D01*
X76230325Y-120861550D01*
X76161897Y-120833207D01*
X76100314Y-120792058D01*
X76047942Y-120739686D01*
X76006793Y-120678103D01*
X75978450Y-120609675D01*
X75964000Y-120537033D01*
X75964000Y-120462966D01*
X75978449Y-120390326D01*
X75996435Y-120346904D01*
X76003548Y-120323455D01*
X76005950Y-120299069D01*
X76003548Y-120274683D01*
X75996435Y-120251234D01*
X75984884Y-120229624D01*
X75969339Y-120210682D01*
X75950397Y-120195136D01*
X75928786Y-120183585D01*
X75905338Y-120176472D01*
X75830327Y-120161551D01*
X75820304Y-120157399D01*
X75761897Y-120133207D01*
X75700314Y-120092058D01*
X75647942Y-120039686D01*
X75606793Y-119978103D01*
X75578450Y-119909675D01*
X75574163Y-119888122D01*
X75564000Y-119837034D01*
X75564000Y-119762966D01*
X75578449Y-119690328D01*
X75581290Y-119683469D01*
X75606793Y-119621897D01*
X75647942Y-119560314D01*
X75700314Y-119507942D01*
X75761897Y-119466793D01*
X75830325Y-119438450D01*
X75830326Y-119438450D01*
X75830328Y-119438449D01*
X75902966Y-119424000D01*
X75977034Y-119424000D01*
X76049672Y-119438449D01*
X76049674Y-119438450D01*
X76049675Y-119438450D01*
X76118103Y-119466793D01*
X76179686Y-119507942D01*
X76232058Y-119560314D01*
X76273207Y-119621897D01*
X76298710Y-119683469D01*
X76301551Y-119690328D01*
X76316000Y-119762966D01*
X76316000Y-119837034D01*
X76301551Y-119909674D01*
X76283565Y-119953096D01*
X76276452Y-119976545D01*
X76274050Y-120000931D01*
X76276452Y-120025317D01*
X76283565Y-120048766D01*
X76295116Y-120070376D01*
X76310661Y-120089318D01*
X76329603Y-120104864D01*
X76351214Y-120116415D01*
X76374662Y-120123528D01*
X76449673Y-120138449D01*
X76449676Y-120138450D01*
X76449675Y-120138450D01*
X76518103Y-120166793D01*
X76579686Y-120207942D01*
X76632058Y-120260314D01*
X76636072Y-120266321D01*
X76651612Y-120285256D01*
X76670553Y-120300801D01*
X76692164Y-120312353D01*
X76715613Y-120319466D01*
X76739999Y-120321868D01*
X76764385Y-120319466D01*
X76787834Y-120312353D01*
X76809445Y-120300803D01*
X76828387Y-120285257D01*
X76843928Y-120266321D01*
X76847942Y-120260314D01*
X76900314Y-120207942D01*
X76961897Y-120166793D01*
X77030325Y-120138450D01*
X77030324Y-120138450D01*
X77030327Y-120138449D01*
X77105338Y-120123528D01*
X77128786Y-120116415D01*
X77150397Y-120104864D01*
X77169339Y-120089318D01*
X77184884Y-120070376D01*
X77196435Y-120048766D01*
X77203548Y-120025317D01*
X77205950Y-120000931D01*
X77203548Y-119976544D01*
X77196435Y-119953096D01*
X77178449Y-119909674D01*
X77164000Y-119837034D01*
X77164000Y-119762966D01*
X77178449Y-119690328D01*
X77181290Y-119683469D01*
X77206793Y-119621897D01*
X77247942Y-119560314D01*
X77300314Y-119507942D01*
X77361897Y-119466793D01*
X77430325Y-119438450D01*
X77430326Y-119438450D01*
X77430328Y-119438449D01*
X77502966Y-119424000D01*
X77577034Y-119424000D01*
X77649672Y-119438449D01*
X77649674Y-119438450D01*
X77649675Y-119438450D01*
X77718103Y-119466793D01*
X77779686Y-119507942D01*
X77832058Y-119560314D01*
X77836072Y-119566321D01*
X77851612Y-119585256D01*
X77870553Y-119600801D01*
X77892164Y-119612353D01*
X77915613Y-119619466D01*
X77939999Y-119621868D01*
X77964385Y-119619466D01*
X77987834Y-119612353D01*
X78009445Y-119600803D01*
X78028387Y-119585257D01*
X78043928Y-119566321D01*
X78047942Y-119560314D01*
X78100314Y-119507942D01*
X78161897Y-119466793D01*
X78230325Y-119438450D01*
X78230326Y-119438450D01*
X78230328Y-119438449D01*
X78302966Y-119424000D01*
X78377034Y-119424000D01*
X78449672Y-119438449D01*
X78449674Y-119438450D01*
X78449675Y-119438450D01*
X78518103Y-119466793D01*
X78579686Y-119507942D01*
X78632058Y-119560314D01*
X78636072Y-119566321D01*
X78651612Y-119585256D01*
X78670553Y-119600801D01*
X78692164Y-119612353D01*
X78715613Y-119619466D01*
X78739999Y-119621868D01*
X78764385Y-119619466D01*
X78787834Y-119612353D01*
X78809445Y-119600803D01*
X78828387Y-119585257D01*
X78843928Y-119566321D01*
X78847942Y-119560314D01*
X78900314Y-119507942D01*
X78961897Y-119466793D01*
X79030325Y-119438450D01*
X79030326Y-119438450D01*
X79030328Y-119438449D01*
X79102966Y-119424000D01*
X79177034Y-119424000D01*
X79249672Y-119438449D01*
X79249674Y-119438450D01*
X79249675Y-119438450D01*
X79318103Y-119466793D01*
X79379686Y-119507942D01*
X79432058Y-119560314D01*
X79436072Y-119566321D01*
X79451612Y-119585256D01*
X79470553Y-119600801D01*
X79492164Y-119612353D01*
X79515613Y-119619466D01*
X79539999Y-119621868D01*
X79564385Y-119619466D01*
X79587834Y-119612353D01*
X79609445Y-119600803D01*
X79628387Y-119585257D01*
X79643928Y-119566321D01*
X79647942Y-119560314D01*
X79700314Y-119507942D01*
X79761897Y-119466793D01*
X79830325Y-119438450D01*
X79830326Y-119438450D01*
X79830328Y-119438449D01*
X79902966Y-119424000D01*
X79977034Y-119424000D01*
X80049672Y-119438449D01*
X80049674Y-119438450D01*
X80049675Y-119438450D01*
X80118103Y-119466793D01*
X80179686Y-119507942D01*
X80232058Y-119560314D01*
X80273207Y-119621897D01*
X80298710Y-119683469D01*
X80301551Y-119690328D01*
X80316000Y-119762966D01*
X80316000Y-119837034D01*
X80301551Y-119909674D01*
X80283565Y-119953096D01*
X80276452Y-119976545D01*
X80274050Y-120000931D01*
X80276452Y-120025317D01*
X80283565Y-120048766D01*
X80295116Y-120070376D01*
X80310661Y-120089318D01*
X80329603Y-120104864D01*
X80351214Y-120116415D01*
X80374662Y-120123528D01*
X80449673Y-120138449D01*
X80449676Y-120138450D01*
X80449675Y-120138450D01*
X80518103Y-120166793D01*
X80579686Y-120207942D01*
X80632058Y-120260314D01*
X80636072Y-120266321D01*
X80651612Y-120285256D01*
X80670553Y-120300801D01*
X80692164Y-120312353D01*
X80715613Y-120319466D01*
X80739999Y-120321868D01*
X80764385Y-120319466D01*
X80787834Y-120312353D01*
X80809445Y-120300803D01*
X80828387Y-120285257D01*
X80843928Y-120266321D01*
X80847942Y-120260314D01*
X80900314Y-120207942D01*
X80961897Y-120166793D01*
X81030325Y-120138450D01*
X81030324Y-120138450D01*
X81030327Y-120138449D01*
X81105338Y-120123528D01*
X81128786Y-120116415D01*
X81150397Y-120104864D01*
X81169339Y-120089318D01*
X81184884Y-120070376D01*
X81196435Y-120048766D01*
X81203548Y-120025317D01*
X81205950Y-120000931D01*
X81203548Y-119976544D01*
X81196435Y-119953096D01*
X81178449Y-119909674D01*
X81164000Y-119837034D01*
X81164000Y-119762966D01*
X81178449Y-119690328D01*
X81181290Y-119683469D01*
X81206793Y-119621897D01*
X81247942Y-119560314D01*
X81300314Y-119507942D01*
X81361897Y-119466793D01*
X81430325Y-119438450D01*
X81430326Y-119438450D01*
X81430328Y-119438449D01*
X81502966Y-119424000D01*
X81577034Y-119424000D01*
X81649674Y-119438449D01*
X81674169Y-119448595D01*
X81697618Y-119455708D01*
X81722004Y-119458110D01*
X81746390Y-119455708D01*
X81769839Y-119448595D01*
X81791450Y-119437044D01*
X81810392Y-119421499D01*
X81825937Y-119402557D01*
X81837488Y-119380946D01*
X81844601Y-119357497D01*
X81847003Y-119333111D01*
X81844601Y-119308725D01*
X81841620Y-119296825D01*
X81819440Y-119223710D01*
X81812181Y-119150000D01*
X81819440Y-119076290D01*
X81840940Y-119005415D01*
X81875854Y-118940096D01*
X81922841Y-118882841D01*
X81980096Y-118835854D01*
X82045415Y-118800940D01*
X82116290Y-118779440D01*
X82171528Y-118774000D01*
X82508472Y-118774000D01*
X82563710Y-118779440D01*
G37*
G36*
X66153512Y-118953927D02*
G01*
X66302812Y-118983624D01*
X66466784Y-119051544D01*
X66614354Y-119150147D01*
X66739853Y-119275646D01*
X66838456Y-119423216D01*
X66906376Y-119587188D01*
X66941000Y-119761259D01*
X66941000Y-119938741D01*
X66906376Y-120112812D01*
X66838456Y-120276784D01*
X66739853Y-120424354D01*
X66614354Y-120549853D01*
X66466784Y-120648456D01*
X66302812Y-120716376D01*
X66153512Y-120746073D01*
X66128742Y-120751000D01*
X65951258Y-120751000D01*
X65926488Y-120746073D01*
X65777188Y-120716376D01*
X65613216Y-120648456D01*
X65465646Y-120549853D01*
X65340147Y-120424354D01*
X65241544Y-120276784D01*
X65173624Y-120112812D01*
X65139000Y-119938741D01*
X65139000Y-119761259D01*
X65173624Y-119587188D01*
X65241544Y-119423216D01*
X65340147Y-119275646D01*
X65465646Y-119150147D01*
X65613216Y-119051544D01*
X65777188Y-118983624D01*
X65926488Y-118953927D01*
X65951258Y-118949000D01*
X66128742Y-118949000D01*
X66153512Y-118953927D01*
G37*
G36*
X66153512Y-116413927D02*
G01*
X66302812Y-116443624D01*
X66466784Y-116511544D01*
X66614354Y-116610147D01*
X66739853Y-116735646D01*
X66838456Y-116883216D01*
X66906376Y-117047188D01*
X66941000Y-117221259D01*
X66941000Y-117398741D01*
X66906376Y-117572812D01*
X66838456Y-117736784D01*
X66739853Y-117884354D01*
X66614354Y-118009853D01*
X66466784Y-118108456D01*
X66302812Y-118176376D01*
X66153512Y-118206073D01*
X66128742Y-118211000D01*
X65951258Y-118211000D01*
X65926488Y-118206073D01*
X65777188Y-118176376D01*
X65613216Y-118108456D01*
X65465646Y-118009853D01*
X65340147Y-117884354D01*
X65241544Y-117736784D01*
X65173624Y-117572812D01*
X65139000Y-117398741D01*
X65139000Y-117221259D01*
X65173624Y-117047188D01*
X65241544Y-116883216D01*
X65340147Y-116735646D01*
X65465646Y-116610147D01*
X65613216Y-116511544D01*
X65777188Y-116443624D01*
X65926488Y-116413927D01*
X65951258Y-116409000D01*
X66128742Y-116409000D01*
X66153512Y-116413927D01*
G37*
G36*
X82848410Y-117155525D02*
G01*
X82933426Y-117181314D01*
X83011775Y-117223193D01*
X83080449Y-117279551D01*
X83136807Y-117348225D01*
X83178686Y-117426574D01*
X83204475Y-117511590D01*
X83213182Y-117600000D01*
X83204475Y-117688410D01*
X83178686Y-117773426D01*
X83136807Y-117851775D01*
X83080449Y-117920449D01*
X83011775Y-117976807D01*
X82933426Y-118018686D01*
X82848410Y-118044475D01*
X82782158Y-118051000D01*
X82387842Y-118051000D01*
X82321590Y-118044475D01*
X82236574Y-118018686D01*
X82158225Y-117976807D01*
X82089551Y-117920449D01*
X82033193Y-117851775D01*
X81991314Y-117773426D01*
X81965525Y-117688410D01*
X81956818Y-117600000D01*
X81965525Y-117511590D01*
X81991314Y-117426574D01*
X82033193Y-117348225D01*
X82089551Y-117279551D01*
X82158225Y-117223193D01*
X82236574Y-117181314D01*
X82321590Y-117155525D01*
X82387842Y-117149000D01*
X82782158Y-117149000D01*
X82848410Y-117155525D01*
G37*
G36*
X75158410Y-117155525D02*
G01*
X75243426Y-117181314D01*
X75321775Y-117223193D01*
X75390449Y-117279551D01*
X75446807Y-117348225D01*
X75488686Y-117426574D01*
X75514475Y-117511590D01*
X75523182Y-117600000D01*
X75514475Y-117688410D01*
X75488686Y-117773426D01*
X75446807Y-117851775D01*
X75390449Y-117920449D01*
X75321775Y-117976807D01*
X75243426Y-118018686D01*
X75158410Y-118044475D01*
X75092158Y-118051000D01*
X74697842Y-118051000D01*
X74631590Y-118044475D01*
X74546574Y-118018686D01*
X74468225Y-117976807D01*
X74399551Y-117920449D01*
X74343193Y-117851775D01*
X74301314Y-117773426D01*
X74275525Y-117688410D01*
X74266818Y-117600000D01*
X74275525Y-117511590D01*
X74301314Y-117426574D01*
X74343193Y-117348225D01*
X74399551Y-117279551D01*
X74468225Y-117223193D01*
X74546574Y-117181314D01*
X74631590Y-117155525D01*
X74697842Y-117149000D01*
X75092158Y-117149000D01*
X75158410Y-117155525D01*
G37*
G36*
X66153512Y-113873927D02*
G01*
X66302812Y-113903624D01*
X66466784Y-113971544D01*
X66614354Y-114070147D01*
X66739853Y-114195646D01*
X66838456Y-114343216D01*
X66906376Y-114507188D01*
X66941000Y-114681259D01*
X66941000Y-114858741D01*
X66906376Y-115032812D01*
X66838456Y-115196784D01*
X66739853Y-115344354D01*
X66614354Y-115469853D01*
X66466784Y-115568456D01*
X66302812Y-115636376D01*
X66153512Y-115666073D01*
X66128742Y-115671000D01*
X65951258Y-115671000D01*
X65926488Y-115666073D01*
X65777188Y-115636376D01*
X65613216Y-115568456D01*
X65465646Y-115469853D01*
X65340147Y-115344354D01*
X65241544Y-115196784D01*
X65173624Y-115032812D01*
X65139000Y-114858741D01*
X65139000Y-114681259D01*
X65173624Y-114507188D01*
X65241544Y-114343216D01*
X65340147Y-114195646D01*
X65465646Y-114070147D01*
X65613216Y-113971544D01*
X65777188Y-113903624D01*
X65926488Y-113873927D01*
X65951258Y-113869000D01*
X66128742Y-113869000D01*
X66153512Y-113873927D01*
G37*
G36*
X66153512Y-111333927D02*
G01*
X66302812Y-111363624D01*
X66466784Y-111431544D01*
X66614354Y-111530147D01*
X66739853Y-111655646D01*
X66838456Y-111803216D01*
X66906376Y-111967188D01*
X66941000Y-112141259D01*
X66941000Y-112318741D01*
X66906376Y-112492812D01*
X66838456Y-112656784D01*
X66739853Y-112804354D01*
X66614354Y-112929853D01*
X66466784Y-113028456D01*
X66302812Y-113096376D01*
X66153512Y-113126073D01*
X66128742Y-113131000D01*
X65951258Y-113131000D01*
X65926488Y-113126073D01*
X65777188Y-113096376D01*
X65613216Y-113028456D01*
X65465646Y-112929853D01*
X65340147Y-112804354D01*
X65241544Y-112656784D01*
X65173624Y-112492812D01*
X65139000Y-112318741D01*
X65139000Y-112141259D01*
X65173624Y-111967188D01*
X65241544Y-111803216D01*
X65340147Y-111655646D01*
X65465646Y-111530147D01*
X65613216Y-111431544D01*
X65777188Y-111363624D01*
X65926488Y-111333927D01*
X65951258Y-111329000D01*
X66128742Y-111329000D01*
X66153512Y-111333927D01*
G37*
G36*
X66153512Y-108793927D02*
G01*
X66302812Y-108823624D01*
X66466784Y-108891544D01*
X66614354Y-108990147D01*
X66739853Y-109115646D01*
X66838456Y-109263216D01*
X66906376Y-109427188D01*
X66941000Y-109601259D01*
X66941000Y-109778741D01*
X66906376Y-109952812D01*
X66838456Y-110116784D01*
X66739853Y-110264354D01*
X66614354Y-110389853D01*
X66466784Y-110488456D01*
X66302812Y-110556376D01*
X66153512Y-110586073D01*
X66128742Y-110591000D01*
X65951258Y-110591000D01*
X65926488Y-110586073D01*
X65777188Y-110556376D01*
X65613216Y-110488456D01*
X65465646Y-110389853D01*
X65340147Y-110264354D01*
X65241544Y-110116784D01*
X65173624Y-109952812D01*
X65139000Y-109778741D01*
X65139000Y-109601259D01*
X65173624Y-109427188D01*
X65241544Y-109263216D01*
X65340147Y-109115646D01*
X65465646Y-108990147D01*
X65613216Y-108891544D01*
X65777188Y-108823624D01*
X65926488Y-108793927D01*
X65951258Y-108789000D01*
X66128742Y-108789000D01*
X66153512Y-108793927D01*
G37*
G36*
X66153512Y-106253927D02*
G01*
X66302812Y-106283624D01*
X66466784Y-106351544D01*
X66614354Y-106450147D01*
X66739853Y-106575646D01*
X66838456Y-106723216D01*
X66906376Y-106887188D01*
X66941000Y-107061259D01*
X66941000Y-107238741D01*
X66906376Y-107412812D01*
X66838456Y-107576784D01*
X66739853Y-107724354D01*
X66614354Y-107849853D01*
X66466784Y-107948456D01*
X66302812Y-108016376D01*
X66153512Y-108046073D01*
X66128742Y-108051000D01*
X65951258Y-108051000D01*
X65926488Y-108046073D01*
X65777188Y-108016376D01*
X65613216Y-107948456D01*
X65465646Y-107849853D01*
X65340147Y-107724354D01*
X65241544Y-107576784D01*
X65173624Y-107412812D01*
X65139000Y-107238741D01*
X65139000Y-107061259D01*
X65173624Y-106887188D01*
X65241544Y-106723216D01*
X65340147Y-106575646D01*
X65465646Y-106450147D01*
X65613216Y-106351544D01*
X65777188Y-106283624D01*
X65926488Y-106253927D01*
X65951258Y-106249000D01*
X66128742Y-106249000D01*
X66153512Y-106253927D01*
G37*
G36*
X66153512Y-103713927D02*
G01*
X66302812Y-103743624D01*
X66466784Y-103811544D01*
X66614354Y-103910147D01*
X66739853Y-104035646D01*
X66838456Y-104183216D01*
X66906376Y-104347188D01*
X66941000Y-104521259D01*
X66941000Y-104698741D01*
X66906376Y-104872812D01*
X66838456Y-105036784D01*
X66739853Y-105184354D01*
X66614354Y-105309853D01*
X66466784Y-105408456D01*
X66302812Y-105476376D01*
X66153512Y-105506073D01*
X66128742Y-105511000D01*
X65951258Y-105511000D01*
X65926488Y-105506073D01*
X65777188Y-105476376D01*
X65613216Y-105408456D01*
X65465646Y-105309853D01*
X65340147Y-105184354D01*
X65241544Y-105036784D01*
X65173624Y-104872812D01*
X65139000Y-104698741D01*
X65139000Y-104521259D01*
X65173624Y-104347188D01*
X65241544Y-104183216D01*
X65340147Y-104035646D01*
X65465646Y-103910147D01*
X65613216Y-103811544D01*
X65777188Y-103743624D01*
X65926488Y-103713927D01*
X65951258Y-103709000D01*
X66128742Y-103709000D01*
X66153512Y-103713927D01*
G37*
G36*
X73291000Y-104241000D02*
G01*
X71489000Y-104241000D01*
X71489000Y-102439000D01*
X73291000Y-102439000D01*
X73291000Y-104241000D01*
G37*
G36*
X66153512Y-101173927D02*
G01*
X66302812Y-101203624D01*
X66466784Y-101271544D01*
X66614354Y-101370147D01*
X66739853Y-101495646D01*
X66838456Y-101643216D01*
X66906376Y-101807188D01*
X66941000Y-101981259D01*
X66941000Y-102158741D01*
X66906376Y-102332812D01*
X66838456Y-102496784D01*
X66739853Y-102644354D01*
X66614354Y-102769853D01*
X66466784Y-102868456D01*
X66302812Y-102936376D01*
X66153512Y-102966073D01*
X66128742Y-102971000D01*
X65951258Y-102971000D01*
X65926488Y-102966073D01*
X65777188Y-102936376D01*
X65613216Y-102868456D01*
X65465646Y-102769853D01*
X65340147Y-102644354D01*
X65241544Y-102496784D01*
X65173624Y-102332812D01*
X65139000Y-102158741D01*
X65139000Y-101981259D01*
X65173624Y-101807188D01*
X65241544Y-101643216D01*
X65340147Y-101495646D01*
X65465646Y-101370147D01*
X65613216Y-101271544D01*
X65777188Y-101203624D01*
X65926488Y-101173927D01*
X65951258Y-101169000D01*
X66128742Y-101169000D01*
X66153512Y-101173927D01*
G37*
G36*
X72503512Y-99903927D02*
G01*
X72652812Y-99933624D01*
X72816784Y-100001544D01*
X72964354Y-100100147D01*
X73089853Y-100225646D01*
X73188456Y-100373216D01*
X73256376Y-100537188D01*
X73291000Y-100711259D01*
X73291000Y-100888741D01*
X73256376Y-101062812D01*
X73188456Y-101226784D01*
X73089853Y-101374354D01*
X72964354Y-101499853D01*
X72816784Y-101598456D01*
X72652812Y-101666376D01*
X72503512Y-101696073D01*
X72478742Y-101701000D01*
X72301258Y-101701000D01*
X72276488Y-101696073D01*
X72127188Y-101666376D01*
X71963216Y-101598456D01*
X71815646Y-101499853D01*
X71690147Y-101374354D01*
X71591544Y-101226784D01*
X71523624Y-101062812D01*
X71489000Y-100888741D01*
X71489000Y-100711259D01*
X71523624Y-100537188D01*
X71591544Y-100373216D01*
X71690147Y-100225646D01*
X71815646Y-100100147D01*
X71963216Y-100001544D01*
X72127188Y-99933624D01*
X72276488Y-99903927D01*
X72301258Y-99899000D01*
X72478742Y-99899000D01*
X72503512Y-99903927D01*
G37*
G36*
X66941000Y-100431000D02*
G01*
X65139000Y-100431000D01*
X65139000Y-98629000D01*
X66941000Y-98629000D01*
X66941000Y-100431000D01*
G37*
G36*
X150097142Y-94938242D02*
G01*
X150245101Y-94999529D01*
X150378255Y-95088499D01*
X150491501Y-95201745D01*
X150580471Y-95334899D01*
X150641758Y-95482858D01*
X150673000Y-95639925D01*
X150673000Y-95800075D01*
X150641758Y-95957142D01*
X150580471Y-96105101D01*
X150491501Y-96238255D01*
X150378255Y-96351501D01*
X150245101Y-96440471D01*
X150097142Y-96501758D01*
X149940075Y-96533000D01*
X149779925Y-96533000D01*
X149622858Y-96501758D01*
X149474899Y-96440471D01*
X149341745Y-96351501D01*
X149228499Y-96238255D01*
X149139529Y-96105101D01*
X149078242Y-95957142D01*
X149047000Y-95800075D01*
X149047000Y-95639925D01*
X149078242Y-95482858D01*
X149139529Y-95334899D01*
X149228499Y-95201745D01*
X149341745Y-95088499D01*
X149474899Y-94999529D01*
X149622858Y-94938242D01*
X149779925Y-94907000D01*
X149940075Y-94907000D01*
X150097142Y-94938242D01*
G37*
G36*
X155177142Y-94938242D02*
G01*
X155325101Y-94999529D01*
X155458255Y-95088499D01*
X155571501Y-95201745D01*
X155660471Y-95334899D01*
X155721758Y-95482858D01*
X155753000Y-95639925D01*
X155753000Y-95800075D01*
X155721758Y-95957142D01*
X155660471Y-96105101D01*
X155571501Y-96238255D01*
X155458255Y-96351501D01*
X155325101Y-96440471D01*
X155177142Y-96501758D01*
X155020075Y-96533000D01*
X154859925Y-96533000D01*
X154702858Y-96501758D01*
X154554899Y-96440471D01*
X154421745Y-96351501D01*
X154308499Y-96238255D01*
X154219529Y-96105101D01*
X154158242Y-95957142D01*
X154127000Y-95800075D01*
X154127000Y-95639925D01*
X154158242Y-95482858D01*
X154219529Y-95334899D01*
X154308499Y-95201745D01*
X154421745Y-95088499D01*
X154554899Y-94999529D01*
X154702858Y-94938242D01*
X154859925Y-94907000D01*
X155020075Y-94907000D01*
X155177142Y-94938242D01*
G37*
G36*
X72116564Y-93439389D02*
G01*
X72307833Y-93518615D01*
X72307835Y-93518616D01*
X72479973Y-93633635D01*
X72626365Y-93780027D01*
X72741385Y-93952167D01*
X72820611Y-94143436D01*
X72861000Y-94346484D01*
X72861000Y-94553516D01*
X72820611Y-94756564D01*
X72745358Y-94938242D01*
X72741384Y-94947835D01*
X72626365Y-95119973D01*
X72479973Y-95266365D01*
X72307835Y-95381384D01*
X72307834Y-95381385D01*
X72307833Y-95381385D01*
X72116564Y-95460611D01*
X71913516Y-95501000D01*
X71706484Y-95501000D01*
X71503436Y-95460611D01*
X71312167Y-95381385D01*
X71312166Y-95381385D01*
X71312165Y-95381384D01*
X71140027Y-95266365D01*
X70993635Y-95119973D01*
X70878616Y-94947835D01*
X70874642Y-94938242D01*
X70799389Y-94756564D01*
X70759000Y-94553516D01*
X70759000Y-94346484D01*
X70799389Y-94143436D01*
X70878615Y-93952167D01*
X70993635Y-93780027D01*
X71140027Y-93633635D01*
X71312165Y-93518616D01*
X71312167Y-93518615D01*
X71503436Y-93439389D01*
X71706484Y-93399000D01*
X71913516Y-93399000D01*
X72116564Y-93439389D01*
G37*
G36*
X67616564Y-93439389D02*
G01*
X67807833Y-93518615D01*
X67807835Y-93518616D01*
X67979973Y-93633635D01*
X68126365Y-93780027D01*
X68241385Y-93952167D01*
X68320611Y-94143436D01*
X68361000Y-94346484D01*
X68361000Y-94553516D01*
X68320611Y-94756564D01*
X68245358Y-94938242D01*
X68241384Y-94947835D01*
X68126365Y-95119973D01*
X67979973Y-95266365D01*
X67807835Y-95381384D01*
X67807834Y-95381385D01*
X67807833Y-95381385D01*
X67616564Y-95460611D01*
X67413516Y-95501000D01*
X67206484Y-95501000D01*
X67003436Y-95460611D01*
X66812167Y-95381385D01*
X66812166Y-95381385D01*
X66812165Y-95381384D01*
X66640027Y-95266365D01*
X66493635Y-95119973D01*
X66378616Y-94947835D01*
X66374642Y-94938242D01*
X66299389Y-94756564D01*
X66259000Y-94553516D01*
X66259000Y-94346484D01*
X66299389Y-94143436D01*
X66378615Y-93952167D01*
X66493635Y-93780027D01*
X66640027Y-93633635D01*
X66812165Y-93518616D01*
X66812167Y-93518615D01*
X67003436Y-93439389D01*
X67206484Y-93399000D01*
X67413516Y-93399000D01*
X67616564Y-93439389D01*
G37*
G36*
X72116564Y-86939389D02*
G01*
X72307833Y-87018615D01*
X72307835Y-87018616D01*
X72479973Y-87133635D01*
X72626365Y-87280027D01*
X72741385Y-87452167D01*
X72820611Y-87643436D01*
X72861000Y-87846484D01*
X72861000Y-88053516D01*
X72820611Y-88256564D01*
X72787234Y-88337143D01*
X72741384Y-88447835D01*
X72626365Y-88619973D01*
X72479973Y-88766365D01*
X72307835Y-88881384D01*
X72307834Y-88881385D01*
X72307833Y-88881385D01*
X72116564Y-88960611D01*
X71913516Y-89001000D01*
X71706484Y-89001000D01*
X71503436Y-88960611D01*
X71312167Y-88881385D01*
X71312166Y-88881385D01*
X71312165Y-88881384D01*
X71140027Y-88766365D01*
X70993635Y-88619973D01*
X70878616Y-88447835D01*
X70832766Y-88337143D01*
X70799389Y-88256564D01*
X70759000Y-88053516D01*
X70759000Y-87846484D01*
X70799389Y-87643436D01*
X70878615Y-87452167D01*
X70993635Y-87280027D01*
X71140027Y-87133635D01*
X71312165Y-87018616D01*
X71312167Y-87018615D01*
X71503436Y-86939389D01*
X71706484Y-86899000D01*
X71913516Y-86899000D01*
X72116564Y-86939389D01*
G37*
G36*
X67616564Y-86939389D02*
G01*
X67807833Y-87018615D01*
X67807835Y-87018616D01*
X67979973Y-87133635D01*
X68126365Y-87280027D01*
X68241385Y-87452167D01*
X68320611Y-87643436D01*
X68361000Y-87846484D01*
X68361000Y-88053516D01*
X68320611Y-88256564D01*
X68287234Y-88337143D01*
X68241384Y-88447835D01*
X68126365Y-88619973D01*
X67979973Y-88766365D01*
X67807835Y-88881384D01*
X67807834Y-88881385D01*
X67807833Y-88881385D01*
X67616564Y-88960611D01*
X67413516Y-89001000D01*
X67206484Y-89001000D01*
X67003436Y-88960611D01*
X66812167Y-88881385D01*
X66812166Y-88881385D01*
X66812165Y-88881384D01*
X66640027Y-88766365D01*
X66493635Y-88619973D01*
X66378616Y-88447835D01*
X66332766Y-88337143D01*
X66299389Y-88256564D01*
X66259000Y-88053516D01*
X66259000Y-87846484D01*
X66299389Y-87643436D01*
X66378615Y-87452167D01*
X66493635Y-87280027D01*
X66640027Y-87133635D01*
X66812165Y-87018616D01*
X66812167Y-87018615D01*
X67003436Y-86939389D01*
X67206484Y-86899000D01*
X67413516Y-86899000D01*
X67616564Y-86939389D01*
G37*
G36*
X150097142Y-87318242D02*
G01*
X150245101Y-87379529D01*
X150378255Y-87468499D01*
X150491501Y-87581745D01*
X150580471Y-87714899D01*
X150641758Y-87862858D01*
X150673000Y-88019925D01*
X150673000Y-88180075D01*
X150641758Y-88337142D01*
X150580471Y-88485101D01*
X150491501Y-88618255D01*
X150378255Y-88731501D01*
X150245101Y-88820471D01*
X150097142Y-88881758D01*
X149940075Y-88913000D01*
X149779925Y-88913000D01*
X149622858Y-88881758D01*
X149474899Y-88820471D01*
X149341745Y-88731501D01*
X149228499Y-88618255D01*
X149139529Y-88485101D01*
X149078242Y-88337142D01*
X149047000Y-88180075D01*
X149047000Y-88019925D01*
X149078242Y-87862858D01*
X149139529Y-87714899D01*
X149228499Y-87581745D01*
X149341745Y-87468499D01*
X149474899Y-87379529D01*
X149622858Y-87318242D01*
X149779925Y-87287000D01*
X149940075Y-87287000D01*
X150097142Y-87318242D01*
G37*
G36*
X155177142Y-87318242D02*
G01*
X155325101Y-87379529D01*
X155458255Y-87468499D01*
X155571501Y-87581745D01*
X155660471Y-87714899D01*
X155721758Y-87862858D01*
X155753000Y-88019925D01*
X155753000Y-88180075D01*
X155721758Y-88337142D01*
X155660471Y-88485101D01*
X155571501Y-88618255D01*
X155458255Y-88731501D01*
X155325101Y-88820471D01*
X155177142Y-88881758D01*
X155020075Y-88913000D01*
X154859925Y-88913000D01*
X154702858Y-88881758D01*
X154554899Y-88820471D01*
X154421745Y-88731501D01*
X154308499Y-88618255D01*
X154219529Y-88485101D01*
X154158242Y-88337142D01*
X154127000Y-88180075D01*
X154127000Y-88019925D01*
X154158242Y-87862858D01*
X154219529Y-87714899D01*
X154308499Y-87581745D01*
X154421745Y-87468499D01*
X154554899Y-87379529D01*
X154702858Y-87318242D01*
X154859925Y-87287000D01*
X155020075Y-87287000D01*
X155177142Y-87318242D01*
G37*
G36*
X155753000Y-86373000D02*
G01*
X154127000Y-86373000D01*
X154127000Y-84747000D01*
X155753000Y-84747000D01*
X155753000Y-86373000D01*
G37*
G36*
X150097142Y-84778242D02*
G01*
X150245101Y-84839529D01*
X150378255Y-84928499D01*
X150491501Y-85041745D01*
X150580471Y-85174899D01*
X150641758Y-85322858D01*
X150673000Y-85479925D01*
X150673000Y-85640075D01*
X150641758Y-85797142D01*
X150580471Y-85945101D01*
X150491501Y-86078255D01*
X150378255Y-86191501D01*
X150245101Y-86280471D01*
X150097142Y-86341758D01*
X149940075Y-86373000D01*
X149779925Y-86373000D01*
X149622858Y-86341758D01*
X149474899Y-86280471D01*
X149341745Y-86191501D01*
X149228499Y-86078255D01*
X149139529Y-85945101D01*
X149078242Y-85797142D01*
X149047000Y-85640075D01*
X149047000Y-85479925D01*
X149078242Y-85322858D01*
X149139529Y-85174899D01*
X149228499Y-85041745D01*
X149341745Y-84928499D01*
X149474899Y-84839529D01*
X149622858Y-84778242D01*
X149779925Y-84747000D01*
X149940075Y-84747000D01*
X150097142Y-84778242D01*
G37*
G36*
X67616564Y-83279389D02*
G01*
X67807833Y-83358615D01*
X67807835Y-83358616D01*
X67979973Y-83473635D01*
X68126365Y-83620027D01*
X68241385Y-83792167D01*
X68320611Y-83983436D01*
X68361000Y-84186484D01*
X68361000Y-84393516D01*
X68320611Y-84596564D01*
X68245358Y-84778242D01*
X68241384Y-84787835D01*
X68126365Y-84959973D01*
X67979973Y-85106365D01*
X67807835Y-85221384D01*
X67807834Y-85221385D01*
X67807833Y-85221385D01*
X67616564Y-85300611D01*
X67413516Y-85341000D01*
X67206484Y-85341000D01*
X67003436Y-85300611D01*
X66812167Y-85221385D01*
X66812166Y-85221385D01*
X66812165Y-85221384D01*
X66640027Y-85106365D01*
X66493635Y-84959973D01*
X66378616Y-84787835D01*
X66374642Y-84778242D01*
X66299389Y-84596564D01*
X66259000Y-84393516D01*
X66259000Y-84186484D01*
X66299389Y-83983436D01*
X66378615Y-83792167D01*
X66493635Y-83620027D01*
X66640027Y-83473635D01*
X66812165Y-83358616D01*
X66812167Y-83358615D01*
X67003436Y-83279389D01*
X67206484Y-83239000D01*
X67413516Y-83239000D01*
X67616564Y-83279389D01*
G37*
G36*
X72116564Y-83279389D02*
G01*
X72307833Y-83358615D01*
X72307835Y-83358616D01*
X72479973Y-83473635D01*
X72626365Y-83620027D01*
X72741385Y-83792167D01*
X72820611Y-83983436D01*
X72861000Y-84186484D01*
X72861000Y-84393516D01*
X72820611Y-84596564D01*
X72745358Y-84778242D01*
X72741384Y-84787835D01*
X72626365Y-84959973D01*
X72479973Y-85106365D01*
X72307835Y-85221384D01*
X72307834Y-85221385D01*
X72307833Y-85221385D01*
X72116564Y-85300611D01*
X71913516Y-85341000D01*
X71706484Y-85341000D01*
X71503436Y-85300611D01*
X71312167Y-85221385D01*
X71312166Y-85221385D01*
X71312165Y-85221384D01*
X71140027Y-85106365D01*
X70993635Y-84959973D01*
X70878616Y-84787835D01*
X70874642Y-84778242D01*
X70799389Y-84596564D01*
X70759000Y-84393516D01*
X70759000Y-84186484D01*
X70799389Y-83983436D01*
X70878615Y-83792167D01*
X70993635Y-83620027D01*
X71140027Y-83473635D01*
X71312165Y-83358616D01*
X71312167Y-83358615D01*
X71503436Y-83279389D01*
X71706484Y-83239000D01*
X71913516Y-83239000D01*
X72116564Y-83279389D01*
G37*
G36*
X115683512Y-78313927D02*
G01*
X115832812Y-78343624D01*
X115996784Y-78411544D01*
X116144354Y-78510147D01*
X116269853Y-78635646D01*
X116368456Y-78783216D01*
X116436376Y-78947188D01*
X116471000Y-79121259D01*
X116471000Y-79298741D01*
X116436376Y-79472812D01*
X116368456Y-79636784D01*
X116269853Y-79784354D01*
X116144354Y-79909853D01*
X115996784Y-80008456D01*
X115832812Y-80076376D01*
X115683512Y-80106073D01*
X115658742Y-80111000D01*
X115481258Y-80111000D01*
X115456488Y-80106073D01*
X115307188Y-80076376D01*
X115143216Y-80008456D01*
X114995646Y-79909853D01*
X114870147Y-79784354D01*
X114771544Y-79636784D01*
X114703624Y-79472812D01*
X114669000Y-79298741D01*
X114669000Y-79121259D01*
X114703624Y-78947188D01*
X114771544Y-78783216D01*
X114870147Y-78635646D01*
X114995646Y-78510147D01*
X115143216Y-78411544D01*
X115307188Y-78343624D01*
X115456488Y-78313927D01*
X115481258Y-78309000D01*
X115658742Y-78309000D01*
X115683512Y-78313927D01*
G37*
G36*
X113931000Y-80111000D02*
G01*
X112129000Y-80111000D01*
X112129000Y-78309000D01*
X113931000Y-78309000D01*
X113931000Y-80111000D01*
G37*
G36*
X155841000Y-80111000D02*
G01*
X154039000Y-80111000D01*
X154039000Y-78309000D01*
X155841000Y-78309000D01*
X155841000Y-80111000D01*
G37*
G36*
X157593512Y-78313927D02*
G01*
X157742812Y-78343624D01*
X157906784Y-78411544D01*
X158054354Y-78510147D01*
X158179853Y-78635646D01*
X158278456Y-78783216D01*
X158346376Y-78947188D01*
X158381000Y-79121259D01*
X158381000Y-79298741D01*
X158346376Y-79472812D01*
X158278456Y-79636784D01*
X158179853Y-79784354D01*
X158054354Y-79909853D01*
X157906784Y-80008456D01*
X157742812Y-80076376D01*
X157593512Y-80106073D01*
X157568742Y-80111000D01*
X157391258Y-80111000D01*
X157366488Y-80106073D01*
X157217188Y-80076376D01*
X157053216Y-80008456D01*
X156905646Y-79909853D01*
X156780147Y-79784354D01*
X156681544Y-79636784D01*
X156613624Y-79472812D01*
X156579000Y-79298741D01*
X156579000Y-79121259D01*
X156613624Y-78947188D01*
X156681544Y-78783216D01*
X156780147Y-78635646D01*
X156905646Y-78510147D01*
X157053216Y-78411544D01*
X157217188Y-78343624D01*
X157366488Y-78313927D01*
X157391258Y-78309000D01*
X157568742Y-78309000D01*
X157593512Y-78313927D01*
G37*
G36*
X144893512Y-78313927D02*
G01*
X145042812Y-78343624D01*
X145206784Y-78411544D01*
X145354354Y-78510147D01*
X145479853Y-78635646D01*
X145578456Y-78783216D01*
X145646376Y-78947188D01*
X145681000Y-79121259D01*
X145681000Y-79298741D01*
X145646376Y-79472812D01*
X145578456Y-79636784D01*
X145479853Y-79784354D01*
X145354354Y-79909853D01*
X145206784Y-80008456D01*
X145042812Y-80076376D01*
X144893512Y-80106073D01*
X144868742Y-80111000D01*
X144691258Y-80111000D01*
X144666488Y-80106073D01*
X144517188Y-80076376D01*
X144353216Y-80008456D01*
X144205646Y-79909853D01*
X144080147Y-79784354D01*
X143981544Y-79636784D01*
X143913624Y-79472812D01*
X143879000Y-79298741D01*
X143879000Y-79121259D01*
X143913624Y-78947188D01*
X143981544Y-78783216D01*
X144080147Y-78635646D01*
X144205646Y-78510147D01*
X144353216Y-78411544D01*
X144517188Y-78343624D01*
X144666488Y-78313927D01*
X144691258Y-78309000D01*
X144868742Y-78309000D01*
X144893512Y-78313927D01*
G37*
G36*
X143141000Y-80111000D02*
G01*
X141339000Y-80111000D01*
X141339000Y-78309000D01*
X143141000Y-78309000D01*
X143141000Y-80111000D01*
G37*
G36*
X72116564Y-76779389D02*
G01*
X72307833Y-76858615D01*
X72307835Y-76858616D01*
X72479973Y-76973635D01*
X72626365Y-77120027D01*
X72741385Y-77292167D01*
X72820611Y-77483436D01*
X72861000Y-77686484D01*
X72861000Y-77893516D01*
X72820611Y-78096564D01*
X72741385Y-78287833D01*
X72741384Y-78287835D01*
X72626365Y-78459973D01*
X72479973Y-78606365D01*
X72307835Y-78721384D01*
X72307834Y-78721385D01*
X72307833Y-78721385D01*
X72116564Y-78800611D01*
X71913516Y-78841000D01*
X71706484Y-78841000D01*
X71503436Y-78800611D01*
X71312167Y-78721385D01*
X71312166Y-78721385D01*
X71312165Y-78721384D01*
X71140027Y-78606365D01*
X70993635Y-78459973D01*
X70878616Y-78287835D01*
X70878615Y-78287833D01*
X70799389Y-78096564D01*
X70759000Y-77893516D01*
X70759000Y-77686484D01*
X70799389Y-77483436D01*
X70878615Y-77292167D01*
X70993635Y-77120027D01*
X71140027Y-76973635D01*
X71312165Y-76858616D01*
X71312167Y-76858615D01*
X71503436Y-76779389D01*
X71706484Y-76739000D01*
X71913516Y-76739000D01*
X72116564Y-76779389D01*
G37*
G36*
X67616564Y-76779389D02*
G01*
X67807833Y-76858615D01*
X67807835Y-76858616D01*
X67979973Y-76973635D01*
X68126365Y-77120027D01*
X68241385Y-77292167D01*
X68320611Y-77483436D01*
X68361000Y-77686484D01*
X68361000Y-77893516D01*
X68320611Y-78096564D01*
X68241385Y-78287833D01*
X68241384Y-78287835D01*
X68126365Y-78459973D01*
X67979973Y-78606365D01*
X67807835Y-78721384D01*
X67807834Y-78721385D01*
X67807833Y-78721385D01*
X67616564Y-78800611D01*
X67413516Y-78841000D01*
X67206484Y-78841000D01*
X67003436Y-78800611D01*
X66812167Y-78721385D01*
X66812166Y-78721385D01*
X66812165Y-78721384D01*
X66640027Y-78606365D01*
X66493635Y-78459973D01*
X66378616Y-78287835D01*
X66378615Y-78287833D01*
X66299389Y-78096564D01*
X66259000Y-77893516D01*
X66259000Y-77686484D01*
X66299389Y-77483436D01*
X66378615Y-77292167D01*
X66493635Y-77120027D01*
X66640027Y-76973635D01*
X66812165Y-76858616D01*
X66812167Y-76858615D01*
X67003436Y-76779389D01*
X67206484Y-76739000D01*
X67413516Y-76739000D01*
X67616564Y-76779389D01*
G37*
G36*
X83338212Y-71921249D02*
G01*
X83432651Y-71949897D01*
X83519687Y-71996418D01*
X83595975Y-72059025D01*
X83658582Y-72135313D01*
X83705103Y-72222348D01*
X83733751Y-72316787D01*
X83741000Y-72390388D01*
X83741000Y-73439612D01*
X83733751Y-73513213D01*
X83705103Y-73607652D01*
X83658582Y-73694687D01*
X83595975Y-73770975D01*
X83519687Y-73833582D01*
X83432652Y-73880103D01*
X83338213Y-73908751D01*
X83240000Y-73918424D01*
X83141788Y-73908751D01*
X83047349Y-73880103D01*
X82960314Y-73833582D01*
X82884026Y-73770975D01*
X82821419Y-73694687D01*
X82774898Y-73607652D01*
X82746250Y-73513213D01*
X82739001Y-73439612D01*
X82739000Y-72390389D01*
X82746249Y-72316788D01*
X82774897Y-72222349D01*
X82821418Y-72135313D01*
X82884025Y-72059025D01*
X82960313Y-71996418D01*
X83047348Y-71949897D01*
X83141787Y-71921249D01*
X83240000Y-71911576D01*
X83338212Y-71921249D01*
G37*
G36*
X74338212Y-71921249D02*
G01*
X74432651Y-71949897D01*
X74519687Y-71996418D01*
X74595975Y-72059025D01*
X74658582Y-72135313D01*
X74705103Y-72222348D01*
X74733751Y-72316787D01*
X74741000Y-72390388D01*
X74741000Y-73439612D01*
X74733751Y-73513213D01*
X74705103Y-73607652D01*
X74658582Y-73694687D01*
X74595975Y-73770975D01*
X74519687Y-73833582D01*
X74432652Y-73880103D01*
X74338213Y-73908751D01*
X74240000Y-73918424D01*
X74141788Y-73908751D01*
X74047349Y-73880103D01*
X73960314Y-73833582D01*
X73884026Y-73770975D01*
X73821419Y-73694687D01*
X73774898Y-73607652D01*
X73746250Y-73513213D01*
X73739001Y-73439612D01*
X73739000Y-72390389D01*
X73746249Y-72316788D01*
X73774897Y-72222349D01*
X73821418Y-72135313D01*
X73884025Y-72059025D01*
X73960313Y-71996418D01*
X74047348Y-71949897D01*
X74141787Y-71921249D01*
X74240000Y-71911576D01*
X74338212Y-71921249D01*
G37*
G36*
X135521000Y-73291000D02*
G01*
X133719000Y-73291000D01*
X133719000Y-71489000D01*
X135521000Y-71489000D01*
X135521000Y-73291000D01*
G37*
G36*
X139813512Y-71493927D02*
G01*
X139962812Y-71523624D01*
X140126784Y-71591544D01*
X140274354Y-71690147D01*
X140399853Y-71815646D01*
X140498456Y-71963216D01*
X140566376Y-72127188D01*
X140601000Y-72301259D01*
X140601000Y-72478741D01*
X140566376Y-72652812D01*
X140498456Y-72816784D01*
X140399853Y-72964354D01*
X140274354Y-73089853D01*
X140126784Y-73188456D01*
X139962812Y-73256376D01*
X139813512Y-73286073D01*
X139788742Y-73291000D01*
X139611258Y-73291000D01*
X139586488Y-73286073D01*
X139437188Y-73256376D01*
X139273216Y-73188456D01*
X139125646Y-73089853D01*
X139000147Y-72964354D01*
X138901544Y-72816784D01*
X138833624Y-72652812D01*
X138799000Y-72478741D01*
X138799000Y-72301259D01*
X138833624Y-72127188D01*
X138901544Y-71963216D01*
X139000147Y-71815646D01*
X139125646Y-71690147D01*
X139273216Y-71591544D01*
X139437188Y-71523624D01*
X139586488Y-71493927D01*
X139611258Y-71489000D01*
X139788742Y-71489000D01*
X139813512Y-71493927D01*
G37*
G36*
X137273512Y-71493927D02*
G01*
X137422812Y-71523624D01*
X137586784Y-71591544D01*
X137734354Y-71690147D01*
X137859853Y-71815646D01*
X137958456Y-71963216D01*
X138026376Y-72127188D01*
X138061000Y-72301259D01*
X138061000Y-72478741D01*
X138026376Y-72652812D01*
X137958456Y-72816784D01*
X137859853Y-72964354D01*
X137734354Y-73089853D01*
X137586784Y-73188456D01*
X137422812Y-73256376D01*
X137273512Y-73286073D01*
X137248742Y-73291000D01*
X137071258Y-73291000D01*
X137046488Y-73286073D01*
X136897188Y-73256376D01*
X136733216Y-73188456D01*
X136585646Y-73089853D01*
X136460147Y-72964354D01*
X136361544Y-72816784D01*
X136293624Y-72652812D01*
X136259000Y-72478741D01*
X136259000Y-72301259D01*
X136293624Y-72127188D01*
X136361544Y-71963216D01*
X136460147Y-71815646D01*
X136585646Y-71690147D01*
X136733216Y-71591544D01*
X136897188Y-71523624D01*
X137046488Y-71493927D01*
X137071258Y-71489000D01*
X137248742Y-71489000D01*
X137273512Y-71493927D01*
G37*
G36*
X75249672Y-68788449D02*
G01*
X75249674Y-68788450D01*
X75249675Y-68788450D01*
X75318103Y-68816793D01*
X75379686Y-68857942D01*
X75432058Y-68910314D01*
X75473207Y-68971897D01*
X75487090Y-69005415D01*
X75501551Y-69040328D01*
X75516000Y-69112966D01*
X75516000Y-69187034D01*
X75508705Y-69223709D01*
X75501550Y-69259675D01*
X75473207Y-69328103D01*
X75432058Y-69389686D01*
X75379686Y-69442058D01*
X75318103Y-69483207D01*
X75249675Y-69511550D01*
X75249674Y-69511550D01*
X75249672Y-69511551D01*
X75177034Y-69526000D01*
X75102966Y-69526000D01*
X75037790Y-69513036D01*
X75013403Y-69510634D01*
X74989017Y-69513036D01*
X74965568Y-69520149D01*
X74943958Y-69531700D01*
X74925016Y-69547246D01*
X74909471Y-69566188D01*
X74897920Y-69587798D01*
X74890807Y-69611247D01*
X74888405Y-69635634D01*
X74890807Y-69660020D01*
X74897920Y-69683469D01*
X74909471Y-69705079D01*
X74916766Y-69714915D01*
X74980356Y-69792400D01*
X75031521Y-69888121D01*
X75063027Y-69991985D01*
X75071000Y-70072933D01*
X75071000Y-70727067D01*
X75063027Y-70808015D01*
X75031521Y-70911879D01*
X75031519Y-70911882D01*
X74980357Y-71007600D01*
X74911501Y-71091501D01*
X74827600Y-71160357D01*
X74759055Y-71196995D01*
X74731879Y-71211521D01*
X74628015Y-71243027D01*
X74520000Y-71253666D01*
X74411986Y-71243027D01*
X74308122Y-71211521D01*
X74280946Y-71196995D01*
X74212401Y-71160357D01*
X74128500Y-71091501D01*
X74059645Y-71007601D01*
X74008480Y-70911879D01*
X73984615Y-70833206D01*
X73976973Y-70808015D01*
X73969000Y-70727067D01*
X73969000Y-70072934D01*
X73976973Y-69991986D01*
X74008479Y-69888122D01*
X74059644Y-69792400D01*
X74128499Y-69708499D01*
X74212400Y-69639644D01*
X74212399Y-69639644D01*
X74212401Y-69639643D01*
X74285069Y-69600801D01*
X74308121Y-69588479D01*
X74411985Y-69556973D01*
X74520000Y-69546334D01*
X74628014Y-69556973D01*
X74709753Y-69581768D01*
X74733773Y-69586545D01*
X74758277Y-69586545D01*
X74782310Y-69581765D01*
X74804949Y-69572387D01*
X74825324Y-69558774D01*
X74842651Y-69541446D01*
X74856264Y-69521072D01*
X74865642Y-69498433D01*
X74870422Y-69474400D01*
X74870422Y-69449896D01*
X74865642Y-69425863D01*
X74856264Y-69403224D01*
X74849958Y-69392702D01*
X74847944Y-69389688D01*
X74847942Y-69389686D01*
X74806793Y-69328103D01*
X74778450Y-69259675D01*
X74771296Y-69223709D01*
X74764000Y-69187034D01*
X74764000Y-69112966D01*
X74778449Y-69040328D01*
X74792910Y-69005415D01*
X74806793Y-68971897D01*
X74847942Y-68910314D01*
X74900314Y-68857942D01*
X74961897Y-68816793D01*
X75030325Y-68788450D01*
X75030326Y-68788450D01*
X75030328Y-68788449D01*
X75102966Y-68774000D01*
X75177034Y-68774000D01*
X75249672Y-68788449D01*
G37*
G36*
X82563710Y-68779440D02*
G01*
X82634585Y-68800940D01*
X82699904Y-68835854D01*
X82757159Y-68882841D01*
X82804146Y-68940096D01*
X82839060Y-69005415D01*
X82860560Y-69076290D01*
X82867819Y-69150000D01*
X82860560Y-69223710D01*
X82839060Y-69294585D01*
X82800538Y-69366655D01*
X82791160Y-69389294D01*
X82786380Y-69413327D01*
X82786380Y-69437832D01*
X82791161Y-69461865D01*
X82800538Y-69484504D01*
X82814152Y-69504878D01*
X82831479Y-69522205D01*
X82851853Y-69535818D01*
X82874492Y-69545196D01*
X82898525Y-69549976D01*
X82923024Y-69549976D01*
X82960000Y-69546334D01*
X83068014Y-69556973D01*
X83171878Y-69588479D01*
X83194934Y-69600803D01*
X83267599Y-69639643D01*
X83267601Y-69639644D01*
X83267600Y-69639644D01*
X83351501Y-69708499D01*
X83420356Y-69792400D01*
X83471521Y-69888121D01*
X83503027Y-69991985D01*
X83511000Y-70072933D01*
X83511000Y-70727067D01*
X83503027Y-70808015D01*
X83471521Y-70911879D01*
X83471519Y-70911882D01*
X83420357Y-71007600D01*
X83351501Y-71091501D01*
X83267600Y-71160357D01*
X83199055Y-71196995D01*
X83171879Y-71211521D01*
X83068015Y-71243027D01*
X82960000Y-71253666D01*
X82851986Y-71243027D01*
X82748122Y-71211521D01*
X82720946Y-71196995D01*
X82652401Y-71160357D01*
X82568500Y-71091501D01*
X82499645Y-71007601D01*
X82448480Y-70911879D01*
X82424615Y-70833206D01*
X82416973Y-70808015D01*
X82409000Y-70727067D01*
X82409000Y-70072934D01*
X82416973Y-69991986D01*
X82448479Y-69888122D01*
X82499644Y-69792400D01*
X82550619Y-69730286D01*
X82564224Y-69709923D01*
X82573602Y-69687284D01*
X82578382Y-69663251D01*
X82578382Y-69638747D01*
X82573602Y-69614714D01*
X82564224Y-69592075D01*
X82550611Y-69571700D01*
X82533284Y-69554373D01*
X82512909Y-69540760D01*
X82490270Y-69531382D01*
X82453985Y-69526000D01*
X82171528Y-69526000D01*
X82116290Y-69520560D01*
X82043175Y-69498380D01*
X82019142Y-69493599D01*
X81994638Y-69493599D01*
X81970604Y-69498379D01*
X81947965Y-69507756D01*
X81927591Y-69521370D01*
X81910264Y-69538697D01*
X81896650Y-69559071D01*
X81887273Y-69581710D01*
X81882492Y-69605743D01*
X81882492Y-69630247D01*
X81887272Y-69654281D01*
X81891405Y-69665831D01*
X81901551Y-69690326D01*
X81916000Y-69762966D01*
X81916000Y-69837034D01*
X81905838Y-69888122D01*
X81901550Y-69909675D01*
X81873207Y-69978103D01*
X81832058Y-70039686D01*
X81779686Y-70092058D01*
X81718103Y-70133207D01*
X81659696Y-70157399D01*
X81649673Y-70161551D01*
X81574662Y-70176472D01*
X81551214Y-70183585D01*
X81529603Y-70195136D01*
X81510661Y-70210682D01*
X81495116Y-70229624D01*
X81483565Y-70251234D01*
X81476452Y-70274683D01*
X81474050Y-70299069D01*
X81476452Y-70323456D01*
X81483565Y-70346904D01*
X81501551Y-70390326D01*
X81516000Y-70462966D01*
X81516000Y-70537033D01*
X81501550Y-70609675D01*
X81473207Y-70678103D01*
X81432058Y-70739686D01*
X81379686Y-70792058D01*
X81318103Y-70833207D01*
X81249675Y-70861550D01*
X81249674Y-70861550D01*
X81249672Y-70861551D01*
X81177034Y-70876000D01*
X81102966Y-70876000D01*
X81030328Y-70861551D01*
X81030326Y-70861550D01*
X81030325Y-70861550D01*
X80961897Y-70833207D01*
X80900314Y-70792058D01*
X80847942Y-70739686D01*
X80843928Y-70733679D01*
X80828388Y-70714744D01*
X80809447Y-70699199D01*
X80787836Y-70687647D01*
X80764387Y-70680534D01*
X80740001Y-70678132D01*
X80715615Y-70680534D01*
X80692166Y-70687647D01*
X80670555Y-70699197D01*
X80651613Y-70714743D01*
X80636072Y-70733679D01*
X80632058Y-70739686D01*
X80579686Y-70792058D01*
X80518103Y-70833207D01*
X80449675Y-70861550D01*
X80449674Y-70861550D01*
X80449672Y-70861551D01*
X80377034Y-70876000D01*
X80302966Y-70876000D01*
X80230328Y-70861551D01*
X80230326Y-70861550D01*
X80230325Y-70861550D01*
X80161897Y-70833207D01*
X80100314Y-70792058D01*
X80047942Y-70739686D01*
X80043928Y-70733679D01*
X80028388Y-70714744D01*
X80009447Y-70699199D01*
X79987836Y-70687647D01*
X79964387Y-70680534D01*
X79940001Y-70678132D01*
X79915615Y-70680534D01*
X79892166Y-70687647D01*
X79870555Y-70699197D01*
X79851613Y-70714743D01*
X79836072Y-70733679D01*
X79832058Y-70739686D01*
X79779686Y-70792058D01*
X79718103Y-70833207D01*
X79649675Y-70861550D01*
X79649674Y-70861550D01*
X79649672Y-70861551D01*
X79577034Y-70876000D01*
X79502966Y-70876000D01*
X79430328Y-70861551D01*
X79430326Y-70861550D01*
X79430325Y-70861550D01*
X79361897Y-70833207D01*
X79300314Y-70792058D01*
X79247942Y-70739686D01*
X79206793Y-70678103D01*
X79178450Y-70609675D01*
X79164000Y-70537033D01*
X79164000Y-70462966D01*
X79178449Y-70390326D01*
X79196435Y-70346904D01*
X79203548Y-70323455D01*
X79205950Y-70299069D01*
X79203548Y-70274683D01*
X79196435Y-70251234D01*
X79184884Y-70229624D01*
X79169339Y-70210682D01*
X79150397Y-70195136D01*
X79128786Y-70183585D01*
X79105338Y-70176472D01*
X79030327Y-70161551D01*
X79020304Y-70157399D01*
X78961897Y-70133207D01*
X78900314Y-70092058D01*
X78847942Y-70039686D01*
X78843928Y-70033679D01*
X78828388Y-70014744D01*
X78809447Y-69999199D01*
X78787836Y-69987647D01*
X78764387Y-69980534D01*
X78740001Y-69978132D01*
X78715615Y-69980534D01*
X78692166Y-69987647D01*
X78670555Y-69999197D01*
X78651613Y-70014743D01*
X78636072Y-70033679D01*
X78632058Y-70039686D01*
X78579686Y-70092058D01*
X78518103Y-70133207D01*
X78459696Y-70157399D01*
X78449673Y-70161551D01*
X78374662Y-70176472D01*
X78351214Y-70183585D01*
X78329603Y-70195136D01*
X78310661Y-70210682D01*
X78295116Y-70229624D01*
X78283565Y-70251234D01*
X78276452Y-70274683D01*
X78274050Y-70299069D01*
X78276452Y-70323456D01*
X78283565Y-70346904D01*
X78301551Y-70390326D01*
X78316000Y-70462966D01*
X78316000Y-70537033D01*
X78301550Y-70609675D01*
X78273207Y-70678103D01*
X78232058Y-70739686D01*
X78179686Y-70792058D01*
X78118103Y-70833207D01*
X78049675Y-70861550D01*
X78049674Y-70861550D01*
X78049672Y-70861551D01*
X77977034Y-70876000D01*
X77902966Y-70876000D01*
X77830328Y-70861551D01*
X77830326Y-70861550D01*
X77830325Y-70861550D01*
X77761897Y-70833207D01*
X77700314Y-70792058D01*
X77647942Y-70739686D01*
X77643928Y-70733679D01*
X77628388Y-70714744D01*
X77609447Y-70699199D01*
X77587836Y-70687647D01*
X77564387Y-70680534D01*
X77540001Y-70678132D01*
X77515615Y-70680534D01*
X77492166Y-70687647D01*
X77470555Y-70699197D01*
X77451613Y-70714743D01*
X77436072Y-70733679D01*
X77432058Y-70739686D01*
X77379686Y-70792058D01*
X77318103Y-70833207D01*
X77249675Y-70861550D01*
X77249674Y-70861550D01*
X77249672Y-70861551D01*
X77177034Y-70876000D01*
X77102966Y-70876000D01*
X77030328Y-70861551D01*
X77030326Y-70861550D01*
X77030325Y-70861550D01*
X76961897Y-70833207D01*
X76900314Y-70792058D01*
X76847942Y-70739686D01*
X76843928Y-70733679D01*
X76828388Y-70714744D01*
X76809447Y-70699199D01*
X76787836Y-70687647D01*
X76764387Y-70680534D01*
X76740001Y-70678132D01*
X76715615Y-70680534D01*
X76692166Y-70687647D01*
X76670555Y-70699197D01*
X76651613Y-70714743D01*
X76636072Y-70733679D01*
X76632058Y-70739686D01*
X76579686Y-70792058D01*
X76518103Y-70833207D01*
X76449675Y-70861550D01*
X76449674Y-70861550D01*
X76449672Y-70861551D01*
X76377034Y-70876000D01*
X76302966Y-70876000D01*
X76230328Y-70861551D01*
X76230326Y-70861550D01*
X76230325Y-70861550D01*
X76161897Y-70833207D01*
X76100314Y-70792058D01*
X76047942Y-70739686D01*
X76006793Y-70678103D01*
X75978450Y-70609675D01*
X75964000Y-70537033D01*
X75964000Y-70462966D01*
X75978449Y-70390326D01*
X75996435Y-70346904D01*
X76003548Y-70323455D01*
X76005950Y-70299069D01*
X76003548Y-70274683D01*
X75996435Y-70251234D01*
X75984884Y-70229624D01*
X75969339Y-70210682D01*
X75950397Y-70195136D01*
X75928786Y-70183585D01*
X75905338Y-70176472D01*
X75830327Y-70161551D01*
X75820304Y-70157399D01*
X75761897Y-70133207D01*
X75700314Y-70092058D01*
X75647942Y-70039686D01*
X75606793Y-69978103D01*
X75578450Y-69909675D01*
X75574163Y-69888122D01*
X75564000Y-69837034D01*
X75564000Y-69762966D01*
X75578449Y-69690328D01*
X75581290Y-69683469D01*
X75606793Y-69621897D01*
X75647942Y-69560314D01*
X75700314Y-69507942D01*
X75761897Y-69466793D01*
X75830325Y-69438450D01*
X75830326Y-69438450D01*
X75830328Y-69438449D01*
X75902966Y-69424000D01*
X75977034Y-69424000D01*
X76049672Y-69438449D01*
X76049674Y-69438450D01*
X76049675Y-69438450D01*
X76118103Y-69466793D01*
X76179686Y-69507942D01*
X76232058Y-69560314D01*
X76273207Y-69621897D01*
X76298710Y-69683469D01*
X76301551Y-69690328D01*
X76316000Y-69762966D01*
X76316000Y-69837034D01*
X76301551Y-69909674D01*
X76283565Y-69953096D01*
X76276452Y-69976545D01*
X76274050Y-70000931D01*
X76276452Y-70025317D01*
X76283565Y-70048766D01*
X76295116Y-70070376D01*
X76310661Y-70089318D01*
X76329603Y-70104864D01*
X76351214Y-70116415D01*
X76374662Y-70123528D01*
X76449673Y-70138449D01*
X76449676Y-70138450D01*
X76449675Y-70138450D01*
X76518103Y-70166793D01*
X76579686Y-70207942D01*
X76632058Y-70260314D01*
X76636072Y-70266321D01*
X76651612Y-70285256D01*
X76670553Y-70300801D01*
X76692164Y-70312353D01*
X76715613Y-70319466D01*
X76739999Y-70321868D01*
X76764385Y-70319466D01*
X76787834Y-70312353D01*
X76809445Y-70300803D01*
X76828387Y-70285257D01*
X76843928Y-70266321D01*
X76847942Y-70260314D01*
X76900314Y-70207942D01*
X76961897Y-70166793D01*
X77030325Y-70138450D01*
X77030324Y-70138450D01*
X77030327Y-70138449D01*
X77105338Y-70123528D01*
X77128786Y-70116415D01*
X77150397Y-70104864D01*
X77169339Y-70089318D01*
X77184884Y-70070376D01*
X77196435Y-70048766D01*
X77203548Y-70025317D01*
X77205950Y-70000931D01*
X77203548Y-69976544D01*
X77196435Y-69953096D01*
X77178449Y-69909674D01*
X77164000Y-69837034D01*
X77164000Y-69762966D01*
X77178449Y-69690328D01*
X77181290Y-69683469D01*
X77206793Y-69621897D01*
X77247942Y-69560314D01*
X77300314Y-69507942D01*
X77361897Y-69466793D01*
X77430325Y-69438450D01*
X77430326Y-69438450D01*
X77430328Y-69438449D01*
X77502966Y-69424000D01*
X77577034Y-69424000D01*
X77649672Y-69438449D01*
X77649674Y-69438450D01*
X77649675Y-69438450D01*
X77718103Y-69466793D01*
X77779686Y-69507942D01*
X77832058Y-69560314D01*
X77836072Y-69566321D01*
X77851612Y-69585256D01*
X77870553Y-69600801D01*
X77892164Y-69612353D01*
X77915613Y-69619466D01*
X77939999Y-69621868D01*
X77964385Y-69619466D01*
X77987834Y-69612353D01*
X78009445Y-69600803D01*
X78028387Y-69585257D01*
X78043928Y-69566321D01*
X78047942Y-69560314D01*
X78100314Y-69507942D01*
X78161897Y-69466793D01*
X78230325Y-69438450D01*
X78230326Y-69438450D01*
X78230328Y-69438449D01*
X78302966Y-69424000D01*
X78377034Y-69424000D01*
X78449672Y-69438449D01*
X78449674Y-69438450D01*
X78449675Y-69438450D01*
X78518103Y-69466793D01*
X78579686Y-69507942D01*
X78632058Y-69560314D01*
X78636072Y-69566321D01*
X78651612Y-69585256D01*
X78670553Y-69600801D01*
X78692164Y-69612353D01*
X78715613Y-69619466D01*
X78739999Y-69621868D01*
X78764385Y-69619466D01*
X78787834Y-69612353D01*
X78809445Y-69600803D01*
X78828387Y-69585257D01*
X78843928Y-69566321D01*
X78847942Y-69560314D01*
X78900314Y-69507942D01*
X78961897Y-69466793D01*
X79030325Y-69438450D01*
X79030326Y-69438450D01*
X79030328Y-69438449D01*
X79102966Y-69424000D01*
X79177034Y-69424000D01*
X79249672Y-69438449D01*
X79249674Y-69438450D01*
X79249675Y-69438450D01*
X79318103Y-69466793D01*
X79379686Y-69507942D01*
X79432058Y-69560314D01*
X79436072Y-69566321D01*
X79451612Y-69585256D01*
X79470553Y-69600801D01*
X79492164Y-69612353D01*
X79515613Y-69619466D01*
X79539999Y-69621868D01*
X79564385Y-69619466D01*
X79587834Y-69612353D01*
X79609445Y-69600803D01*
X79628387Y-69585257D01*
X79643928Y-69566321D01*
X79647942Y-69560314D01*
X79700314Y-69507942D01*
X79761897Y-69466793D01*
X79830325Y-69438450D01*
X79830326Y-69438450D01*
X79830328Y-69438449D01*
X79902966Y-69424000D01*
X79977034Y-69424000D01*
X80049672Y-69438449D01*
X80049674Y-69438450D01*
X80049675Y-69438450D01*
X80118103Y-69466793D01*
X80179686Y-69507942D01*
X80232058Y-69560314D01*
X80273207Y-69621897D01*
X80298710Y-69683469D01*
X80301551Y-69690328D01*
X80316000Y-69762966D01*
X80316000Y-69837034D01*
X80301551Y-69909674D01*
X80283565Y-69953096D01*
X80276452Y-69976545D01*
X80274050Y-70000931D01*
X80276452Y-70025317D01*
X80283565Y-70048766D01*
X80295116Y-70070376D01*
X80310661Y-70089318D01*
X80329603Y-70104864D01*
X80351214Y-70116415D01*
X80374662Y-70123528D01*
X80449673Y-70138449D01*
X80449676Y-70138450D01*
X80449675Y-70138450D01*
X80518103Y-70166793D01*
X80579686Y-70207942D01*
X80632058Y-70260314D01*
X80636072Y-70266321D01*
X80651612Y-70285256D01*
X80670553Y-70300801D01*
X80692164Y-70312353D01*
X80715613Y-70319466D01*
X80739999Y-70321868D01*
X80764385Y-70319466D01*
X80787834Y-70312353D01*
X80809445Y-70300803D01*
X80828387Y-70285257D01*
X80843928Y-70266321D01*
X80847942Y-70260314D01*
X80900314Y-70207942D01*
X80961897Y-70166793D01*
X81030325Y-70138450D01*
X81030324Y-70138450D01*
X81030327Y-70138449D01*
X81105338Y-70123528D01*
X81128786Y-70116415D01*
X81150397Y-70104864D01*
X81169339Y-70089318D01*
X81184884Y-70070376D01*
X81196435Y-70048766D01*
X81203548Y-70025317D01*
X81205950Y-70000931D01*
X81203548Y-69976544D01*
X81196435Y-69953096D01*
X81178449Y-69909674D01*
X81164000Y-69837034D01*
X81164000Y-69762966D01*
X81178449Y-69690328D01*
X81181290Y-69683469D01*
X81206793Y-69621897D01*
X81247942Y-69560314D01*
X81300314Y-69507942D01*
X81361897Y-69466793D01*
X81430325Y-69438450D01*
X81430326Y-69438450D01*
X81430328Y-69438449D01*
X81502966Y-69424000D01*
X81577034Y-69424000D01*
X81649674Y-69438449D01*
X81674169Y-69448595D01*
X81697618Y-69455708D01*
X81722004Y-69458110D01*
X81746390Y-69455708D01*
X81769839Y-69448595D01*
X81791450Y-69437044D01*
X81810392Y-69421499D01*
X81825937Y-69402557D01*
X81837488Y-69380946D01*
X81844601Y-69357497D01*
X81847003Y-69333111D01*
X81844601Y-69308725D01*
X81841620Y-69296825D01*
X81819440Y-69223710D01*
X81812181Y-69150000D01*
X81819440Y-69076290D01*
X81840940Y-69005415D01*
X81875854Y-68940096D01*
X81922841Y-68882841D01*
X81980096Y-68835854D01*
X82045415Y-68800940D01*
X82116290Y-68779440D01*
X82171528Y-68774000D01*
X82508472Y-68774000D01*
X82563710Y-68779440D01*
G37*
G36*
X66153512Y-68953927D02*
G01*
X66302812Y-68983624D01*
X66466784Y-69051544D01*
X66614354Y-69150147D01*
X66739853Y-69275646D01*
X66838456Y-69423216D01*
X66906376Y-69587188D01*
X66941000Y-69761259D01*
X66941000Y-69938741D01*
X66906376Y-70112812D01*
X66838456Y-70276784D01*
X66739853Y-70424354D01*
X66614354Y-70549853D01*
X66466784Y-70648456D01*
X66302812Y-70716376D01*
X66153512Y-70746073D01*
X66128742Y-70751000D01*
X65951258Y-70751000D01*
X65926488Y-70746073D01*
X65777188Y-70716376D01*
X65613216Y-70648456D01*
X65465646Y-70549853D01*
X65340147Y-70424354D01*
X65241544Y-70276784D01*
X65173624Y-70112812D01*
X65139000Y-69938741D01*
X65139000Y-69761259D01*
X65173624Y-69587188D01*
X65241544Y-69423216D01*
X65340147Y-69275646D01*
X65465646Y-69150147D01*
X65613216Y-69051544D01*
X65777188Y-68983624D01*
X65926488Y-68953927D01*
X65951258Y-68949000D01*
X66128742Y-68949000D01*
X66153512Y-68953927D01*
G37*
G36*
X66153512Y-66413927D02*
G01*
X66302812Y-66443624D01*
X66466784Y-66511544D01*
X66614354Y-66610147D01*
X66739853Y-66735646D01*
X66838456Y-66883216D01*
X66906376Y-67047188D01*
X66941000Y-67221259D01*
X66941000Y-67398741D01*
X66906376Y-67572812D01*
X66838456Y-67736784D01*
X66739853Y-67884354D01*
X66614354Y-68009853D01*
X66466784Y-68108456D01*
X66302812Y-68176376D01*
X66153512Y-68206073D01*
X66128742Y-68211000D01*
X65951258Y-68211000D01*
X65926488Y-68206073D01*
X65777188Y-68176376D01*
X65613216Y-68108456D01*
X65465646Y-68009853D01*
X65340147Y-67884354D01*
X65241544Y-67736784D01*
X65173624Y-67572812D01*
X65139000Y-67398741D01*
X65139000Y-67221259D01*
X65173624Y-67047188D01*
X65241544Y-66883216D01*
X65340147Y-66735646D01*
X65465646Y-66610147D01*
X65613216Y-66511544D01*
X65777188Y-66443624D01*
X65926488Y-66413927D01*
X65951258Y-66409000D01*
X66128742Y-66409000D01*
X66153512Y-66413927D01*
G37*
G36*
X75158410Y-67155525D02*
G01*
X75243426Y-67181314D01*
X75321775Y-67223193D01*
X75390449Y-67279551D01*
X75446807Y-67348225D01*
X75488686Y-67426574D01*
X75514475Y-67511590D01*
X75523182Y-67600000D01*
X75514475Y-67688410D01*
X75488686Y-67773426D01*
X75446807Y-67851775D01*
X75390449Y-67920449D01*
X75321775Y-67976807D01*
X75243426Y-68018686D01*
X75158410Y-68044475D01*
X75092158Y-68051000D01*
X74697842Y-68051000D01*
X74631590Y-68044475D01*
X74546574Y-68018686D01*
X74468225Y-67976807D01*
X74399551Y-67920449D01*
X74343193Y-67851775D01*
X74301314Y-67773426D01*
X74275525Y-67688410D01*
X74266818Y-67600000D01*
X74275525Y-67511590D01*
X74301314Y-67426574D01*
X74343193Y-67348225D01*
X74399551Y-67279551D01*
X74468225Y-67223193D01*
X74546574Y-67181314D01*
X74631590Y-67155525D01*
X74697842Y-67149000D01*
X75092158Y-67149000D01*
X75158410Y-67155525D01*
G37*
G36*
X82848410Y-67155525D02*
G01*
X82933426Y-67181314D01*
X83011775Y-67223193D01*
X83080449Y-67279551D01*
X83136807Y-67348225D01*
X83178686Y-67426574D01*
X83204475Y-67511590D01*
X83213182Y-67600000D01*
X83204475Y-67688410D01*
X83178686Y-67773426D01*
X83136807Y-67851775D01*
X83080449Y-67920449D01*
X83011775Y-67976807D01*
X82933426Y-68018686D01*
X82848410Y-68044475D01*
X82782158Y-68051000D01*
X82387842Y-68051000D01*
X82321590Y-68044475D01*
X82236574Y-68018686D01*
X82158225Y-67976807D01*
X82089551Y-67920449D01*
X82033193Y-67851775D01*
X81991314Y-67773426D01*
X81965525Y-67688410D01*
X81956818Y-67600000D01*
X81965525Y-67511590D01*
X81991314Y-67426574D01*
X82033193Y-67348225D01*
X82089551Y-67279551D01*
X82158225Y-67223193D01*
X82236574Y-67181314D01*
X82321590Y-67155525D01*
X82387842Y-67149000D01*
X82782158Y-67149000D01*
X82848410Y-67155525D01*
G37*
G36*
X66153512Y-63873927D02*
G01*
X66302812Y-63903624D01*
X66466784Y-63971544D01*
X66614354Y-64070147D01*
X66739853Y-64195646D01*
X66838456Y-64343216D01*
X66906376Y-64507188D01*
X66941000Y-64681259D01*
X66941000Y-64858741D01*
X66906376Y-65032812D01*
X66838456Y-65196784D01*
X66739853Y-65344354D01*
X66614354Y-65469853D01*
X66466784Y-65568456D01*
X66302812Y-65636376D01*
X66153512Y-65666073D01*
X66128742Y-65671000D01*
X65951258Y-65671000D01*
X65926488Y-65666073D01*
X65777188Y-65636376D01*
X65613216Y-65568456D01*
X65465646Y-65469853D01*
X65340147Y-65344354D01*
X65241544Y-65196784D01*
X65173624Y-65032812D01*
X65139000Y-64858741D01*
X65139000Y-64681259D01*
X65173624Y-64507188D01*
X65241544Y-64343216D01*
X65340147Y-64195646D01*
X65465646Y-64070147D01*
X65613216Y-63971544D01*
X65777188Y-63903624D01*
X65926488Y-63873927D01*
X65951258Y-63869000D01*
X66128742Y-63869000D01*
X66153512Y-63873927D01*
G37*
G36*
X66153512Y-61333927D02*
G01*
X66302812Y-61363624D01*
X66466784Y-61431544D01*
X66614354Y-61530147D01*
X66739853Y-61655646D01*
X66838456Y-61803216D01*
X66906376Y-61967188D01*
X66941000Y-62141259D01*
X66941000Y-62318741D01*
X66906376Y-62492812D01*
X66838456Y-62656784D01*
X66739853Y-62804354D01*
X66614354Y-62929853D01*
X66466784Y-63028456D01*
X66302812Y-63096376D01*
X66153512Y-63126073D01*
X66128742Y-63131000D01*
X65951258Y-63131000D01*
X65926488Y-63126073D01*
X65777188Y-63096376D01*
X65613216Y-63028456D01*
X65465646Y-62929853D01*
X65340147Y-62804354D01*
X65241544Y-62656784D01*
X65173624Y-62492812D01*
X65139000Y-62318741D01*
X65139000Y-62141259D01*
X65173624Y-61967188D01*
X65241544Y-61803216D01*
X65340147Y-61655646D01*
X65465646Y-61530147D01*
X65613216Y-61431544D01*
X65777188Y-61363624D01*
X65926488Y-61333927D01*
X65951258Y-61329000D01*
X66128742Y-61329000D01*
X66153512Y-61333927D01*
G37*
G36*
X66153512Y-58793927D02*
G01*
X66302812Y-58823624D01*
X66466784Y-58891544D01*
X66614354Y-58990147D01*
X66739853Y-59115646D01*
X66838456Y-59263216D01*
X66906376Y-59427188D01*
X66941000Y-59601259D01*
X66941000Y-59778741D01*
X66906376Y-59952812D01*
X66838456Y-60116784D01*
X66739853Y-60264354D01*
X66614354Y-60389853D01*
X66466784Y-60488456D01*
X66302812Y-60556376D01*
X66153512Y-60586073D01*
X66128742Y-60591000D01*
X65951258Y-60591000D01*
X65926488Y-60586073D01*
X65777188Y-60556376D01*
X65613216Y-60488456D01*
X65465646Y-60389853D01*
X65340147Y-60264354D01*
X65241544Y-60116784D01*
X65173624Y-59952812D01*
X65139000Y-59778741D01*
X65139000Y-59601259D01*
X65173624Y-59427188D01*
X65241544Y-59263216D01*
X65340147Y-59115646D01*
X65465646Y-58990147D01*
X65613216Y-58891544D01*
X65777188Y-58823624D01*
X65926488Y-58793927D01*
X65951258Y-58789000D01*
X66128742Y-58789000D01*
X66153512Y-58793927D01*
G37*
G36*
X66153512Y-56253927D02*
G01*
X66302812Y-56283624D01*
X66466784Y-56351544D01*
X66614354Y-56450147D01*
X66739853Y-56575646D01*
X66838456Y-56723216D01*
X66906376Y-56887188D01*
X66941000Y-57061259D01*
X66941000Y-57238741D01*
X66906376Y-57412812D01*
X66838456Y-57576784D01*
X66739853Y-57724354D01*
X66614354Y-57849853D01*
X66466784Y-57948456D01*
X66302812Y-58016376D01*
X66153512Y-58046073D01*
X66128742Y-58051000D01*
X65951258Y-58051000D01*
X65926488Y-58046073D01*
X65777188Y-58016376D01*
X65613216Y-57948456D01*
X65465646Y-57849853D01*
X65340147Y-57724354D01*
X65241544Y-57576784D01*
X65173624Y-57412812D01*
X65139000Y-57238741D01*
X65139000Y-57061259D01*
X65173624Y-56887188D01*
X65241544Y-56723216D01*
X65340147Y-56575646D01*
X65465646Y-56450147D01*
X65613216Y-56351544D01*
X65777188Y-56283624D01*
X65926488Y-56253927D01*
X65951258Y-56249000D01*
X66128742Y-56249000D01*
X66153512Y-56253927D01*
G37*
G36*
X66153512Y-53713927D02*
G01*
X66302812Y-53743624D01*
X66466784Y-53811544D01*
X66614354Y-53910147D01*
X66739853Y-54035646D01*
X66838456Y-54183216D01*
X66906376Y-54347188D01*
X66941000Y-54521259D01*
X66941000Y-54698741D01*
X66906376Y-54872812D01*
X66838456Y-55036784D01*
X66739853Y-55184354D01*
X66614354Y-55309853D01*
X66466784Y-55408456D01*
X66302812Y-55476376D01*
X66153512Y-55506073D01*
X66128742Y-55511000D01*
X65951258Y-55511000D01*
X65926488Y-55506073D01*
X65777188Y-55476376D01*
X65613216Y-55408456D01*
X65465646Y-55309853D01*
X65340147Y-55184354D01*
X65241544Y-55036784D01*
X65173624Y-54872812D01*
X65139000Y-54698741D01*
X65139000Y-54521259D01*
X65173624Y-54347188D01*
X65241544Y-54183216D01*
X65340147Y-54035646D01*
X65465646Y-53910147D01*
X65613216Y-53811544D01*
X65777188Y-53743624D01*
X65926488Y-53713927D01*
X65951258Y-53709000D01*
X66128742Y-53709000D01*
X66153512Y-53713927D01*
G37*
G36*
X73291000Y-54241000D02*
G01*
X71489000Y-54241000D01*
X71489000Y-52439000D01*
X73291000Y-52439000D01*
X73291000Y-54241000D01*
G37*
G36*
X66153512Y-51173927D02*
G01*
X66302812Y-51203624D01*
X66466784Y-51271544D01*
X66614354Y-51370147D01*
X66739853Y-51495646D01*
X66838456Y-51643216D01*
X66906376Y-51807188D01*
X66941000Y-51981259D01*
X66941000Y-52158741D01*
X66906376Y-52332812D01*
X66838456Y-52496784D01*
X66739853Y-52644354D01*
X66614354Y-52769853D01*
X66466784Y-52868456D01*
X66302812Y-52936376D01*
X66153512Y-52966073D01*
X66128742Y-52971000D01*
X65951258Y-52971000D01*
X65926488Y-52966073D01*
X65777188Y-52936376D01*
X65613216Y-52868456D01*
X65465646Y-52769853D01*
X65340147Y-52644354D01*
X65241544Y-52496784D01*
X65173624Y-52332812D01*
X65139000Y-52158741D01*
X65139000Y-51981259D01*
X65173624Y-51807188D01*
X65241544Y-51643216D01*
X65340147Y-51495646D01*
X65465646Y-51370147D01*
X65613216Y-51271544D01*
X65777188Y-51203624D01*
X65926488Y-51173927D01*
X65951258Y-51169000D01*
X66128742Y-51169000D01*
X66153512Y-51173927D01*
G37*
G36*
X72503512Y-49903927D02*
G01*
X72652812Y-49933624D01*
X72816784Y-50001544D01*
X72964354Y-50100147D01*
X73089853Y-50225646D01*
X73188456Y-50373216D01*
X73256376Y-50537188D01*
X73291000Y-50711259D01*
X73291000Y-50888741D01*
X73256376Y-51062812D01*
X73188456Y-51226784D01*
X73089853Y-51374354D01*
X72964354Y-51499853D01*
X72816784Y-51598456D01*
X72652812Y-51666376D01*
X72503512Y-51696073D01*
X72478742Y-51701000D01*
X72301258Y-51701000D01*
X72276488Y-51696073D01*
X72127188Y-51666376D01*
X71963216Y-51598456D01*
X71815646Y-51499853D01*
X71690147Y-51374354D01*
X71591544Y-51226784D01*
X71523624Y-51062812D01*
X71489000Y-50888741D01*
X71489000Y-50711259D01*
X71523624Y-50537188D01*
X71591544Y-50373216D01*
X71690147Y-50225646D01*
X71815646Y-50100147D01*
X71963216Y-50001544D01*
X72127188Y-49933624D01*
X72276488Y-49903927D01*
X72301258Y-49899000D01*
X72478742Y-49899000D01*
X72503512Y-49903927D01*
G37*
G36*
X66941000Y-50431000D02*
G01*
X65139000Y-50431000D01*
X65139000Y-48629000D01*
X66941000Y-48629000D01*
X66941000Y-50431000D01*
G37*
G36*
X150097142Y-44938242D02*
G01*
X150245101Y-44999529D01*
X150378255Y-45088499D01*
X150491501Y-45201745D01*
X150580471Y-45334899D01*
X150641758Y-45482858D01*
X150673000Y-45639925D01*
X150673000Y-45800075D01*
X150641758Y-45957142D01*
X150580471Y-46105101D01*
X150491501Y-46238255D01*
X150378255Y-46351501D01*
X150245101Y-46440471D01*
X150097142Y-46501758D01*
X149940075Y-46533000D01*
X149779925Y-46533000D01*
X149622858Y-46501758D01*
X149474899Y-46440471D01*
X149341745Y-46351501D01*
X149228499Y-46238255D01*
X149139529Y-46105101D01*
X149078242Y-45957142D01*
X149047000Y-45800075D01*
X149047000Y-45639925D01*
X149078242Y-45482858D01*
X149139529Y-45334899D01*
X149228499Y-45201745D01*
X149341745Y-45088499D01*
X149474899Y-44999529D01*
X149622858Y-44938242D01*
X149779925Y-44907000D01*
X149940075Y-44907000D01*
X150097142Y-44938242D01*
G37*
G36*
X155177142Y-44938242D02*
G01*
X155325101Y-44999529D01*
X155458255Y-45088499D01*
X155571501Y-45201745D01*
X155660471Y-45334899D01*
X155721758Y-45482858D01*
X155753000Y-45639925D01*
X155753000Y-45800075D01*
X155721758Y-45957142D01*
X155660471Y-46105101D01*
X155571501Y-46238255D01*
X155458255Y-46351501D01*
X155325101Y-46440471D01*
X155177142Y-46501758D01*
X155020075Y-46533000D01*
X154859925Y-46533000D01*
X154702858Y-46501758D01*
X154554899Y-46440471D01*
X154421745Y-46351501D01*
X154308499Y-46238255D01*
X154219529Y-46105101D01*
X154158242Y-45957142D01*
X154127000Y-45800075D01*
X154127000Y-45639925D01*
X154158242Y-45482858D01*
X154219529Y-45334899D01*
X154308499Y-45201745D01*
X154421745Y-45088499D01*
X154554899Y-44999529D01*
X154702858Y-44938242D01*
X154859925Y-44907000D01*
X155020075Y-44907000D01*
X155177142Y-44938242D01*
G37*
G36*
X72116564Y-43439389D02*
G01*
X72307833Y-43518615D01*
X72307835Y-43518616D01*
X72479973Y-43633635D01*
X72626365Y-43780027D01*
X72741385Y-43952167D01*
X72820611Y-44143436D01*
X72861000Y-44346484D01*
X72861000Y-44553516D01*
X72820611Y-44756564D01*
X72745358Y-44938242D01*
X72741384Y-44947835D01*
X72626365Y-45119973D01*
X72479973Y-45266365D01*
X72307835Y-45381384D01*
X72307834Y-45381385D01*
X72307833Y-45381385D01*
X72116564Y-45460611D01*
X71913516Y-45501000D01*
X71706484Y-45501000D01*
X71503436Y-45460611D01*
X71312167Y-45381385D01*
X71312166Y-45381385D01*
X71312165Y-45381384D01*
X71140027Y-45266365D01*
X70993635Y-45119973D01*
X70878616Y-44947835D01*
X70874642Y-44938242D01*
X70799389Y-44756564D01*
X70759000Y-44553516D01*
X70759000Y-44346484D01*
X70799389Y-44143436D01*
X70878615Y-43952167D01*
X70993635Y-43780027D01*
X71140027Y-43633635D01*
X71312165Y-43518616D01*
X71312167Y-43518615D01*
X71503436Y-43439389D01*
X71706484Y-43399000D01*
X71913516Y-43399000D01*
X72116564Y-43439389D01*
G37*
G36*
X67616564Y-43439389D02*
G01*
X67807833Y-43518615D01*
X67807835Y-43518616D01*
X67979973Y-43633635D01*
X68126365Y-43780027D01*
X68241385Y-43952167D01*
X68320611Y-44143436D01*
X68361000Y-44346484D01*
X68361000Y-44553516D01*
X68320611Y-44756564D01*
X68245358Y-44938242D01*
X68241384Y-44947835D01*
X68126365Y-45119973D01*
X67979973Y-45266365D01*
X67807835Y-45381384D01*
X67807834Y-45381385D01*
X67807833Y-45381385D01*
X67616564Y-45460611D01*
X67413516Y-45501000D01*
X67206484Y-45501000D01*
X67003436Y-45460611D01*
X66812167Y-45381385D01*
X66812166Y-45381385D01*
X66812165Y-45381384D01*
X66640027Y-45266365D01*
X66493635Y-45119973D01*
X66378616Y-44947835D01*
X66374642Y-44938242D01*
X66299389Y-44756564D01*
X66259000Y-44553516D01*
X66259000Y-44346484D01*
X66299389Y-44143436D01*
X66378615Y-43952167D01*
X66493635Y-43780027D01*
X66640027Y-43633635D01*
X66812165Y-43518616D01*
X66812167Y-43518615D01*
X67003436Y-43439389D01*
X67206484Y-43399000D01*
X67413516Y-43399000D01*
X67616564Y-43439389D01*
G37*
G36*
X67616564Y-36939389D02*
G01*
X67807833Y-37018615D01*
X67807835Y-37018616D01*
X67979973Y-37133635D01*
X68126365Y-37280027D01*
X68241385Y-37452167D01*
X68320611Y-37643436D01*
X68361000Y-37846484D01*
X68361000Y-38053516D01*
X68320611Y-38256564D01*
X68287234Y-38337143D01*
X68241384Y-38447835D01*
X68126365Y-38619973D01*
X67979973Y-38766365D01*
X67807835Y-38881384D01*
X67807834Y-38881385D01*
X67807833Y-38881385D01*
X67616564Y-38960611D01*
X67413516Y-39001000D01*
X67206484Y-39001000D01*
X67003436Y-38960611D01*
X66812167Y-38881385D01*
X66812166Y-38881385D01*
X66812165Y-38881384D01*
X66640027Y-38766365D01*
X66493635Y-38619973D01*
X66378616Y-38447835D01*
X66332766Y-38337143D01*
X66299389Y-38256564D01*
X66259000Y-38053516D01*
X66259000Y-37846484D01*
X66299389Y-37643436D01*
X66378615Y-37452167D01*
X66493635Y-37280027D01*
X66640027Y-37133635D01*
X66812165Y-37018616D01*
X66812167Y-37018615D01*
X67003436Y-36939389D01*
X67206484Y-36899000D01*
X67413516Y-36899000D01*
X67616564Y-36939389D01*
G37*
G36*
X72116564Y-36939389D02*
G01*
X72307833Y-37018615D01*
X72307835Y-37018616D01*
X72479973Y-37133635D01*
X72626365Y-37280027D01*
X72741385Y-37452167D01*
X72820611Y-37643436D01*
X72861000Y-37846484D01*
X72861000Y-38053516D01*
X72820611Y-38256564D01*
X72787234Y-38337143D01*
X72741384Y-38447835D01*
X72626365Y-38619973D01*
X72479973Y-38766365D01*
X72307835Y-38881384D01*
X72307834Y-38881385D01*
X72307833Y-38881385D01*
X72116564Y-38960611D01*
X71913516Y-39001000D01*
X71706484Y-39001000D01*
X71503436Y-38960611D01*
X71312167Y-38881385D01*
X71312166Y-38881385D01*
X71312165Y-38881384D01*
X71140027Y-38766365D01*
X70993635Y-38619973D01*
X70878616Y-38447835D01*
X70832766Y-38337143D01*
X70799389Y-38256564D01*
X70759000Y-38053516D01*
X70759000Y-37846484D01*
X70799389Y-37643436D01*
X70878615Y-37452167D01*
X70993635Y-37280027D01*
X71140027Y-37133635D01*
X71312165Y-37018616D01*
X71312167Y-37018615D01*
X71503436Y-36939389D01*
X71706484Y-36899000D01*
X71913516Y-36899000D01*
X72116564Y-36939389D01*
G37*
G36*
X155177142Y-37318242D02*
G01*
X155325101Y-37379529D01*
X155458255Y-37468499D01*
X155571501Y-37581745D01*
X155660471Y-37714899D01*
X155721758Y-37862858D01*
X155753000Y-38019925D01*
X155753000Y-38180075D01*
X155721758Y-38337142D01*
X155660471Y-38485101D01*
X155571501Y-38618255D01*
X155458255Y-38731501D01*
X155325101Y-38820471D01*
X155177142Y-38881758D01*
X155020075Y-38913000D01*
X154859925Y-38913000D01*
X154702858Y-38881758D01*
X154554899Y-38820471D01*
X154421745Y-38731501D01*
X154308499Y-38618255D01*
X154219529Y-38485101D01*
X154158242Y-38337142D01*
X154127000Y-38180075D01*
X154127000Y-38019925D01*
X154158242Y-37862858D01*
X154219529Y-37714899D01*
X154308499Y-37581745D01*
X154421745Y-37468499D01*
X154554899Y-37379529D01*
X154702858Y-37318242D01*
X154859925Y-37287000D01*
X155020075Y-37287000D01*
X155177142Y-37318242D01*
G37*
G36*
X150097142Y-37318242D02*
G01*
X150245101Y-37379529D01*
X150378255Y-37468499D01*
X150491501Y-37581745D01*
X150580471Y-37714899D01*
X150641758Y-37862858D01*
X150673000Y-38019925D01*
X150673000Y-38180075D01*
X150641758Y-38337142D01*
X150580471Y-38485101D01*
X150491501Y-38618255D01*
X150378255Y-38731501D01*
X150245101Y-38820471D01*
X150097142Y-38881758D01*
X149940075Y-38913000D01*
X149779925Y-38913000D01*
X149622858Y-38881758D01*
X149474899Y-38820471D01*
X149341745Y-38731501D01*
X149228499Y-38618255D01*
X149139529Y-38485101D01*
X149078242Y-38337142D01*
X149047000Y-38180075D01*
X149047000Y-38019925D01*
X149078242Y-37862858D01*
X149139529Y-37714899D01*
X149228499Y-37581745D01*
X149341745Y-37468499D01*
X149474899Y-37379529D01*
X149622858Y-37318242D01*
X149779925Y-37287000D01*
X149940075Y-37287000D01*
X150097142Y-37318242D01*
G37*
G36*
X155753000Y-36373000D02*
G01*
X154127000Y-36373000D01*
X154127000Y-34747000D01*
X155753000Y-34747000D01*
X155753000Y-36373000D01*
G37*
G36*
X150097142Y-34778242D02*
G01*
X150245101Y-34839529D01*
X150378255Y-34928499D01*
X150491501Y-35041745D01*
X150580471Y-35174899D01*
X150641758Y-35322858D01*
X150673000Y-35479925D01*
X150673000Y-35640075D01*
X150641758Y-35797142D01*
X150580471Y-35945101D01*
X150491501Y-36078255D01*
X150378255Y-36191501D01*
X150245101Y-36280471D01*
X150097142Y-36341758D01*
X149940075Y-36373000D01*
X149779925Y-36373000D01*
X149622858Y-36341758D01*
X149474899Y-36280471D01*
X149341745Y-36191501D01*
X149228499Y-36078255D01*
X149139529Y-35945101D01*
X149078242Y-35797142D01*
X149047000Y-35640075D01*
X149047000Y-35479925D01*
X149078242Y-35322858D01*
X149139529Y-35174899D01*
X149228499Y-35041745D01*
X149341745Y-34928499D01*
X149474899Y-34839529D01*
X149622858Y-34778242D01*
X149779925Y-34747000D01*
X149940075Y-34747000D01*
X150097142Y-34778242D01*
G37*
G36*
X72116564Y-33279389D02*
G01*
X72307833Y-33358615D01*
X72307835Y-33358616D01*
X72479973Y-33473635D01*
X72626365Y-33620027D01*
X72741385Y-33792167D01*
X72820611Y-33983436D01*
X72861000Y-34186484D01*
X72861000Y-34393516D01*
X72820611Y-34596564D01*
X72745358Y-34778242D01*
X72741384Y-34787835D01*
X72626365Y-34959973D01*
X72479973Y-35106365D01*
X72307835Y-35221384D01*
X72307834Y-35221385D01*
X72307833Y-35221385D01*
X72116564Y-35300611D01*
X71913516Y-35341000D01*
X71706484Y-35341000D01*
X71503436Y-35300611D01*
X71312167Y-35221385D01*
X71312166Y-35221385D01*
X71312165Y-35221384D01*
X71140027Y-35106365D01*
X70993635Y-34959973D01*
X70878616Y-34787835D01*
X70874642Y-34778242D01*
X70799389Y-34596564D01*
X70759000Y-34393516D01*
X70759000Y-34186484D01*
X70799389Y-33983436D01*
X70878615Y-33792167D01*
X70993635Y-33620027D01*
X71140027Y-33473635D01*
X71312165Y-33358616D01*
X71312167Y-33358615D01*
X71503436Y-33279389D01*
X71706484Y-33239000D01*
X71913516Y-33239000D01*
X72116564Y-33279389D01*
G37*
G36*
X67616564Y-33279389D02*
G01*
X67807833Y-33358615D01*
X67807835Y-33358616D01*
X67979973Y-33473635D01*
X68126365Y-33620027D01*
X68241385Y-33792167D01*
X68320611Y-33983436D01*
X68361000Y-34186484D01*
X68361000Y-34393516D01*
X68320611Y-34596564D01*
X68245358Y-34778242D01*
X68241384Y-34787835D01*
X68126365Y-34959973D01*
X67979973Y-35106365D01*
X67807835Y-35221384D01*
X67807834Y-35221385D01*
X67807833Y-35221385D01*
X67616564Y-35300611D01*
X67413516Y-35341000D01*
X67206484Y-35341000D01*
X67003436Y-35300611D01*
X66812167Y-35221385D01*
X66812166Y-35221385D01*
X66812165Y-35221384D01*
X66640027Y-35106365D01*
X66493635Y-34959973D01*
X66378616Y-34787835D01*
X66374642Y-34778242D01*
X66299389Y-34596564D01*
X66259000Y-34393516D01*
X66259000Y-34186484D01*
X66299389Y-33983436D01*
X66378615Y-33792167D01*
X66493635Y-33620027D01*
X66640027Y-33473635D01*
X66812165Y-33358616D01*
X66812167Y-33358615D01*
X67003436Y-33279389D01*
X67206484Y-33239000D01*
X67413516Y-33239000D01*
X67616564Y-33279389D01*
G37*
G36*
X155841000Y-30111000D02*
G01*
X154039000Y-30111000D01*
X154039000Y-28309000D01*
X155841000Y-28309000D01*
X155841000Y-30111000D01*
G37*
G36*
X144893512Y-28313927D02*
G01*
X145042812Y-28343624D01*
X145206784Y-28411544D01*
X145354354Y-28510147D01*
X145479853Y-28635646D01*
X145578456Y-28783216D01*
X145646376Y-28947188D01*
X145681000Y-29121259D01*
X145681000Y-29298741D01*
X145646376Y-29472812D01*
X145578456Y-29636784D01*
X145479853Y-29784354D01*
X145354354Y-29909853D01*
X145206784Y-30008456D01*
X145042812Y-30076376D01*
X144893512Y-30106073D01*
X144868742Y-30111000D01*
X144691258Y-30111000D01*
X144666488Y-30106073D01*
X144517188Y-30076376D01*
X144353216Y-30008456D01*
X144205646Y-29909853D01*
X144080147Y-29784354D01*
X143981544Y-29636784D01*
X143913624Y-29472812D01*
X143879000Y-29298741D01*
X143879000Y-29121259D01*
X143913624Y-28947188D01*
X143981544Y-28783216D01*
X144080147Y-28635646D01*
X144205646Y-28510147D01*
X144353216Y-28411544D01*
X144517188Y-28343624D01*
X144666488Y-28313927D01*
X144691258Y-28309000D01*
X144868742Y-28309000D01*
X144893512Y-28313927D01*
G37*
G36*
X113931000Y-30111000D02*
G01*
X112129000Y-30111000D01*
X112129000Y-28309000D01*
X113931000Y-28309000D01*
X113931000Y-30111000D01*
G37*
G36*
X115683512Y-28313927D02*
G01*
X115832812Y-28343624D01*
X115996784Y-28411544D01*
X116144354Y-28510147D01*
X116269853Y-28635646D01*
X116368456Y-28783216D01*
X116436376Y-28947188D01*
X116471000Y-29121259D01*
X116471000Y-29298741D01*
X116436376Y-29472812D01*
X116368456Y-29636784D01*
X116269853Y-29784354D01*
X116144354Y-29909853D01*
X115996784Y-30008456D01*
X115832812Y-30076376D01*
X115683512Y-30106073D01*
X115658742Y-30111000D01*
X115481258Y-30111000D01*
X115456488Y-30106073D01*
X115307188Y-30076376D01*
X115143216Y-30008456D01*
X114995646Y-29909853D01*
X114870147Y-29784354D01*
X114771544Y-29636784D01*
X114703624Y-29472812D01*
X114669000Y-29298741D01*
X114669000Y-29121259D01*
X114703624Y-28947188D01*
X114771544Y-28783216D01*
X114870147Y-28635646D01*
X114995646Y-28510147D01*
X115143216Y-28411544D01*
X115307188Y-28343624D01*
X115456488Y-28313927D01*
X115481258Y-28309000D01*
X115658742Y-28309000D01*
X115683512Y-28313927D01*
G37*
G36*
X157593512Y-28313927D02*
G01*
X157742812Y-28343624D01*
X157906784Y-28411544D01*
X158054354Y-28510147D01*
X158179853Y-28635646D01*
X158278456Y-28783216D01*
X158346376Y-28947188D01*
X158381000Y-29121259D01*
X158381000Y-29298741D01*
X158346376Y-29472812D01*
X158278456Y-29636784D01*
X158179853Y-29784354D01*
X158054354Y-29909853D01*
X157906784Y-30008456D01*
X157742812Y-30076376D01*
X157593512Y-30106073D01*
X157568742Y-30111000D01*
X157391258Y-30111000D01*
X157366488Y-30106073D01*
X157217188Y-30076376D01*
X157053216Y-30008456D01*
X156905646Y-29909853D01*
X156780147Y-29784354D01*
X156681544Y-29636784D01*
X156613624Y-29472812D01*
X156579000Y-29298741D01*
X156579000Y-29121259D01*
X156613624Y-28947188D01*
X156681544Y-28783216D01*
X156780147Y-28635646D01*
X156905646Y-28510147D01*
X157053216Y-28411544D01*
X157217188Y-28343624D01*
X157366488Y-28313927D01*
X157391258Y-28309000D01*
X157568742Y-28309000D01*
X157593512Y-28313927D01*
G37*
G36*
X143141000Y-30111000D02*
G01*
X141339000Y-30111000D01*
X141339000Y-28309000D01*
X143141000Y-28309000D01*
X143141000Y-30111000D01*
G37*
G36*
X67616564Y-26779389D02*
G01*
X67807833Y-26858615D01*
X67807835Y-26858616D01*
X67979973Y-26973635D01*
X68126365Y-27120027D01*
X68241385Y-27292167D01*
X68320611Y-27483436D01*
X68361000Y-27686484D01*
X68361000Y-27893516D01*
X68320611Y-28096564D01*
X68241385Y-28287833D01*
X68241384Y-28287835D01*
X68126365Y-28459973D01*
X67979973Y-28606365D01*
X67807835Y-28721384D01*
X67807834Y-28721385D01*
X67807833Y-28721385D01*
X67616564Y-28800611D01*
X67413516Y-28841000D01*
X67206484Y-28841000D01*
X67003436Y-28800611D01*
X66812167Y-28721385D01*
X66812166Y-28721385D01*
X66812165Y-28721384D01*
X66640027Y-28606365D01*
X66493635Y-28459973D01*
X66378616Y-28287835D01*
X66378615Y-28287833D01*
X66299389Y-28096564D01*
X66259000Y-27893516D01*
X66259000Y-27686484D01*
X66299389Y-27483436D01*
X66378615Y-27292167D01*
X66493635Y-27120027D01*
X66640027Y-26973635D01*
X66812165Y-26858616D01*
X66812167Y-26858615D01*
X67003436Y-26779389D01*
X67206484Y-26739000D01*
X67413516Y-26739000D01*
X67616564Y-26779389D01*
G37*
G36*
X72116564Y-26779389D02*
G01*
X72307833Y-26858615D01*
X72307835Y-26858616D01*
X72479973Y-26973635D01*
X72626365Y-27120027D01*
X72741385Y-27292167D01*
X72820611Y-27483436D01*
X72861000Y-27686484D01*
X72861000Y-27893516D01*
X72820611Y-28096564D01*
X72741385Y-28287833D01*
X72741384Y-28287835D01*
X72626365Y-28459973D01*
X72479973Y-28606365D01*
X72307835Y-28721384D01*
X72307834Y-28721385D01*
X72307833Y-28721385D01*
X72116564Y-28800611D01*
X71913516Y-28841000D01*
X71706484Y-28841000D01*
X71503436Y-28800611D01*
X71312167Y-28721385D01*
X71312166Y-28721385D01*
X71312165Y-28721384D01*
X71140027Y-28606365D01*
X70993635Y-28459973D01*
X70878616Y-28287835D01*
X70878615Y-28287833D01*
X70799389Y-28096564D01*
X70759000Y-27893516D01*
X70759000Y-27686484D01*
X70799389Y-27483436D01*
X70878615Y-27292167D01*
X70993635Y-27120027D01*
X71140027Y-26973635D01*
X71312165Y-26858616D01*
X71312167Y-26858615D01*
X71503436Y-26779389D01*
X71706484Y-26739000D01*
X71913516Y-26739000D01*
X72116564Y-26779389D01*
G37*
M02*
